<?xml version="1.0" standalone="no"?>
<!DOCTYPE svg PUBLIC "-//W3C//DTD SVG 1.1//EN" "http://www.w3.org/Graphics/SVG/1.1/DTD/svg11.dtd" >
<svg xmlns="http://www.w3.org/2000/svg" xmlns:xlink="http://www.w3.org/1999/xlink" version="1.1">
<metadata>
Created by FontForge 20170731 at Sat Feb  9 03:40:06 2002
 By Aleksey,,,
DoubleRus encoding by Diai. Unfinished. Based on font by Dmytry Manoshin
</metadata>
<defs>
<font id="MandarinC" horiz-adv-x="480" >
  <font-face 
    font-family="MandarinC"
    font-weight="400"
    font-stretch="normal"
    units-per-em="1000"
    panose-1="4 0 5 6 7 0 0 2 0 4"
    ascent="800"
    descent="-200"
    x-height="645"
    cap-height="666"
    bbox="-139 -215 888 908"
    underline-thickness="51"
    underline-position="-189"
    unicode-range="U+0020-E002"
  />
<missing-glyph horiz-adv-x="500" 
 />
    <glyph glyph-name=".notdef" horiz-adv-x="500" 
 />
    <glyph glyph-name=".null" horiz-adv-x="0" 
 />
    <glyph glyph-name="nonmarkingreturn" horiz-adv-x="333" 
 />
    <glyph glyph-name="visiblespace" unicode=" " horiz-adv-x="250" 
 />
    <glyph glyph-name="exclam" unicode="!" horiz-adv-x="289" 
d="M131 664l93 -137q-38 -52 -54.5 -95.5t-16.5 -89.5q0 -45 14 -79t49 -72l-23 -25q-40 44 -62.5 76t-35.5 65q-28 66 -28 140q0 61 14 109t50 108zM158 6l-91 90l86 87l83 -87z" />
    <glyph glyph-name="quotedbl" unicode="&#x22;" horiz-adv-x="300" 
d="M114 400h-64l-10 267h84zM250 400h-64l-10 267h84z" />
    <glyph glyph-name="numbersign" unicode="#" horiz-adv-x="500" 
d="M447 269l-8 -54h-91l-34 -215h-60l34 215h-115l-34 -215h-59l34 215h-91l8 54h92l20 128h-91l8 54h92l34 216h58l-34 -216h116l34 216h59l-34 -216h91l-8 -54h-91l-21 -128h91zM317 397h-115l-21 -128h116z" />
    <glyph glyph-name="dollar" unicode="$" 
d="M254 43v-43h-32v45q-84 13 -128 74t-55 178l116 -53q16 -72 67 -95v126q-84 14 -130 59.5t-46 114.5q0 73 50.5 123.5t125.5 50.5v44h32v-47q93 -15 171 -107l-13 -20q-41 35 -80 54t-78 23v-194l19 -1q32 0 68 13q-12 10 -23 17t-31 18l15 23q48 -24 71 -43
q14 10 24.5 20t23.5 27l15 -12l-42 -56q48 -54 48 -136q0 -58 -22 -105t-62 -72q-22 -14 -45 -20t-59 -6zM254 272v-130q56 0 93.5 39.5t37.5 100.5q0 32 -15 67l-58 -77l-33 -1zM222 381v190q-43 0 -70.5 -25.5t-27.5 -64.5q0 -75 98 -100z" />
    <glyph glyph-name="percent" unicode="%" horiz-adv-x="611" 
d="M177 332l8 -17l-30 -5l-20 3q-7 -3 -18 -5.5t-21 -3.5l-7 17l17 5q-43 27 -66 69t-23 93q0 41 18 73.5t60 66.5l-18 30l33 2q26 0 50 -8q22 6 46 8l3 -19l-19 -4q79 -55 79 -148q0 -102 -92 -157zM151 396l17 -43q27 28 39.5 54.5t12.5 57.5q0 58 -39 84q-15 11 -57 23
l-18 36q-22 -27 -32 -50.5t-10 -48.5q0 -22 8 -44.5t22 -36.5t57 -32zM192 -19l-13 118q78 147 129 293t66 268h18q0 -161 -59.5 -355t-140.5 -324zM502 19l8 -18l-30 -4l-19 2q-2 -1 -13.5 -4t-25.5 -4l-8 17l17 4q-43 27 -66 69t-23 94q0 77 78 139l-18 30l34 2
q26 0 49 -8q11 3 22 5t24 3l4 -18l-20 -5q80 -54 80 -147q0 -102 -93 -157zM477 83l16 -43q53 54 53 112q0 57 -40 84q-10 6 -22.5 11.5t-33.5 11.5l-19 35q-22 -26 -32 -50t-10 -49q0 -22 8 -44t21.5 -36t58.5 -32z" />
    <glyph glyph-name="ampersand" unicode="&#x26;" horiz-adv-x="593" 
d="M232 638l14 10q18 -6 30 -10.5t27 -11.5l41 16l14 -10q-14 -10 -21 -21l10 -10q22 -22 32 -45t10 -49q0 -29 -11 -53t-39 -54l-82 44q1 -10 3 -17.5t6 -17.5q26 -3 29 -4q22 -6 40 -11l-2 -28h-17l-32 -2q5 -27 15.5 -44.5t36.5 -43.5q18 70 77 103t164 33l-76 -146h-12
q-41 0 -60 -8t-40 -36q18 -30 50 -41t120 -19l-120 -157q-21 15 -36 27t-35 31l7 -31l-41 -9l-16 93l-7 11l-8 10l-6 8l-92 -139q-58 9 -99 39.5t-65 78t-24 98.5q0 64 46 112t128 70l-1 29q0 92 63 169zM249 494v-11q27 16 37 27.5t10 26.5q0 9 -12 29q-20 -14 -27.5 -29.5
t-7.5 -42.5zM272 180q-56 117 -67 173q-70 -26 -70 -94q0 -41 24.5 -65.5t66.5 -24.5q12 0 20.5 2t25.5 9z" />
    <glyph glyph-name="quotesingle" unicode="'" horiz-adv-x="164" 
d="M114 400h-64l-10 267h84z" />
    <glyph glyph-name="parenleft" unicode="(" horiz-adv-x="227" 
d="M169 96l-81 -118q-31 61 -43 111.5t-12 122.5q0 122 36 246t102 226l22 -14q-43 -90 -58 -155t-15 -159q0 -73 9 -120.5t40 -139.5z" />
    <glyph glyph-name="parenright" unicode=")" horiz-adv-x="227" 
d="M57 567l81 117q31 -60 43 -110.5t12 -123.5q0 -121 -36 -245.5t-102 -226.5l-22 15q43 91 58 154.5t15 158.5q0 73 -9 120.5t-40 140.5z" />
    <glyph glyph-name="asterisk" unicode="*" horiz-adv-x="390" 
d="M159 352l-22 -7q-11 47 -11 85l2 40q-28 5 -51 11.5t-60 22.5l56 69q19 -10 27.5 -14t22.5 -8q-21 52 -30 123l88 -14q0 -23 0.5 -27.5t5.5 -26.5q17 21 35.5 38t46.5 37l31 -83q-22 -14 -38.5 -28t-33.5 -32q38 0 72 10.5t56 26.5l18 -16q-55 -55 -127 -79
q23 -27 40.5 -41.5t36.5 -23.5l-5 -23q-80 21 -135 73q-25 -58 -25 -96v-17z" />
    <glyph glyph-name="plus" unicode="+" 
d="M43 363h165v167h65v-167h164v-60h-164v-167h-65v167h-165v60z" />
    <glyph glyph-name="comma" unicode="," horiz-adv-x="227" 
d="M33 70l93 91q33 -29 47 -56t14 -61q0 -41 -20 -81.5t-71 -100.5l-25 24q16 47 16 73q0 33 -12 58.5t-42 52.5z" />
    <glyph glyph-name="glyph14" unicode="-" horiz-adv-x="242" 
d="M158 363l84 -94q-48 -49 -109 -49q-28 0 -55 9.5t-78 39.5l24 58l36 -2q47 0 98 38z" />
    <glyph glyph-name="period" unicode="." horiz-adv-x="251" 
d="M122 179l102 -96l-98 -98l-103 98z" />
    <glyph glyph-name="slash" unicode="/" horiz-adv-x="254" 
d="M5 -62l-38 14l283 777l37 -14z" />
    <glyph glyph-name="zero" unicode="0" 
d="M294 33l14 -33q-24 -5 -30.5 -6t-16.5 -1q-15 0 -35 6q-27 -11 -39 -13t-28 -4l-9 22l39 11q-16 9 -30.5 19.5t-23.5 18.5q-54 50 -86 127t-32 156t33 142t110 130l-30 55l50 3q42 0 90 -16q25 7 40.5 10t38.5 5l5 -23l-44 -11q153 -110 153 -293q0 -199 -169 -305z
M251 151l32 -92q53 63 75 115.5t22 116.5q0 117 -72 170q-18 14 -37 23t-61 22l-36 77q-43 -61 -60 -106t-17 -99q0 -47 14 -91t39 -72q15 -17 38.5 -32t62.5 -32z" />
    <glyph glyph-name="one" unicode="1" 
d="M308 592l2 48l23 11l10 -80l34 -21l-28 -51l3 -120q0 -149 -13 -226t-55 -175l-102 143q58 95 77.5 150t34.5 167q-93 -71 -216 -71l-41 1l3 26q49 0 80 9t64 31q31 23 49.5 57t46.5 119z" />
    <glyph glyph-name="two" unicode="2" 
d="M448 57l-96 -75q-56 34 -91 46t-78 12q-30 0 -71 -9l-58 -53l8 34l-38 -20l-18 24q20 15 35.5 26t33.5 21q26 104 59.5 153.5t104.5 88.5l-78 45q52 6 81 15t53 27q49 36 49 106q0 57 -26 90.5t-71 33.5q-56 0 -101 -53q-20 -23 -34 -47.5t-35 -73.5l-24 18
q34 71 46.5 93t28.5 42q57 73 143 73q78 0 127.5 -55.5t49.5 -142.5q0 -88 -57 -147q-7 -7 -20 -17.5t-34 -24.5l-29 -21l-31 18q-48 -21 -75.5 -63.5t-43.5 -119.5q57 15 108 15q52 0 88.5 -12t93.5 -47z" />
    <glyph glyph-name="three" unicode="3" 
d="M58 467l-24 17q49 106 98 148t125 42q102 0 153 -69q40 -52 40 -113q0 -66 -53 -127q59 -62 59 -144q0 -78 -49 -146q-56 -78 -169 -78q-100 0 -165 65q-15 15 -23.5 27t-24.5 44l84 100q13 -50 37 -76q38 -44 92 -44q53 0 92 46t39 110q0 30 -14 59l-57 -41l-118 95
q30 0 46 4t43 18q-36 16 -88 25l1 32q40 -8 66.5 -15t54.5 -19q18 20 25 38.5t7 48.5q0 49 -29 79t-77 30q-58 0 -102 -47q-20 -21 -34 -43t-35 -66z" />
    <glyph glyph-name="four" unicode="4" 
d="M346 -19l-86 103q19 45 30.5 81t16.5 63q-55 -18 -103 -18q-59 0 -127 28q-21 -14 -40 -23l-7 17l20 18l-36 22l73 80l32 -18q44 73 68 137t48 168l120 18q-13 -90 -61 -179.5t-123 -163.5q54 -17 106 -17l39 2l3 67q0 41 -9 99l22 7q17 -35 29 -76t19 -85q22 6 35.5 12
t32.5 19l19 -16q-30 -35 -81 -63q4 -39 4 -76q0 -117 -44 -206z" />
    <glyph glyph-name="five" unicode="5" 
d="M132 367l-9 -59l-37 8l6 38l-27 -9l-11 28l44 16l27 170q-11 5 -24.5 13.5t-27.5 19.5l62 80q77 -55 163 -55q88 0 146 45l16 -16q-37 -50 -101 -83t-123 -33q-19 0 -35 3t-41 12l-23 -144q43 10 79 10q102 0 169.5 -59.5t67.5 -149.5q0 -92 -64 -154t-159 -62
q-94 0 -161 65q-15 15 -23.5 27t-24.5 44l84 100q13 -50 37 -76q39 -44 94 -44q52 0 90.5 39.5t38.5 92.5q0 58 -47 102t-111 44q-32 0 -75 -13z" />
    <glyph glyph-name="six" unicode="6" 
d="M269 171l40 -90q27 26 39 54t12 66q0 64 -31.5 105t-85.5 41l-79 108q25 12 40.5 16t35.5 4q83 0 147 -71t64 -165q0 -124 -126 -194l17 -37q-19 -3 -31 -5t-20 -2q-12 0 -19.5 1t-27.5 6q-19 -6 -27 -8q-24 -7 -35 -10l-10 20l37 10q-85 37 -133 108.5t-48 162.5
q0 96 56 184t151 140q70 37 164 58l5 -24q-81 -31 -123 -52.5t-81 -53.5q-92 -76 -92 -204q0 -85 57 -130q20 -16 42.5 -24t61.5 -14z" />
    <glyph glyph-name="seven" unicode="7" 
d="M420 679l13 -24l-27 -25l-44 -42q21 6 33 12.5t49 29.5l9 -20q-52 -44 -73.5 -58t-65.5 -34q-46 -68 -90 -212q-14 -46 -28 -98t-14 -177l-3 -34l-134 118q71 214 214 391l-53 -3q-85 0 -178 31l90 138q52 -52 87.5 -71.5t79.5 -19.5l33 4q49 52 102 94z" />
    <glyph glyph-name="eight" unicode="8" 
d="M364 676l3 -27l-48 -6q97 -46 97 -121q0 -49 -40 -89q-24 -25 -86 -62q63 -35 82 -47.5t40 -30.5q51 -47 51 -105q0 -109 -161 -171l14 -20l-32 -3l-68 5q-26 -7 -43 -10.5t-55 -9.5l-8 29l42 9q-36 18 -51 27.5t-32 26.5q-51 53 -51 103q0 48 34 90t115 93l-26 21
q-57 44 -79 73t-22 63q0 40 30.5 76.5t81.5 56.5l-21 19q15 2 33 3t24 1q19 0 52 -4q28 3 56 6.5t68 3.5zM201 591l-26 33q-54 -36 -54 -90q0 -39 43 -74q19 -15 43 -31t49 -32q80 40 80 103q0 38 -33.5 65t-80.5 27zM255 88l28 -47q43 16 62 40q30 36 30 77
q0 32 -16.5 53.5t-64.5 52.5l-97 66q-98 -57 -98 -124q0 -26 15 -50t40 -38q19 -9 38.5 -15t62.5 -15z" />
    <glyph glyph-name="nine" unicode="9" 
d="M214 507l-30 87q-61 -50 -61 -127q0 -51 27 -83.5t78 -40.5l70 -115q-38 -13 -64 -13q-81 0 -142.5 70.5t-61.5 163.5q0 56 28 99.5t82 69.5l31 13l-13 38l36 4q18 0 28 -2t33 -11q20 5 28.5 7t35.5 6l8 -20l-38 -8q160 -69 160 -237q0 -114 -55 -214t-148 -154
q-31 -18 -66.5 -30.5t-76.5 -19.5l-3 23q70 29 104.5 49.5t68.5 53.5q42 41 67 104t25 128q0 86 -48 119q-15 11 -34.5 18.5t-68.5 21.5z" />
    <glyph glyph-name="colon" unicode=":" horiz-adv-x="233" 
d="M107 352l96 -88l-80 -88l-100 88zM107 163l99 -88l-83 -88l-97 88z" />
    <glyph glyph-name="semicolon" unicode=";" horiz-adv-x="227" 
d="M33 70l94 91q60 -54 60 -117q0 -42 -19 -81t-71 -101l-26 24q16 47 16 73q0 33 -12 58.5t-42 52.5zM103 352l96 -88l-80 -88l-100 88z" />
    <glyph glyph-name="less" unicode="&#x3c;" horiz-adv-x="500" 
d="M458 618v-44l-296 -192l296 -198v-118l-416 280v7z" />
    <glyph glyph-name="equal" unicode="=" 
d="M51 432h378v-60h-378v60zM51 295h378v-60h-378v60z" />
    <glyph glyph-name="greater" unicode="&#x3e;" horiz-adv-x="500" 
d="M42 66v45l296 191l-296 199v117l416 -279v-7z" />
    <glyph glyph-name="question" unicode="?" horiz-adv-x="415" 
d="M99 451l-80 102q26 31 38 43t28 24q53 39 118 39q69 0 117.5 -41.5t48.5 -100.5q0 -52 -34 -99.5t-88 -68.5l13 -16q-44 -29 -44 -63q0 -21 19 -53l-18 -18q-50 27 -71 56t-21 71q0 18 7 42q-19 13 -49 43l27 27l41 -35q9 9 12.5 11.5t19.5 11.5l30 -37q67 30 67 78
q0 28 -23 48t-55 20q-25 0 -43 -12t-41 -46zM103 97l89 91l89 -91l-89 -91z" />
    <glyph glyph-name="at" unicode="@" horiz-adv-x="733" 
d="M626 135l-87 -128q-69 -13 -104.5 -17t-80.5 -4q-160 0 -257 116q-77 94 -77 214q0 153 109 259t267 106q141 0 229.5 -76.5t88.5 -197.5q0 -99 -58 -165.5t-145 -66.5q-89 0 -115 72l-86 -79q-90 67 -90 167q0 70 55 124t127 54q37 0 65 -18l20 21l14 -19l-15 -17
q12 -10 17 -16l10 -12l-15 -12l-24 22q-12 -23 -17 -45.5t-5 -51.5q0 -65 22 -106t57 -41q45 0 79 57t34 134q0 102 -69.5 167t-178.5 65q-138 0 -221 -91q-33 -37 -53 -88.5t-20 -100.5q0 -116 92 -194t229 -78q114 0 203 46zM449 478q-23 14 -46 14q-45 0 -79 -42t-34 -99
q0 -36 19.5 -59.5t49.5 -23.5q16 0 33 9l-1 34q0 52 13 90t45 77z" />
    <glyph glyph-name="A" unicode="A" horiz-adv-x="519" 
d="M523 115l-100 -139q-61 83 -94 190l-86 73q-19 -111 -61 -173q-46 -69 -112 -69q-45 0 -72.5 25.5t-27.5 65.5q0 39 23 65t58 26q37 0 77 -37q22 25 37 62.5t23 82.5l-96 82l31 42l75 -62v40v13v11q0 29 -1.5 40t-6.5 39q-24 10 -44.5 26.5t-69.5 66.5l16 13
q21 -9 38.5 -15t32.5 -9q-5 23 -25 45l32 23q21 -27 40 -68q34 0 61 15t67 54l93 -109q-18 -16 -22.5 -19.5t-19.5 -12.5l18 -7q-24 -66 -24 -122q0 -73 38 -139q34 -59 102 -119zM362 489q-39 -14 -76 -14q-20 0 -46 3q14 -62 14 -120q0 -25 -3 -54l59 -49q0 81 9.5 132
t42.5 102z" />
    <glyph glyph-name="B" unicode="B" horiz-adv-x="571" 
d="M554 195q0 -67 -47 -119t-142 -81l-158 146q-21 -58 -29 -77.5t-31 -66.5l-110 124q41 65 61.5 135t20.5 139q0 92 -36 170q-8 -5 -21 -15q-7 -6 -29 -23l-23 20q18 22 29.5 35t21.5 22q-7 10 -14.5 19t-20.5 24l30 28l40 -46q78 43 181 43q109 0 173 -50t64 -136
q0 -75 -59 -125q56 -39 79 -81q20 -36 20 -85zM386 517q0 41 -44 69t-110 28q-59 0 -108 -24q46 -71 70 -155l59 -4q55 0 94 25t39 61zM232 392l-34 29l9 -41zM457 245q0 45 -44 88q-12 -6 -33.5 -13.5t-47.5 -14.5l-57 49l-61 -25q0 -21 1.5 -64t1.5 -45v-29q-2 -11 -2 -15
q49 -23 68.5 -29t48.5 -6q54 0 89.5 29.5t35.5 74.5z" />
    <glyph glyph-name="C" unicode="C" horiz-adv-x="559" 
d="M556 561q-19 -11 -24 -14t-23 -17l28 -40l-33 -23l-33 41q-25 -26 -36.5 -47.5t-25.5 -72.5q-19 26 -28.5 52.5t-9.5 56.5q0 46 24 94q-31 15 -53.5 21.5t-46.5 6.5q-81 0 -137 -70t-56 -172q0 -105 68 -174t172 -69q55 0 97 22t91 78l20 -16l-174 -220l-58 -5
q-129 0 -214 93t-85 234q0 142 79 241t193 99q51 0 127 -34q14 14 25 23q15 12 31 23z" />
    <glyph glyph-name="D" unicode="D" horiz-adv-x="547" 
d="M530 341q0 -96 -39 -176q-43 -87 -136 -161l-154 158q0 -23 -19 -72q-27 -63 -42 -102l-123 126q54 85 80.5 163t26.5 145q0 83 -37 154q-11 -9 -21.5 -18.5t-26.5 -25.5l-22 18q16 20 26 31t26 25l-26 32l23 30l34 -37q57 37 121 37q124 0 216.5 -99.5t92.5 -227.5z
M415 368q0 100 -53 178q-58 85 -146 85q-43 0 -90 -29q93 -129 93 -283q0 -51 -9 -108q35 -18 65 -18q62 0 101 52t39 123z" />
    <glyph glyph-name="E" unicode="E" horiz-adv-x="581" 
d="M578 173l-112 -165q-29 -5 -47 -7t-34 -2q-151 0 -227.5 82t-76.5 229v20q-11 -7 -16 -11.5t-18 -21.5l-12 -15l-28 16q27 48 79 89q4 36 14.5 68.5t40.5 98.5q-23 13 -44 26t-58 38l21 23q45 -24 107 -36l29 40l24 -19l-17 -26q39 -3 70 -3q61 0 104 13.5t89 46.5
l100 -110q-95 -56 -194 -56q-90 0 -199 47q-23 -61 -23 -122q60 15 101 15q76 0 153 -66l-103 -108q-72 71 -144 83q25 -105 92 -157q62 -48 157 -48q38 0 74.5 8t97.5 30z" />
    <glyph glyph-name="F" unicode="F" horiz-adv-x="500" 
d="M523 549q-104 -50 -194 -50q-79 0 -173 38q-18 -76 -18 -118q56 24 105 24q50 0 128 -28l-68 -118q-41 22 -86 34q-27 7 -70 11q17 -65 42 -106t86 -107l-107 -138q-45 58 -67 109q-32 74 -32 163q0 25 3 54l-17 -20l-25 19q11 18 21 32q14 19 29 34q15 86 44 170
q-25 13 -50.5 28.5t-56.5 39.5l23 26q35 -22 55.5 -32.5t44.5 -18.5l22 49l22 -10l-14 -47q42 -9 73 -9q42 0 81.5 17.5t101.5 60.5z" />
    <glyph glyph-name="G" unicode="G" horiz-adv-x="572" 
d="M556 35l-11 -24q-59 31 -99 66l-55 -72l-68 -5q-61 0 -126 31t-108 80q-72 81 -72 207q0 145 76 243.5t189 98.5q29 0 53.5 -7t63.5 -27q17 18 22.5 23t31.5 25l80 -91l-43 -38q14 -13 20 -20q11 -13 20 -24l-28 -21q-8 10 -17.5 20.5t-19.5 20.5q-22 -24 -37.5 -47.5
t-36.5 -64.5q-14 29 -19 49t-5 49q0 42 16 79q-54 32 -103 32q-78 0 -129 -64.5t-51 -164.5q0 -111 64 -176t172 -65l44 2q-32 71 -32 135q0 26 2 39t11 51l144 -79q-10 -33 -13.5 -51t-3.5 -42l32 52l26 -17l-52 -80q12 -50 22.5 -70.5t39.5 -52.5z" />
    <glyph glyph-name="H" unicode="H" horiz-adv-x="538" 
d="M541 331q-21 -24 -61 -49t-78 -39q9 -90 19.5 -125.5t45.5 -90.5l-20 -27q-56 59 -83.5 107.5t-41.5 114.5q-8 -1 -13 -1q-29 0 -54 6q-39 9 -68 33q3 -20 3 -44q0 -53 -13.5 -109.5t-38.5 -106.5l-128 120q34 74 56.5 163t22.5 177q0 51 -5.5 90t-20.5 85l18 11
q38 -57 60.5 -124t36.5 -164l44 64q11 -34 50 -62q13 -9 37 -21q0 105 11.5 172t44.5 146l127 -132q-62 -106 -82 -204q33 7 57.5 15t55.5 22z" />
    <glyph glyph-name="I" unicode="I" horiz-adv-x="236" 
d="M158 0l-128 120q28 95 40 152q16 77 16 140q0 57 -10.5 107t-36.5 110l22 13q66 -94 103 -204.5t37 -219.5q0 -116 -43 -218z" />
    <glyph glyph-name="J" unicode="J" horiz-adv-x="423" 
d="M408 151q-16 -30 -27 -46.5t-24 -32.5l34 -39l-19 -25q-6 4 -25 18.5t-25 19.5q-74 -50 -153 -50q-55 0 -104 27t-88 79l127 176q38 -124 65.5 -169t65.5 -45q26 0 55 16q-52 61 -79 141t-27 173q0 163 70 300l127 -117q-45 -88 -65 -158.5t-20 -138.5q0 -95 38 -170
q19 17 30 28.5t22 25.5z" />
    <glyph glyph-name="K" unicode="K" horiz-adv-x="555" 
d="M552 140l-111 -144q-69 60 -115.5 138t-70.5 176l-30 -9q-2 -27 -3 -54q-6 -66 -21 -123q-21 -81 -57 -131l-112 148q28 41 46 77.5t30 77.5q-23 4 -38 9t-53 22l14 38q51 -23 88 -23q4 22 6 43t2 47q0 56 -14 107.5t-46 100.5l36 24q48 -68 74 -134.5t40 -158.5q5 3 8 4
q12 6 17 11q-3 30 -5 49.5t-2 40.5q0 39 7 96l35 -8v-10.5v-13.5q0 -46 1.5 -70.5t10.5 -45.5q109 103 125 257l123 -111q-53 -135 -216 -229q40 -77 95.5 -125.5t135.5 -75.5z" />
    <glyph glyph-name="L" unicode="L" horiz-adv-x="514" 
d="M530 138l-103 -137q-70 42 -125.5 62t-98.5 20l-31 -3q-22 -44 -65 -100l-22 20q12 18 19.5 32t13.5 29q-24 -13 -43.5 -27.5t-51.5 -44.5l-20 20q32 37 69.5 68.5t63.5 44.5q11 61 11 116q0 76 -18 144q-14 51 -33.5 85.5t-57.5 74.5l118 136q45 -73 64 -139t19 -151
q0 -52 -6 -87.5t-29 -130.5q35 7 59 9t67 2q58 0 95 -8t105 -35z" />
    <glyph glyph-name="M" unicode="M" horiz-adv-x="683" 
d="M684 120l-107 -120q-38 57 -56.5 127.5t-18.5 152.5q0 41 5 86.5t14 94.5q-78 -63 -109 -104q-23 -31 -33 -68q20 -70 20 -154q0 -57 -9 -137h-34q0 85 -3.5 126.5t-15.5 77.5q-8 -38 -12 -82t-4 -120h-34q-7 62 -7 114q0 47 5.5 82.5t18.5 82.5q-16 30 -54.5 78.5
t-63.5 69.5q15 -77 15 -142q0 -160 -99 -285l-99 122q116 117 116 301q0 27 -3 56q-11 7 -26 15t-32 17l41 52l-52 76l24 22q22 -26 27 -32.5t24 -35.5l44 57q65 -55 98 -104t73 -148q30 66 85 137q50 65 99 104l44 -48q14 21 24.5 35t26.5 33l24 -22l-52 -76l41 -36
q-20 -10 -30 -17q-5 -4 -14 -9q-1 -13 -1.5 -29t-0.5 -24q0 -96 27.5 -183.5t73.5 -142.5z" />
    <glyph glyph-name="N" unicode="N" horiz-adv-x="534" 
d="M517 529q-58 -89 -94 -234q29 -43 47 -75t42 -84l-45 -61l25 -51l-25 -20l-25 38l-34 -46q-76 277 -219 453q11 -54 11 -116q0 -84 -22.5 -168.5t-67.5 -173.5l-107 133q60 85 90 159q34 86 34 175q0 34 -4 62q-37 36 -87 74l14 30l50 -29l-18 29l28 24
q15 -21 26.5 -41.5t25.5 -49.5q106 -71 177 -150q0 64 14.5 124.5t46.5 125.5z" />
    <glyph glyph-name="O" unicode="O" horiz-adv-x="602" 
d="M582 338q0 -198 -213 -305l17 -33q-51 -9 -61 -9q-7 0 -19.5 3t-22.5 5l-62 -17l-11 22l26 11q-105 48 -160.5 134.5t-55.5 182.5q0 83 40 147t140 129l-38 55h75q33 0 52.5 -2t49.5 -11l77 15l5 -23l-32 -11q193 -110 193 -293zM486 291q0 91 -56.5 147.5t-150.5 56.5
l-62 88q-58 -60 -81.5 -106.5t-23.5 -100.5q0 -82 43 -136q48 -60 146 -77l54 -104q74 64 102.5 115.5t28.5 116.5z" />
    <glyph glyph-name="P" unicode="P" horiz-adv-x="573" 
d="M556 466q0 -56 -44.5 -109t-122.5 -86l-148 77q12 -54 12 -107q0 -69 -21.5 -128.5t-66.5 -113.5l-100 114q40 53 63.5 123.5t23.5 143.5q0 46 -9 88t-30 83q-15 -15 -29 -33t-37 -54l-30 16q24 41 38.5 61t35.5 42l-43 52l22 26l46 -54q81 63 190 63q103 0 176.5 -61.5
t73.5 -142.5zM407 510q0 50 -37.5 79.5t-100.5 29.5q-64 0 -129 -45q63 -93 92 -196q95 17 135 47t40 85z" />
    <glyph glyph-name="Q" unicode="Q" horiz-adv-x="624" 
d="M621 50l-102 -141q-50 41 -75 70t-47 71l-21 -7l17 -49l-23 -2q-14 0 -28.5 4t-51.5 18l-100 -24l-10 30l58 14q-66 34 -126 89q-46 44 -71 98t-25 113q0 102 69 185q42 50 139 117l-29 38l49 1q36 0 81 -10q26 3 40.5 4t39.5 1h56v-27q-20 0 -42 -7q90 -54 134 -120
q53 -81 53 -165q0 -55 -25 -118t-67 -115q19 -21 38.5 -33.5t68.5 -34.5zM501 298q0 55 -15 91.5t-51 65.5q-56 46 -130 53l-59 96q-127 -114 -127 -231q0 -107 97 -171q23 -15 46.5 -23.5t56.5 -12.5l43 -92l21 12q-8 23 -12 48.5t-4 50.5q0 46 8 83t34 108v-26
q0 -66 11 -104t44 -82q37 55 37 134z" />
    <glyph glyph-name="R" unicode="R" horiz-adv-x="558" 
d="M546 149l-113 -152q-143 110 -164 346l-54 6q5 -52 5 -86q0 -75 -21.5 -136.5t-74.5 -130.5l-97 136q44 70 67 134q31 87 31 180q0 60 -13 124q-33 -25 -45 -35q-20 -16 -44 -38l-20 24q22 20 39 35q29 25 60 46q-8 25 -11 31t-15 29l23 16q12 -18 18.5 -28.5t15.5 -27.5
q50 27 86.5 38t75.5 11q93 0 160.5 -55.5t67.5 -131.5q0 -56 -30 -98t-106 -94l-57 39q55 -99 216 -182zM394 516q0 46 -34 74t-91 28q-31 0 -62 -6t-60 -19q27 -63 41 -110t24 -108q11 2 24.5 3t29.5 5q0 33 1 71t9 76l28 -8q-3 -20 -4 -41t-1 -33q0 -23 0.5 -33t2.5 -18
q44 23 68 53.5t24 65.5z" />
    <glyph glyph-name="S" unicode="S" horiz-adv-x="555" 
d="M539 232q0 -54 -21 -103.5t-56 -81.5q-61 -53 -165 -53q-73 0 -130 28t-93 82q-23 33 -35.5 75.5t-21.5 112.5l150 -62q33 -120 135 -120q67 0 115 48t48 116q0 23 -4 38.5t-16 39.5l-74 -90l-44 -1q-135 0 -218 57t-83 151q0 85 67 144t164 59q72 0 133 -30t127 -98
l-18 -23q-65 49 -118 70t-113 21q-63 0 -102 -29t-39 -76q0 -54 54 -89t137 -35q44 0 90 14q-28 24 -52.5 35t-68.5 21l1 31q94 -19 162 -69q19 11 32.5 21t35.5 30l13 -9l-54 -66q62 -63 62 -159z" />
    <glyph glyph-name="T" unicode="T" horiz-adv-x="526" 
d="M542 645q-38 -51 -80.5 -81.5t-130.5 -69.5q20 -51 29 -97.5t9 -94.5q0 -80 -29 -156t-87 -156l-113 119q58 53 93.5 137.5t35.5 166.5q0 32 -6 61q-12 -2 -27 -3t-28 -1q-61 0 -122 22q-36 13 -103 48l88 109q46 -26 81 -39t83 -21l-24 51l33 17q5 -8 24 -38
q15 -23 20 -33q70 0 133 21t98 55z" />
    <glyph glyph-name="U" unicode="U" horiz-adv-x="532" 
d="M516 648q-22 -48 -31.5 -94t-9.5 -109q0 -46 1.5 -66t6.5 -68q1 -12 1.5 -23.5t0.5 -22.5q0 -62 -23 -111q-19 -42 -72 -104l45 18l14 -26q-30 -15 -51 -22t-52 -13l-29 -23l-14 18q-111 14 -168 78q-69 78 -69 239q0 69 -14.5 133t-34.5 96l103 123q31 -42 44.5 -89
t13.5 -113q0 -48 -6 -111t-6 -112q0 -85 24 -133t85 -72l-45 61q94 41 128 78q49 53 49 155q0 24 -2 41.5t-2 26v13.5q0 75 30 145t69 96z" />
    <glyph glyph-name="V" unicode="V" horiz-adv-x="580" 
d="M584 636q-83 -91 -144 -210.5t-87 -244.5l47 -169l-38 -12q-14 57 -30 94q-3 -17 -7 -43q-8 -52 -10 -66l-116 149q12 35 24 65.5t23 53.5q-70 108 -120 162t-129 109l112 136q60 -59 101.5 -125.5t89.5 -180.5q46 78 119 161t148 141z" />
    <glyph glyph-name="W" unicode="W" horiz-adv-x="824" 
d="M854 621q-122 -102 -180 -185t-58 -154q0 -21 6 -43.5t25 -73.5l-32 -36q5 -28 8.5 -54.5t7.5 -58.5l-32 -9q-12 56 -20 82l-76 -85q-27 65 -27 143q0 70 21 136q-32 58 -58 96.5t-56 68.5q-49 -91 -49 -166q0 -29 5 -52t19 -58l-25 -29q2 -23 3 -57.5t2 -64.5l-32 -7
q0 34 -1.5 46.5t-8.5 41.5l-90 -102q-15 56 -15 113q0 38 7 78.5t19 83.5q-95 155 -247 274l102 117q64 -68 109.5 -134.5t80.5 -146.5q32 56 74 107l-59 43l100 123q19 -17 37 -34.5t28 -30.5q17 13 38.5 28t52.5 35l13 -26q-31 -25 -36 -30q-17 -15 -43 -41
q46 -70 83 -168q106 159 291 252z" />
    <glyph glyph-name="X" unicode="X" horiz-adv-x="470" 
d="M466 118l-89 -119q-117 74 -155 208q-33 -81 -94.5 -132.5t-124.5 -51.5q93 77 131 135.5t38 126.5q0 80 -36 139q-42 70 -133 110l97 119q110 -83 138 -200q32 71 73 113.5t121 87.5l15 -21q-86 -50 -131 -123q-41 -67 -41 -140t51.5 -141.5t139.5 -110.5z" />
    <glyph glyph-name="Y" unicode="Y" horiz-adv-x="453" 
d="M463 532q-39 -63 -88 -105t-130 -82q29 -51 45 -104q12 -39 19 -92l-136 -148q0 94 -7 151t-25 147l-62 -12l-5 24l66 46q-28 78 -62.5 135.5t-87.5 110.5l12 27q62 -39 111.5 -91t94.5 -126q55 51 90 103t64 129z" />
    <glyph glyph-name="Z" unicode="Z" horiz-adv-x="511" 
d="M508 135l-106 -121q-81 35 -161 35q-31 0 -48 -2q-24 -5 -39 -7l1 -22v-35l-42 43q-10 -3 -19 -8q-2 -1 -28 -15l-30 -15l-17 14q16 19 26 30.5t30 31.5l-58 58q72 164 257 370l-47 -2q-96 0 -199 31l99 138q57 -50 98.5 -70t87.5 -20l37 2q61 58 114 94l14 -24l-79 -66
q15 4 30.5 10t60.5 32l10 -21q-64 -47 -83.5 -59t-67.5 -31q-48 -38 -112 -170t-71 -206q43 16 89 24t92 8q62 0 161 -27z" />
    <glyph glyph-name="bracketleft" unicode="[" horiz-adv-x="264" 
d="M86 4l-27 -24l-10 35q-17 6 -36 21l27 22q-11 72 -11 148q0 205 73 405l-9 4l-17 8l11 24l29 -2l13 28l15 -14l-4 -15q38 0 72 21l52 -59q-41 -21 -68 -21q-15 0 -29 3t-39 12q-9 -42 -13 -85t-4 -105q0 -96 6 -152.5t30 -178.5q21 -4 37 -4l46 3l22 -37q-53 -23 -82 -31
t-55 -8z" />
    <glyph glyph-name="backslash" unicode="\" horiz-adv-x="254" 
d="M250 -62l-283 777l38 14l282 -777z" />
    <glyph glyph-name="bracketright" unicode="]" horiz-adv-x="264" 
d="M204 649l28 24l9 -34q9 -4 17 -8.5t20 -13.5l-28 -22q11 -71 11 -147q0 -206 -73 -406l27 -11l-12 -25l-28 3l-13 -29l-16 14l5 15q-38 0 -73 -21l-51 60q23 12 36.5 16t31.5 4q25 0 67 -15q17 75 17 191q0 84 -7 154t-25 160l-3 16q-20 5 -37 5l-47 -3l-21 36
q48 21 80 30.5t57 9.5z" />
    <glyph glyph-name="asciicircum" unicode="^" horiz-adv-x="500" 
d="M526 284h-44l-192 296l-198 -296h-118l280 416h7z" />
    <glyph glyph-name="underscore" unicode="_" horiz-adv-x="500" 
d="M19 -89h462v-51h-462v51z" />
    <glyph glyph-name="grave" unicode="`" horiz-adv-x="500" 
d="M139 811l50 76q17 -45 61 -87.5t111 -77.5l-5 -21q-129 14 -217 110z" />
    <glyph glyph-name="a" unicode="a" horiz-adv-x="519" 
d="M389 502l18 -7q-24 -71 -24 -115q0 -84 53 -167q29 -48 87 -98l-100 -139q-61 83 -94 190l-86 73q-9 -53 -31 -108q-27 -71 -60.5 -102.5t-81.5 -31.5q-45 0 -72.5 25.5t-27.5 65.5q0 39 23 65t58 26q37 0 77 -37q17 28 34 70t26 75l-96 82l31 42l75 -62l1 45q0 41 -2 60
q-5 25 -7 38q-24 10 -44.5 26.5t-69.5 66.5l16 13q21 -9 34.5 -13t34.5 -8l-23 42l32 23q21 -27 40 -68q34 0 61 15t67 54l93 -109q-18 -16 -22.5 -19.5t-19.5 -12.5zM251 304l59 -49l-3 45q0 57 12 99t43 90q-41 -14 -81 -14l-41 3q13 -58 13 -126z" />
    <glyph glyph-name="b" unicode="b" horiz-adv-x="571" 
d="M26 647l30 28l40 -46q78 43 181 43q109 0 173 -50t64 -136q0 -75 -59 -125l34 -25q29 -25 47 -64t18 -77q0 -105 -106 -166q-16 -9 -33 -16.5t-50 -17.5l-158 146q-21 -58 -29 -77.5t-31 -66.5l-110 124q43 68 62 131t19 138q0 100 -35 175q-8 -5 -21 -15q-7 -6 -29 -23
l-23 20q18 22 29.5 35t21.5 22q-7 10 -14.5 19t-20.5 24zM275 354l-61 -25q2 -26 2.5 -48t0.5 -44v-29v-16q-2 -10 -2 -16q49 -23 68.5 -29t48.5 -6q54 0 89.5 29.5t35.5 74.5t-44 88q-12 -6 -33.5 -13.5t-47.5 -14.5zM232 392l-34 29l9 -41zM124 590q46 -71 70 -155l59 -4
q55 0 94 25t39 61q0 41 -44 69t-110 28q-59 0 -108 -24z" />
    <glyph glyph-name="c" unicode="c" horiz-adv-x="559" 
d="M474 672l82 -111q-19 -11 -24 -14t-23 -17l28 -40l-33 -23l-33 41q-25 -26 -36.5 -47.5t-25.5 -72.5q-39 53 -39 105q0 47 25 98q-31 15 -53.5 21.5t-46.5 6.5q-81 0 -137 -70t-56 -172q0 -105 68 -174t172 -69q55 0 97 22t91 78l20 -16l-174 -220l-58 -5q-129 0 -214 93
t-85 234q0 142 79 241t193 99q51 0 127 -34q14 14 25 23q15 12 31 23z" />
    <glyph glyph-name="d" unicode="d" horiz-adv-x="547" 
d="M140 -12l-123 126q56 88 80 158t24 147q0 92 -34 157q-11 -9 -21.5 -18.5t-26.5 -25.5l-22 18q16 20 26 31t26 25l-26 32l23 30l34 -37q57 37 121 37q97 0 185 -71q124 -100 124 -256q0 -56 -18 -115.5t-51 -110.5q-21 -32 -44 -56t-62 -55l-154 158q0 -32 -41 -129z
M126 602q50 -70 71 -136t21 -158q0 -44 -8 -97q35 -18 65 -18q63 0 101.5 52t38.5 123q0 54 -19 107.5t-51 93.5q-23 28 -58.5 45t-70.5 17q-43 0 -90 -29z" />
    <glyph glyph-name="e" unicode="e" horiz-adv-x="581" 
d="M466 657l100 -110q-91 -53 -197 -53q-95 0 -196 44q-23 -61 -23 -122q44 11 86 11q54 0 90 -13.5t78 -48.5l-103 -108q-72 71 -144 83q10 -42 21 -65t34 -51q75 -89 194 -89q38 0 74.5 8t97.5 30l-112 -165q-29 -5 -47 -7t-34 -2q-73 0 -134.5 23t-98.5 65
q-71 80 -71 223v20q-11 -7 -16 -11.5t-18 -21.5l-12 -15l-28 16q27 48 79 89q4 36 14.5 68.5t40.5 98.5q-23 13 -44 26t-58 38l21 23q45 -24 107 -36l29 40l24 -19l-17 -26l57 -3q68 0 113.5 13t92.5 47z" />
    <glyph glyph-name="f" unicode="f" horiz-adv-x="500" 
d="M426 656l97 -107q-54 -29 -92 -39t-91 -10q-92 0 -184 37q-18 -76 -18 -118q53 23 107 23t126 -27l-68 -118q-58 27 -87 36t-61 9h-8q17 -65 42 -106t86 -107l-107 -138q-24 29 -36 48t-25 49q-37 89 -37 181l2 48l-17 -20l-25 19q11 18 21 32q14 19 29 34q15 86 44 170
q-25 13 -50.5 28.5t-56.5 39.5l23 26q35 -22 55.5 -32.5t44.5 -18.5l22 49l22 -10l-9 -30l-5 -17q34 -7 61 -7q52 0 90.5 14.5t104.5 61.5z" />
    <glyph glyph-name="g" unicode="g" horiz-adv-x="572" 
d="M453 674l80 -91l-43 -38q14 -13 20 -20q11 -13 20 -24l-28 -21q-8 10 -17.5 20.5t-19.5 20.5q-22 -24 -37.5 -47.5t-36.5 -64.5q-14 29 -19 49t-5 49q0 42 16 79q-54 32 -103 32q-78 0 -129 -64.5t-51 -164.5q0 -111 64 -176t172 -65l44 2q-32 71 -32 135q0 26 2 39
t11 51l144 -79q-10 -33 -13.5 -51t-3.5 -42l32 52l26 -17l-52 -80q12 -50 22.5 -70.5t39.5 -52.5l-11 -24q-59 31 -99 66l-55 -72l-68 -5q-61 0 -126 31t-108 80q-72 81 -72 207q0 145 76 243.5t189 98.5q29 0 53.5 -7t63.5 -27q17 18 22.5 23t31.5 25z" />
    <glyph glyph-name="h" unicode="h" horiz-adv-x="538" 
d="M178 358l44 64l17 -18l42 -42q14 -14 28 -23l-1 20q0 80 13 148t44 150l127 -132q-62 -106 -82 -204q33 7 57.5 15t55.5 22l18 -27q-21 -24 -61 -49t-78 -39q9 -90 19.5 -125.5t45.5 -90.5l-20 -27q-56 59 -83.5 107.5t-41.5 114.5h-15q-49 0 -120 38l1 -28
q0 -60 -9 -102.5t-41 -129.5l-128 120q23 46 35.5 81t21.5 81q21 111 21 217q0 29 -4.5 55.5t-20.5 80.5l18 11q38 -57 60.5 -124t36.5 -164z" />
    <glyph glyph-name="i" unicode="i" horiz-adv-x="236" 
d="M158 0l-128 120q33 96 44 153t11 134q0 70 -9 114t-37 108l22 13q66 -94 102 -207t36 -227q0 -63 -9 -108.5t-32 -99.5z" />
    <glyph glyph-name="j" unicode="j" horiz-adv-x="423" 
d="M254 694l127 -117q-45 -88 -65 -158.5t-20 -138.5q0 -95 38 -170q19 17 30 28.5t22 25.5l22 -13q-16 -30 -27 -46.5t-24 -32.5l34 -39l-19 -25q-6 4 -25 18.5t-25 19.5q-74 -50 -153 -50q-55 0 -104 27t-88 79l127 176q38 -124 65.5 -169t65.5 -45q26 0 55 16
q-52 61 -79 141t-27 173q0 163 70 300z" />
    <glyph glyph-name="k" unicode="k" horiz-adv-x="555" 
d="M144 -7l-112 148q28 41 46 77.5t30 77.5q-23 4 -38 9t-53 22l14 38q51 -23 88 -23q5 24 7 46.5t2 45.5q0 61 -12 102t-49 104l36 24q48 -68 74 -134.5t40 -158.5l25 15q-6 51 -6 95q0 25 1 41t5 50l35 -8v-32q0 -61 12 -108q109 103 125 257l123 -111q-53 -135 -216 -229
q40 -77 95.5 -125.5t135.5 -75.5l-111 -144q-69 60 -115.5 138t-70.5 176l-30 -9v-18q0 -48 -10 -102.5t-28 -106.5q-8 -19 -17 -37t-26 -44z" />
    <glyph glyph-name="l" unicode="l" horiz-adv-x="514" 
d="M530 138l-103 -137q-70 42 -125.5 62t-98.5 20l-31 -3q-22 -44 -65 -100l-22 20q12 18 19.5 32t13.5 29q-24 -13 -43.5 -27.5t-51.5 -44.5l-20 20q32 37 69.5 68.5t63.5 44.5q11 61 11 116q0 76 -18 144q-14 51 -33.5 85.5t-57.5 74.5l118 136q45 -73 64 -139t19 -151
q0 -52 -6 -87.5t-29 -130.5q35 7 59 9t67 2q58 0 95 -8t105 -35z" />
    <glyph glyph-name="m" unicode="m" horiz-adv-x="683" 
d="M102 0l-99 122q29 29 47 54t32 57q38 84 38 184q0 27 -4 62q-11 7 -26 15t-32 17l41 52l-52 76l24 22q22 -26 27 -32.5t24 -35.5l44 57q65 -55 98 -104t73 -148q49 89 86.5 137t104.5 109l35 -46q14 19 27 34t24 27l24 -25q-21 -27 -47 -68l36 -45l-43 -21l-3 -43
q0 -171 98 -328l-104 -126q-40 67 -57 132.5t-17 155.5q0 81 20 172q-61 -54 -95 -94t-48 -76q12 -54 17 -89.5t5 -68.5q0 -21 -2 -51t-8 -84h-32l2 63q0 51 -4 78.5t-16 62.5q-13 -37 -16 -69.5t-3 -134.5h-34q-5 42 -6 58t-1 42q0 92 24 179q-16 30 -54.5 78.5t-63.5 69.5
q13 -68 13 -133q0 -94 -22 -160.5t-75 -133.5z" />
    <glyph glyph-name="n" unicode="n" horiz-adv-x="534" 
d="M467 75l25 -51l-25 -20l-25 38l-34 -46q-76 277 -219 453q9 -63 9 -108q0 -92 -21 -176t-67 -174l-107 133q69 112 98 191t29 157q0 25 -7 48q-37 36 -87 74l14 30l50 -29l-18 29l28 24q15 -21 26.5 -41.5t25.5 -49.5q106 -71 177 -150q0 64 14.5 124.5t46.5 125.5
l117 -128q-58 -89 -94 -234q29 -43 47 -75t42 -84z" />
    <glyph glyph-name="o" unicode="o" horiz-adv-x="602" 
d="M369 33l17 -33q-25 -4 -39.5 -5.5t-18.5 -1.5q-16 0 -24 1q-14 4 -21 5l-62 -17l-11 22l26 11q-41 19 -68 38t-54 49q-44 50 -69 111t-25 119q0 96 62 173q21 28 45.5 49t72.5 54l-38 55l64 3q57 0 113 -16l77 15l5 -23l-32 -11q193 -110 193 -293q0 -198 -213 -305z
M301 163l54 -104l52 49q38 38 58.5 85t20.5 98q0 85 -55 140q-33 32 -68.5 48t-83.5 16l-62 88q-58 -60 -81.5 -106.5t-23.5 -100.5q0 -85 56 -147q25 -29 52.5 -43t80.5 -23z" />
    <glyph glyph-name="p" unicode="p" horiz-adv-x="573" 
d="M47 464l-30 16q24 41 38.5 61t35.5 42l-43 52l22 26l46 -54q81 63 190 63q112 0 184 -64q30 -28 48 -65.5t18 -74.5q0 -79 -80 -141q-17 -13 -31 -21.5t-56 -32.5l-148 77q6 -25 8 -44.5t2 -46.5q0 -87 -19 -144.5t-67 -113.5l-100 114q30 47 40 67q47 86 47 201
q0 52 -8 88t-31 82q-15 -15 -29 -33t-37 -54zM140 574q63 -93 92 -196q95 17 135 47t40 85q0 50 -37.5 79.5t-100.5 29.5q-64 0 -129 -45z" />
    <glyph glyph-name="q" unicode="q" horiz-adv-x="624" 
d="M376 43l17 -49l-23 -2q-14 0 -28.5 4t-51.5 18l-100 -24l-10 30l58 14q-66 34 -126 89q-46 44 -71 98t-25 113q0 102 69 185q42 50 139 117l-29 38l49 1q36 0 81 -10q26 3 40.5 4t39.5 1h56v-27q-20 0 -42 -7q90 -54 134 -120q53 -81 53 -165q0 -55 -25 -118t-67 -115
q19 -21 38.5 -33.5t68.5 -34.5l-102 -141q-50 41 -75 70t-47 71zM362 74l21 12q-8 23 -12 48.5t-4 50.5q0 46 8 83t34 108v-26q0 -66 11 -104t44 -82q37 55 37 134q0 55 -15 91.5t-51 65.5q-56 46 -130 53l-59 96q-127 -114 -127 -231q0 -107 97 -171q23 -15 46.5 -23.5
t56.5 -12.5z" />
    <glyph glyph-name="r" unicode="r" horiz-adv-x="558" 
d="M124 -4l-97 136q98 152 98 324q0 49 -13 114q-33 -25 -45 -35q-20 -16 -44 -38l-20 24q22 20 39 35q29 25 60 46q-8 25 -11 31t-15 29l23 16q12 -18 18.5 -28.5t15.5 -27.5q50 27 86.5 38t75.5 11q93 0 160.5 -55.5t67.5 -131.5q0 -56 -30 -98t-106 -94l-57 39
q55 -99 216 -182l-113 -152q-143 110 -164 346l-54 6q4 -35 4 -69q0 -110 -36 -187q-10 -21 -21.5 -40t-37.5 -57zM276 530l28 -8q-5 -34 -6 -47t-1 -35q0 -20 5 -43q44 23 68 53.5t24 65.5q0 46 -34 74t-91 28q-31 0 -62 -6t-60 -19q27 -63 41 -110t24 -108q17 0 30 3t24 5
l-1 35q0 34 2 55.5t9 56.5z" />
    <glyph glyph-name="s" unicode="s" horiz-adv-x="555" 
d="M17 292l150 -62q33 -120 135 -120q67 0 115 48t48 116q0 23 -4 38.5t-16 39.5l-74 -90l-44 -1q-135 0 -218 57t-83 151q0 85 67 144t164 59q72 0 133 -30t127 -98l-18 -23q-65 49 -118 70t-113 21q-63 0 -102 -29t-39 -76q0 -54 54 -89t137 -35q44 0 90 14
q-28 24 -52.5 35t-68.5 21l1 31q94 -19 162 -69q19 11 32.5 21t35.5 30l13 -9l-54 -66q62 -63 62 -159q0 -54 -21 -103.5t-56 -81.5q-61 -53 -165 -53q-73 0 -130 28t-93 82q-23 33 -35.5 75.5t-21.5 112.5z" />
    <glyph glyph-name="t" unicode="t" horiz-adv-x="526" 
d="M211 640l33 17q5 -8 24 -38q15 -23 20 -33q70 0 133 21t98 55l23 -17q-38 -51 -80.5 -81.5t-130.5 -69.5q18 -48 26 -88.5t8 -84.5q0 -175 -112 -331l-113 119q34 41 53.5 72.5t36.5 75.5q38 91 38 166q0 21 -5 51q-80 0 -149 16.5t-131 49.5l88 109q46 -26 81 -39
t83 -21z" />
    <glyph glyph-name="u" unicode="u" horiz-adv-x="532" 
d="M275 41l-45 61q53 20 77.5 35.5t47.5 41.5q28 31 39 60t11 69v39l-1 39q0 79 23 152q14 46 29 70t46 49l14 -9q-21 -47 -30 -97t-9 -124q0 -32 1 -55t5 -61l3 -56q0 -92 -96 -205l45 18l14 -26q-30 -15 -51 -22t-52 -13l-29 -23l-14 18q-39 0 -83 18.5t-80 51.5
q-46 47 -60 92.5t-14 154.5q0 84 -11 133t-38 96l103 123q33 -44 45 -87t12 -119q0 -23 -1 -38q-4 -61 -4 -69l-6 -97q0 -20 2 -46.5t7.5 -61.5t28.5 -64t71 -48z" />
    <glyph glyph-name="v" unicode="v" horiz-adv-x="580" 
d="M567 656l17 -20q-83 -91 -144 -210.5t-87 -244.5l47 -169l-38 -12q-14 57 -30 94q-3 -17 -7 -43q-8 -52 -10 -66l-116 149q12 35 24 65.5t23 53.5q-70 108 -120 162t-129 109l112 136q60 -59 101.5 -125.5t89.5 -180.5q46 78 119 161t148 141z" />
    <glyph glyph-name="w" unicode="w" horiz-adv-x="824" 
d="M277 535l100 123q19 -17 37 -34.5t28 -30.5q17 13 38.5 28t52.5 35l13 -26q-31 -25 -36 -30q-17 -15 -43 -41q46 -70 83 -168q106 159 291 252l13 -22q-47 -39 -80.5 -71.5t-61.5 -64.5q-42 -49 -69 -105.5t-27 -97.5q0 -21 6 -43.5t25 -73.5l-32 -36q5 -28 8.5 -54.5
t7.5 -58.5l-32 -9q-12 56 -20 82l-76 -85q-13 42 -18 76t-5 79q0 70 17 124q-32 58 -58 96.5t-56 68.5q-49 -91 -49 -166q0 -29 5 -52t19 -58l-25 -29q3 -32 4 -48t1 -56v-18l-32 -7q0 34 -1.5 46.5t-8.5 41.5l-90 -102q-12 81 -12 124q0 75 23 151q-95 155 -247 274
l102 117q64 -68 109.5 -134.5t80.5 -146.5q32 56 74 107z" />
    <glyph glyph-name="x" unicode="x" horiz-adv-x="470" 
d="M466 118l-89 -119q-117 74 -155 208q-33 -81 -94.5 -132.5t-124.5 -51.5q93 77 131 135.5t38 126.5q0 112 -91 195q-16 14 -32 25.5t-46 28.5l97 119q110 -83 138 -200q32 71 73 113.5t121 87.5l15 -21q-56 -41 -84 -70t-51 -67q-37 -63 -37 -126q0 -89 64 -162
q22 -26 48 -44.5t79 -45.5z" />
    <glyph glyph-name="y" unicode="y" horiz-adv-x="453" 
d="M79 287l-5 24l66 46q-28 78 -62.5 135.5t-87.5 110.5l12 27q62 -39 111.5 -91t94.5 -126q55 51 90 103t64 129l101 -113q-39 -63 -88 -105t-130 -82l11 -30q26 -72 35.5 -100.5t17.5 -65.5l-136 -148q0 94 -7 151t-25 147z" />
    <glyph glyph-name="z" unicode="z" horiz-adv-x="511" 
d="M464 665l14 -24l-79 -66q15 4 30.5 10t60.5 32l10 -21q-64 -47 -83.5 -59t-67.5 -31q-48 -38 -112 -170t-71 -206q43 16 89 24t92 8q62 0 161 -27l-106 -121q-81 35 -161 35q-31 0 -48 -2q-24 -5 -39 -7l1 -22v-35l-42 43q-10 -3 -19 -8q-2 -1 -28 -15l-30 -15l-17 14
q16 19 26 30.5t30 31.5l-58 58q72 164 257 370l-47 -2q-96 0 -199 31l99 138q57 -50 98.5 -70t87.5 -20l37 2q61 58 114 94z" />
    <glyph glyph-name="braceleft" unicode="{" horiz-adv-x="327" 
d="M252 80l69 -112l-30 -2q-60 0 -111.5 25t-71 65.5t-19.5 108.5l1 41l1 36q0 50 -27 72q-11 12 -46 23q67 30 84.5 57t17.5 115q10 98 45.5 138t118.5 40l24 -31q-68 -10 -94 -43.5t-26 -111.5q0 -72 -18.5 -121.5t-52.5 -75.5q16 -21 21 -41l7 -63q8 -65 26 -85t81 -35z
" />
    <glyph glyph-name="bar" unicode="|" horiz-adv-x="500" 
d="M217 667h65v-834h-65v834z" />
    <glyph glyph-name="braceright" unicode="}" horiz-adv-x="327" 
d="M74 574l-69 112l30 1q60 0 112 -25t71.5 -65.5t19.5 -107.5l-1 -42l-2 -35q0 -40 15.5 -60.5t57.5 -34.5q-67 -30 -83 -55q-19 -29 -19 -117q-9 -97 -45 -137.5t-119 -40.5l-24 31q68 10 94 43.5t26 111.5q0 72 18.5 121.5t53.5 75.5q-17 23 -22 41l-4 30l-3 33
q-8 65 -26 85t-81 35z" />
    <glyph glyph-name="asciitilde" unicode="~" horiz-adv-x="667" 
d="M524 734l16 -11q-24 -45 -61 -72t-74 -27q-20 0 -37 5q-28 10 -55 19t-47 13.5t-36 4.5q-23 0 -39 -9t-39 -36l-9 -10l-16 10q58 101 136 101q15 0 33.5 -4t52 -16t50.5 -16t32 -4q51 0 93 52z" />
    <glyph glyph-name="FL3" horiz-adv-x="784" 
d="M288 618l21 23l31 -16l18 18l10 -28l47 -10l30 40l24 -19l-17 -26l55 -3q58 0 96.5 13t77.5 47l101 -110q-47 -27 -93.5 -40t-98.5 -13q-83 0 -168 44q-23 -61 -23 -122q24 7 38 9t37 2q52 0 87 -13t79 -49l-90 -95q-38 32 -70.5 48t-74.5 22q9 -42 19 -65.5t29 -50.5
q66 -89 168 -89q38 0 75 8t98 30l-113 -165q-28 -5 -45.5 -7t-32.5 -2q-54 0 -100.5 15t-80.5 45q-41 37 -65 100l-94 80q-9 -53 -31 -108q-27 -71 -60.5 -102.5t-81.5 -31.5q-45 0 -72.5 25.5t-27.5 65.5q0 39 23 65t58 26q37 0 77 -37q17 28 34 70t26 75l-96 82l31 42
l75 -62l1 45q0 52 -9 98q-24 10 -44.5 26.5t-69.5 66.5l16 13q21 -9 34.5 -13t34.5 -8l-23 42l32 23q21 -27 40 -68q22 0 41.5 7.5t39.5 20.5zM271 304l62 -51l-3 61q0 92 29 168q-29 -7 -57 -7l-42 3q13 -58 13 -126z" />
    <glyph glyph-name="FL4" horiz-adv-x="573" 
d="M389 194l-139 72v-19q0 -82 -18 -134.5t-67 -110.5l-100 114q30 47 40 67q46 89 46 202q0 57 -14 109q-30 -24 -44.5 -41.5t-45.5 -65.5l-30 17q31 51 49.5 74t55.5 57q-13 25 -28 46.5t-46 56.5l22 27q28 -32 45 -54t38 -54q64 37 154 37q99 0 161 -45q40 -29 64 -71.5
t24 -86.5q0 -80 -83 -144q-21 -16 -39 -27t-45 -26zM176 520q32 -60 49.5 -112.5t22.5 -103.5q86 17 122.5 46.5t36.5 82.5q0 50 -37.5 79.5t-100.5 29.5q-26 0 -42 -4t-51 -18z" />
    <glyph glyph-name="FL5" horiz-adv-x="596" 
d="M522 682l-59 -102q116 -99 116 -243q0 -77 -36 -145t-104 -116q-27 -19 -73 -43l17 -33q-25 -4 -39.5 -5.5t-18.5 -1.5q-16 0 -24 1q-14 4 -21 5l-62 -17l-11 22l26 11q-47 22 -72 41l-52 -91l-35 20l56 97q-53 53 -83 120t-30 135q0 78 42 141t138 130l-38 55l64 3
q52 0 113 -16l77 15l5 -23l-32 -11l45 -27l56 98zM393 458l-160 -278q12 -4 23.5 -7.5t41.5 -9.5l54 -104q42 37 63.5 61t36.5 52q31 56 31 119q0 107 -90 167zM198 199l160 278q-22 9 -39 13.5t-43 4.5l-62 88q-23 -24 -37.5 -41.5t-24.5 -32.5q-43 -66 -43 -132
q0 -52 24 -99.5t65 -78.5z" />
    <glyph glyph-name="FL6" 
d="M241 524q17 0 30 -13t13 -30q0 -18 -13 -31t-30 -13q-18 0 -31 13t-13 31q0 17 13 30t31 13zM241 230q17 0 30 -13t13 -30q0 -18 -13 -31t-30 -13q-18 0 -31 13t-13 31q0 17 13 30t31 13zM51 363h378v-60h-378v60z" />
    <glyph glyph-name="FL7" 
d="M103 514l137 -136l137 136l44 -44l-137 -137l137 -136l-44 -45l-137 137l-137 -137l-44 45l137 136l-137 137z" />
    <glyph glyph-name="nonbreakingspace" unicode="&#xa0;" horiz-adv-x="972" 
 />
    <glyph glyph-name="exclamdown" unicode="&#xa1;" horiz-adv-x="289" 
d="M158 6l-93 137q39 52 55 93.5t16 90.5q0 45 -14 79t-49 72l23 26q43 -48 63.5 -77.5t34.5 -63.5q28 -68 28 -141q0 -61 -14 -108t-50 -108zM132 664l90 -90l-86 -87l-83 87z" />
    <glyph glyph-name="cent" unicode="&#xa2;" 
d="M261 543v-354l24 -2q42 0 71.5 15.5t67.5 57.5l14 -12l-127 -161l-43 -4h-7v-55h-32v59q-84 17 -133 80.5t-49 156.5q0 99 50.5 168t131.5 80v56h32v-55q22 0 45 -9q6 -2 35 -16q13 13 16 15.5t25 18.5l60 -82l-34 -22l20 -30l-24 -17l-24 30q-20 -21 -27.5 -34.5
t-18.5 -53.5q-28 38 -28 77q0 35 18 72q-21 10 -35 15t-28 6zM229 196v346q-55 -12 -88 -60t-33 -116q0 -63 31 -107t90 -63z" />
    <glyph glyph-name="sterling" unicode="&#xa3;" 
d="M59 47l-40 50q14 8 34 17.5t44 17.5q11 47 11 106l-3 69q-52 -10 -74 -43l-26 19q24 38 44 58.5t51 37.5q0 55 17.5 106t52.5 98q38 45 65 62.5t81 30.5l39 -124q-68 -24 -106.5 -57t-60.5 -88l32 2q29 0 57.5 -6t69.5 -21l-69 -118q-40 20 -57.5 26.5t-39.5 12.5v-19
v-20q0 -60 -22 -122l24 1q79 0 145 -25.5t147 -88.5l-21 -24q-53 34 -92 48t-82 14q-44 0 -79.5 -15.5t-93.5 -63.5l-26 32q-10 -8 -18.5 -14t-26.5 -15l-13 16z" />
    <glyph glyph-name="currency" unicode="&#xa4;" 
d="M108 152l-36 -36l-49 49l38 39q-44 66 -44 131t50 122l-44 44l49 50l47 -47l41 27l-18 23q47 13 70 13q35 0 78 -15t79 -40l39 39l50 -50l-39 -38q44 -61 44 -126q0 -69 -46 -131l41 -41l-50 -49l-42 42q-17 -12 -32 -21t-40 -20l14 -23q-21 -4 -29.5 -5t-15.5 -1
q-80 0 -155 64zM259 184l24 -48q53 45 75 82.5t22 86.5q0 90 -72 137q-25 17 -47.5 24.5t-61.5 7.5l-25 39q-44 -45 -60.5 -77.5t-16.5 -73.5q0 -35 14 -69.5t39 -57.5q18 -16 42 -27.5t67 -23.5z" />
    <glyph glyph-name="yen" unicode="&#xa5;" 
d="M57 359v40h108q-37 48 -73.5 81.5t-89.5 66.5l117 126q90 -82 149 -259q86 164 196 265l14 -22q-55 -59 -89.5 -118.5t-59.5 -139.5h101v-40h-112q-5 -16 -8.5 -31.5t-5.5 -28.5h126v-40h-134q-12 -77 -12 -120l2 -112l1 -34l-141 104q14 58 24 89.5t27 72.5h-140v40h157
l4 10q-6 12 -11 24q-1 2 -16 26h-134z" />
    <glyph glyph-name="brokenbar" unicode="&#xa6;" horiz-adv-x="500" 
d="M217 667h65v-340h-65v340zM217 153h65v-320h-65v320z" />
    <glyph glyph-name="section" unicode="&#xa7;" 
d="M430 585l-14 -18q-54 40 -95 56t-88 16q-53 0 -85 -15t-32 -41q0 -20 17 -32.5t65.5 -25.5t106.5 -30.5t75 -25.5q75 -37 75 -107q0 -37 -28 -88q30 -42 30 -99q0 -86 -58 -143t-146 -57q-120 0 -180 96q-19 30 -29 62t-18 86l124 -51q7 -25 12.5 -37t14.5 -25
q31 -44 100 -44q44 0 71.5 22.5t27.5 57.5q0 31 -26.5 48t-105.5 36q-129 30 -171.5 63t-42.5 87q0 25 6 42t27 51q-29 40 -29 75q0 58 54 98t132 40q112 0 210 -97zM120 435q-5 -14 -5 -23q0 -16 12 -25.5t46 -19.5l112 -34q15 -5 74 -25q12 15 12 25q0 17 -24 28.5
t-119 39.5z" />
    <glyph glyph-name="dieresis" unicode="&#xa8;" horiz-adv-x="581" 
d="M466 657l100 -110q-91 -53 -197 -53q-95 0 -196 44q-23 -61 -23 -122q44 11 86 11q54 0 90 -13.5t78 -48.5l-103 -108q-72 71 -144 83q10 -42 21 -65t34 -51q75 -89 194 -89q38 0 74.5 8t97.5 30l-112 -165q-29 -5 -47 -7t-34 -2q-73 0 -134.5 23t-98.5 65
q-71 80 -71 223v20q-11 -7 -16 -11.5t-18 -21.5l-12 -15l-28 16q27 48 79 89q4 36 14.5 68.5t40.5 98.5q-23 13 -44 26t-58 38l21 23q45 -24 107 -36l29 40l24 -19l-17 -26l57 -3q68 0 113.5 13t92.5 47zM193 881l91 -85l-91 -91l-90 85zM387 881l92 -85l-92 -91l-89 85z
" />
    <glyph glyph-name="copyright" unicode="&#xa9;" horiz-adv-x="727" 
d="M364 680q144 0 245 -101t101 -245q0 -145 -102 -246t-249 -101q-140 0 -241 102t-101 245q0 144 101 245t246 101zM364 636q-126 0 -214.5 -88.5t-88.5 -213.5t88 -214t211 -89q128 0 217 88t89 215q0 126 -88 214t-214 88zM475 531l54 -68l-28 -17l16 -22l-25 -17
l-19 22q-14 -13 -19.5 -24t-16.5 -45q-28 33 -28 66q0 28 14 53q-34 15 -56 15q-48 0 -80 -38t-32 -94q0 -58 39.5 -95.5t101.5 -37.5q33 0 57 12t55 44l17 -13l-107 -126l-37 -3q-78 0 -130.5 53.5t-52.5 133.5q0 81 48 137t119 56q31 0 76 -19q14 14 34 27z" />
    <glyph glyph-name="ordfeminine" unicode="&#xaa;" horiz-adv-x="320" 
d="M279 615l-20 -15l-17 15q-10 -23 -10 -49q0 -30 10 -55t36 -62l-64 -59q-7 15 -11 23q-8 16 -17 42l-60 -56q-83 57 -83 137q0 51 42.5 90.5t96.5 39.5q25 0 50 -11l17 15l18 -21l-10 -12zM212 633q-17 7 -30 7q-29 0 -52 -28t-23 -65q0 -27 14 -44t38 -17q9 0 20 4
l-3 33q0 64 36 110zM29 300v37h264v-37h-264z" />
    <glyph glyph-name="guillemotleft" unicode="&#xab;" horiz-adv-x="393" 
d="M322 443l30 -28q-23 -40 -37 -58t-37 -40q60 -83 78 -199l-37 -12q-34 149 -149 209q56 24 89 52t63 76zM175 443l30 -28q-23 -39 -37 -58t-36 -40q59 -84 77 -199l-36 -12q-35 149 -150 209q57 25 90 52t62 76z" />
    <glyph glyph-name="logicalnot" unicode="&#xac;" horiz-adv-x="500" 
d="M355 0v219h-321v48h432v-267h-111z" />
    <glyph glyph-name="hyphen" unicode="&#xad;" horiz-adv-x="500" 
d="M61 363h378v-60h-378v60z" />
    <glyph glyph-name="registered" unicode="&#xae;" horiz-adv-x="727" 
d="M364 680q144 0 245 -101t101 -245q0 -145 -102 -246t-249 -101q-140 0 -241 102t-101 245q0 144 101 245t246 101zM364 636q-126 0 -214.5 -88.5t-88.5 -213.5t88 -214t211 -89q128 0 217 88t89 215q0 126 -88 214t-214 88zM273 142l-62 82q31 45 45 87.5t14 94.5
q0 15 -1 26.5t-5 30.5q-25 -18 -51 -39l-17 18q33 29 60 46q-6 17 -16 34l19 12l21 -32q54 27 96 27q57 0 98.5 -31.5t41.5 -75.5q0 -33 -18.5 -57.5t-66.5 -54.5l-24 15q23 -28 49.5 -47t75.5 -43l-73 -91q-90 62 -102 195l-25 3l1 -41q0 -47 -12 -78.5t-48 -80.5zM362 451
l23 -6q-3 -18 -4 -28t-1 -21l2 -19q50 26 50 62q0 25 -19.5 39.5t-52.5 14.5q-26 0 -40 -3q-19 -7 -29 -10q16 -33 24 -58.5t14 -58.5l26 4l-1 18q0 31 8 66z" />
    <glyph glyph-name="macron" unicode="&#xaf;" horiz-adv-x="500" 
d="M397 824l15 -15q-42 -46 -88.5 -69t-97.5 -23q-60 0 -138 37l50 69q35 -20 63.5 -28t62.5 -8q79 0 133 37z" />
    <glyph glyph-name="degree" unicode="&#xb0;" horiz-adv-x="387" 
d="M193 674q57 0 97.5 -39.5t40.5 -95.5q0 -57 -40.5 -96.5t-97.5 -39.5q-58 0 -98 39t-40 98q0 54 41 94t97 40zM193 618q-33 0 -57 -23t-24 -56t23.5 -56.5t57.5 -23.5q33 0 57 23t24 56t-23.5 56.5t-57.5 23.5z" />
    <glyph glyph-name="plusminus" unicode="&#xb1;" 
d="M51 419h157v138h65v-138h156v-60h-156v-134h-65v134h-157v60zM51 161h378v-60h-378v60z" />
    <glyph glyph-name="twosuperior" unicode="&#xb2;" horiz-adv-x="319" 
d="M297 304l-67 -48q-34 19 -58.5 27t-48.5 8q-19 0 -43 -6l-44 -37l6 23l-20 -10l-15 19q9 7 25 17q10 6 20 13q17 61 36 88t63 52l-53 28q67 7 95 26t28 60q0 32 -16 51t-42 19q-58 0 -105 -105l-21 15q29 54 35 64t14 19q37 44 93 44q51 0 82.5 -33.5t31.5 -86.5
q0 -38 -16 -64t-55 -50l-20 -14l-20 11q-28 -12 -43.5 -33.5t-26.5 -66.5q36 8 63 8q36 0 58 -7t64 -31z" />
    <glyph glyph-name="threesuperior" unicode="&#xb3;" horiz-adv-x="319" 
d="M46 541l-21 13q32 65 64 91t81 26q54 0 89.5 -31.5t35.5 -78.5q0 -40 -32 -75q36 -39 36 -84q0 -28 -12.5 -56.5t-33.5 -47.5q-33 -33 -97 -33q-47 0 -79.5 20t-56.5 64l58 66q20 -75 80 -75q33 0 56 26t23 64q0 15 -6 29l-36 -23l-83 62q21 0 29.5 1.5t27.5 8.5
q-16 5 -24.5 7.5t-25.5 5.5v25q46 -7 79 -20q18 18 18 47q0 28 -17.5 44.5t-46.5 16.5q-32 0 -56 -21t-50 -72z" />
    <glyph glyph-name="acute" unicode="&#xb4;" horiz-adv-x="500" 
d="M312 887l49 -76q-92 -98 -217 -110l-5 21q66 34 111 77t62 88z" />
    <glyph glyph-name="mu" unicode="&#xb5;" 
d="M481 52v-17l-93 -45l-5 -1q-36 0 -48 61l-4 19q-54 -53 -81 -68.5t-66 -15.5q-43 0 -68.5 20t-41.5 67v-25q0 -41 5 -73q1 -4 13 -65q7 -33 7 -50q0 -22 -12 -36t-32 -14t-32.5 13.5t-12.5 35.5q0 8 2 24.5t5 37.5q13 70 21 166t8 183v188h87v-286q0 -45 5 -69.5
t18 -40.5q21 -26 58 -26q60 0 112 73v349h86v-336q0 -46 8 -62t32 -16q14 0 29 9z" />
    <glyph glyph-name="paragraph" unicode="&#xb6;" 
d="M442 -100l-15 -32q-56 101 -78 197t-22 244l3 144q-16 -67 -22 -118t-6 -116q0 -109 11 -175t42 -144l-14 -32q-52 84 -75 159q-27 86 -27 193q-19 -5 -34 -5q-76 0 -134 68t-58 159q0 115 101.5 170.5t311.5 55.5l58 -1l-17 -28l-90 -2l84 -139q-34 -96 -50 -177.5
t-16 -156.5q0 -81 10 -138t37 -126zM295 629l49 -81l18 89q-21 0 -38 -3t-29 -5zM237 276v28q0 160 35 321q-23 -6 -41.5 -11t-29.5 -10q-45 -19 -73.5 -59.5t-28.5 -84.5q0 -53 40 -90q11 -11 25 -17t34 -10z" />
    <glyph glyph-name="periodcentered" unicode="&#xb7;" horiz-adv-x="251" 
d="M122 312l102 -96l-98 -97l-103 97z" />
    <glyph glyph-name="periodcentered" unicode="&#x2219;" horiz-adv-x="251" 
d="M122 312l102 -96l-98 -97l-103 97z" />
    <glyph glyph-name="cedilla" unicode="&#xb8;" horiz-adv-x="581" 
d="M466 657l100 -110q-91 -53 -197 -53q-95 0 -196 44q-23 -61 -23 -122q44 11 86 11q54 0 90 -13.5t78 -48.5l-103 -108q-72 71 -144 83q10 -42 21 -65t34 -51q75 -89 194 -89q38 0 74.5 8t97.5 30l-112 -165q-29 -5 -47 -7t-34 -2q-73 0 -134.5 23t-98.5 65
q-71 80 -71 223v20q-11 -7 -16 -11.5t-18 -21.5l-12 -15l-28 16q27 48 79 89q4 36 14.5 68.5t40.5 98.5q-23 13 -44 26t-58 38l21 23q45 -24 107 -36l29 40l24 -19l-17 -26l57 -3q68 0 113.5 13t92.5 47zM193 881l91 -85l-91 -91l-90 85zM387 881l92 -85l-92 -91l-89 85z
" />
    <glyph glyph-name="onesuperior" unicode="&#xb9;" horiz-adv-x="864" 
d="M467 75l25 -51l-25 -20l-25 38l-34 -46q-76 277 -219 453q9 -63 9 -108q0 -92 -21 -176t-67 -174l-107 133q69 112 98 191t29 157q0 25 -7 48q-37 36 -87 74l14 30l50 -29l-18 29l28 24q15 -21 26.5 -41.5t25.5 -49.5q106 -71 177 -150q0 64 14.5 124.5t46.5 125.5
l117 -128q-58 -89 -94 -234q29 -43 47 -75t42 -84zM729 416l8 -14l-54 -2l-31 -7l-11 18l5 2q-38 19 -61 52t-23 69q0 59 75 105l-19 25l88 -4l39 7l5 -21l-6 -1q42 -29 57.5 -52.5t15.5 -56.5q0 -75 -88 -120zM695 474l20 -35q46 36 46 78q0 33 -22.5 52.5t-62.5 19.5
l-23 29q-37 -36 -37 -68q0 -33 26 -56q9 -8 21 -12.5t32 -7.5zM558 300v37h264v-37h-264z" />
    <glyph glyph-name="ordmasculine" unicode="&#xba;" horiz-adv-x="320" 
d="M199 416l8 -14l-36 -4l-18 2l-31 -7l-11 18l5 2q-38 19 -61 52t-23 69q0 59 75 105l-19 25l40 2q22 0 48 -6l39 7l5 -21l-6 -1q42 -29 57.5 -52.5t15.5 -56.5q0 -75 -88 -120zM165 474l20 -35q46 36 46 78q0 33 -22.5 52.5t-62.5 19.5l-23 29q-37 -36 -37 -68
q0 -33 26 -56q9 -8 21 -12.5t32 -7.5zM28 300v37h264v-37h-264z" />
    <glyph glyph-name="guillemotright" unicode="&#xbb;" horiz-adv-x="393" 
d="M41 415l30 28q29 -48 61.5 -75.5t90.5 -52.5q-115 -60 -149 -209l-37 12q18 116 78 199q-23 22 -37 40t-37 58zM188 415l30 28q29 -48 61.5 -75.5t90.5 -52.5q-56 -29 -94.5 -82.5t-55.5 -126.5l-36 12q18 115 77 199q-24 22 -37 40t-36 58z" />
    <glyph glyph-name="onequarter" unicode="&#xbc;" horiz-adv-x="705" 
d="M200 625v25l21 9l7 -50l22 -13l-18 -33l2 -67q0 -94 -8 -136.5t-38 -108.5l-69 90q38 57 49.5 87.5t20.5 92.5q-37 -22 -64.5 -30t-67.5 -8l-29 1l2 22q68 0 98.5 26t54.5 103zM215 -19l-14 118q92 146 154 294t80 267h22q0 -161 -74 -361q-69 -188 -168 -318zM613 -14
l-59 66q12 27 19 47t10 34q-32 -9 -60 -9q-37 0 -80 16l-28 -14l-6 15l11 9l-23 13l51 52l20 -10q29 46 42 79.5t29 98.5l83 12q-18 -111 -114 -205q39 -8 61 -8l21 1l1 36q0 13 -1 26.5t-4 34.5l19 6q22 -45 31 -95q16 5 21.5 7.5t18.5 10.5l17 -13q-13 -15 -23 -22
t-29 -18l2 -41q0 -72 -30 -129z" />
    <glyph glyph-name="onehalf" unicode="&#xbd;" horiz-adv-x="705" 
d="M200 625v25l21 9l7 -50l22 -13l-18 -33l2 -67q0 -94 -8 -136.5t-38 -108.5l-69 90q38 57 49.5 87.5t20.5 92.5q-37 -22 -64.5 -30t-67.5 -8l-29 1l2 22q68 0 98.5 26t54.5 103zM215 -19l-14 118q92 146 154 294t80 267h22q0 -161 -74 -361q-69 -188 -168 -318zM683 37
l-67 -48q-34 19 -58 27t-49 8q-19 0 -43 -6l-44 -37l6 23l-20 -10l-15 19q9 7 25 17q10 6 20 13q17 61 36 88t63 52l-53 28q68 7 96 26t28 60q0 32 -16 51t-42 19q-58 0 -106 -105l-20 15q22 44 30 57.5t18 25.5q38 44 94 44q51 0 82.5 -33.5t31.5 -86.5q0 -38 -16 -63.5
t-55 -50.5l-21 -14l-20 11q-28 -12 -43.5 -33.5t-26.5 -66.5q36 8 63 8q36 0 58 -7t64 -31z" />
    <glyph glyph-name="threequarters" unicode="&#xbe;" horiz-adv-x="705" 
d="M46 541l-21 13q32 65 64 91t81 26q54 0 89.5 -31.5t35.5 -78.5q0 -40 -32 -75q36 -39 36 -84q0 -28 -12.5 -56.5t-33.5 -47.5q-33 -33 -97 -33q-47 0 -79.5 20t-56.5 64l58 66q20 -75 80 -75q33 0 56 26t23 64q0 15 -6 29l-36 -23l-83 62q21 0 29.5 1.5t27.5 8.5
q-16 5 -24.5 7.5t-25.5 5.5v25q46 -7 79 -20q18 18 18 47q0 28 -17.5 44.5t-46.5 16.5q-32 0 -56 -21t-50 -72zM215 -19l-14 118q92 146 154 294t80 267h22q0 -161 -74 -361q-69 -188 -168 -318zM613 -14l-59 66q12 27 19 47t10 34q-32 -9 -60 -9q-37 0 -80 16l-28 -14
l-6 15l11 9l-22 13l50 52l20 -10q29 46 42 79.5t29 98.5l83 12q-18 -110 -113 -205q15 -3 32.5 -5.5t27.5 -2.5l21 1l1 36q0 13 -1 26.5t-4 34.5l19 6q22 -45 31 -95q15 5 21.5 7.5t19.5 10.5l16 -13q-13 -15 -23 -22t-29 -18l2 -41q0 -72 -30 -129z" />
    <glyph glyph-name="questiondown" unicode="&#xbf;" horiz-adv-x="442" 
d="M329 214l81 -102q-16 -19 -30 -34q-19 -20 -37 -33q-51 -39 -118 -39q-68 0 -116.5 41.5t-48.5 100.5q0 52 34 99.5t88 68.5l-13 16q44 28 44 63q0 19 -19 53l18 18q50 -27 71 -56t21 -71q0 -19 -8 -42q10 -6 21.5 -16t27.5 -27l-26 -27q-14 13 -24.5 21.5t-17.5 13.5
q-4 -4 -11 -10t-20 -13l-30 37q-67 -30 -67 -78q0 -28 22 -48t55 -20q26 0 44 12t41 46zM326 568l-90 -91l-89 91l89 91z" />
    <glyph glyph-name="Agrave" unicode="&#xc0;" horiz-adv-x="519" 
d="M523 132l-100 -146q-61 88 -94 200l-86 76q-19 -119 -61 -187q-47 -77 -112 -77q-44 0 -72 27t-28 69q0 40 23.5 67.5t57.5 27.5q22 0 38 -8t39 -31q22 26 37 70t23 93l-96 86l31 44l75 -65v42v14v11q0 40 -8 83q-23 11 -46 30.5t-68 67.5l16 13q18 -8 35.5 -15t35.5 -10
q-5 25 -25 47l32 24q10 -14 20.5 -32.5t19.5 -38.5q36 0 61.5 15t66.5 57l93 -114q-17 -16 -23 -21q-2 -2 -19 -13l18 -7q-24 -69 -24 -128q0 -75 38 -145q34 -63 102 -126zM362 525q-38 -15 -78 -15q-18 0 -44 3q14 -65 14 -126q0 -27 -3 -57l59 -51q0 86 9.5 139t42.5 107
z" />
    <glyph glyph-name="Aacute" unicode="&#xc1;" horiz-adv-x="571" 
d="M554 195q0 -67 -47 -119t-142 -81l-156 144q-8 -36 -24 -72t-39 -69l-118 136q40 37 69 91q36 67 36 132q-16 0 -45 -14q-9 -4 -26 -14l-12 35q21 12 54 25q11 4 29 10q3 30 3 56q0 43 -10 99q-26 13 -63 44.5t-70 68.5l20 20q54 -50 95 -72q-8 20 -11.5 26.5t-21.5 34.5
l22 20q24 -32 38.5 -54.5t26.5 -45.5q16 -4 44 -4q63 0 120 22q67 26 91 71l103 -137q-46 -24 -98 -35.5t-105 -11.5q-68 0 -125 19q6 -18 17 -66q3 -15 9 -42q8 0 30.5 1t28.5 1h19.5t30.5 -4q111 -18 172 -80q55 -56 55 -135zM445 228q0 47 -37.5 83t-102.5 51
q-25 6 -45.5 6h-31.5v-22q0 -66 -1.5 -100t-8.5 -69q27 -19 57.5 -27.5t56.5 -8.5q53 0 83 24t30 63z" />
    <glyph glyph-name="Acircumflex" unicode="&#xc2;" horiz-adv-x="571" 
d="M554 195q0 -67 -47 -119t-142 -81l-158 146q-21 -58 -29 -77.5t-31 -66.5l-110 124q41 65 61.5 135t20.5 139q0 92 -36 170q-8 -5 -21 -15q-7 -6 -29 -23l-23 20q18 22 29.5 35t21.5 22q-7 10 -14.5 19t-20.5 24l30 28l40 -46q78 43 181 43q109 0 173 -50t64 -136
q0 -75 -59 -125q56 -39 79 -81q20 -36 20 -85zM386 517q0 41 -44 69t-110 28q-59 0 -108 -24q46 -71 70 -155l59 -4q55 0 94 25t39 61zM232 392l-34 29l9 -41zM457 245q0 45 -44 88q-12 -6 -33.5 -13.5t-47.5 -14.5l-57 49l-61 -25q0 -21 1.5 -64t1.5 -45v-29q-2 -11 -2 -15
q49 -23 68.5 -29t48.5 -6q54 0 89.5 29.5t35.5 74.5z" />
    <glyph glyph-name="Atilde" unicode="&#xc3;" horiz-adv-x="500" 
d="M523 549q-104 -50 -194 -50q-79 0 -173 38q-16 -60 -16 -118q0 -164 135 -290l-107 -138q-50 61 -74 134t-24 155q0 66 13.5 133t40.5 139q-19 8 -46 25t-61 43l23 26q35 -22 55.5 -32.5t44.5 -18.5l22 49l22 -10l-14 -47q42 -9 73 -9q42 0 81.5 17.5t101.5 60.5z" />
    <glyph glyph-name="Adieresis" unicode="&#xc4;" horiz-adv-x="547" 
d="M530 341q0 -96 -39 -176q-43 -87 -136 -161l-154 158q0 -23 -19 -72q-27 -63 -42 -102l-123 126q54 85 80.5 163t26.5 145q0 83 -37 154q-11 -9 -21.5 -18.5t-26.5 -25.5l-22 18q16 20 26 31t26 25l-26 32l23 30l34 -37q57 37 121 37q124 0 216.5 -99.5t92.5 -227.5z
M415 368q0 100 -53 178q-58 85 -146 85q-43 0 -90 -29q93 -129 93 -283q0 -51 -9 -108q35 -18 65 -18q62 0 101 52t39 123z" />
    <glyph glyph-name="Aring" unicode="&#xc5;" horiz-adv-x="581" 
d="M578 173l-112 -165q-29 -5 -47 -7t-34 -2q-151 0 -227.5 82t-76.5 229v20q-17 -12 -33 -31q-5 -6 -13 -17l-28 16q27 48 79 89q4 36 14.5 68.5t40.5 98.5q-23 13 -44 26t-58 38l21 23q45 -24 107 -36l29 40l24 -19l-17 -26q39 -3 70 -3q61 0 104 13.5t89 46.5l100 -110
q-95 -56 -194 -56q-90 0 -199 47q-23 -61 -23 -122q60 15 101 15q76 0 153 -66l-103 -108q-72 71 -144 83q25 -105 92 -157q62 -48 157 -48q38 0 74.5 8t97.5 30z" />
    <glyph glyph-name="AE" unicode="&#xc6;" horiz-adv-x="824" 
d="M814 140l-111 -144q-69 60 -115.5 138t-70.5 176q-5 -3 -8 -4q-12 -5 -22 -5q0 -54 -18 -128t-44 -119l-33 20q12 38 18 80t6 77q0 13 -0.5 24.5t-4.5 45.5q-15 0 -32.5 2.5t-33.5 6.5q-24 -98 -84.5 -179.5t-145.5 -134.5l-111 144q87 20 157 71q74 54 114 130
q-65 29 -133 95q-72 70 -97 134l123 111q9 -86 69 -180q68 -107 164 -153q-7 42 -31 87q-28 51 -70 91l101 108q44 -54 67 -139q19 -70 19 -137q6 0 34 31q39 43 67 104q39 85 48 188l123 -111q-28 -72 -73 -132q-48 -65 -103 -97q40 -77 95.5 -125.5t135.5 -75.5z" />
    <glyph glyph-name="Ccedilla" unicode="&#xc7;" 
d="M456 221q0 -88 -57 -153q-62 -71 -161 -71q-74 0 -124.5 31t-88.5 105l84 100q16 -62 49.5 -91t79.5 -29q53 0 92 46t39 110q0 30 -14 59l-57 -41l-118 95q30 0 46 4t43 18q-17 9 -30.5 13t-57.5 12l1 32q15 -2 25 -4q61 -12 96 -30q18 20 25 38.5t7 48.5
q0 51 -27.5 80.5t-81.5 29.5q-20 0 -42 -8.5t-34 -19.5q18 -39 18 -69q0 -23 -8.5 -43.5t-25.5 -44.5q-12 42 -20.5 59t-28.5 37l-27 -32l-26 18l22 32q-7 6 -16 12t-21 13l65 89q18 -12 24.5 -17.5t20.5 -19.5q31 20 55 30q35 14 75 14q86 0 141 -55q52 -52 52 -127
q0 -66 -53 -127q59 -62 59 -144z" />
    <glyph glyph-name="Egrave" unicode="&#xc8;" horiz-adv-x="534" 
d="M517 119l-117 -128q-30 62 -45.5 126t-15.5 124q-36 -40 -78 -76t-99 -74q-27 -55 -52 -91l-28 24l18 29l-50 -29l-14 30q50 38 87 74q4 29 4 63q0 89 -34 174q-30 75 -90 159l107 133q45 -88 67.5 -173t22.5 -170q0 -34 -2 -58.5t-9 -56.5q75 92 127.5 200.5t91.5 252.5
l34 -46l25 38l25 -20l-25 -51l45 -61q-22 -47 -43 -84.5t-46 -74.5q20 -79 40.5 -131t53.5 -103z" />
    <glyph glyph-name="Eacute" unicode="&#xc9;" horiz-adv-x="534" 
d="M310 686q0 -53 -31 -147l-38 18l2 45q0 64 -24 133l60 71q31 -52 31 -120zM517 119l-117 -128q-30 62 -45.5 126t-15.5 124q-36 -40 -78 -76t-99 -74q-27 -55 -52 -91l-28 24l18 29l-50 -29l-14 30q50 38 87 74q4 29 4 63q0 89 -34 174q-30 75 -90 159l107 133
q45 -88 67.5 -173t22.5 -170q0 -34 -2 -58.5t-9 -56.5q75 92 127.5 200.5t91.5 252.5l34 -46l25 38l25 -20l-25 -51l45 -61q-22 -47 -43 -84.5t-46 -74.5q20 -79 40.5 -131t53.5 -103z" />
    <glyph glyph-name="Ecircumflex" unicode="&#xca;" horiz-adv-x="555" 
d="M552 140l-111 -144q-69 60 -115.5 138t-70.5 176l-30 -9q-2 -27 -3 -54q-6 -66 -21 -123q-21 -81 -57 -131l-112 148q28 41 46 77.5t30 77.5q-23 4 -38 9t-53 22l14 38q51 -23 88 -23q4 22 6 43t2 47q0 56 -14 107.5t-46 100.5l36 24q48 -68 74 -134.5t40 -158.5q5 3 8 4
q12 6 17 11q-3 30 -5 49.5t-2 40.5q0 39 7 96l35 -8v-10.5v-13.5q0 -46 1.5 -70.5t10.5 -45.5q109 103 125 257l123 -111q-53 -135 -216 -229q40 -77 95.5 -125.5t135.5 -75.5z" />
    <glyph glyph-name="Edieresis" unicode="&#xcb;" horiz-adv-x="568" 
d="M551 134l-134 -140q0 138 -33 253q-28 98 -89 200q0 -111 -45.5 -224.5t-131.5 -233.5l-109 143q90 71 153 167q72 110 82 219q-17 20 -31.5 35.5t-40.5 38.5l21 30l44 -29l-12 29l33 24q10 -21 21.5 -44.5t11.5 -46.5q218 -178 260 -421z" />
    <glyph glyph-name="Igrave" unicode="&#xcc;" horiz-adv-x="683" 
d="M684 120l-107 -120q-38 57 -56.5 127.5t-18.5 152.5q0 41 5 86.5t14 94.5q-78 -63 -109 -104q-23 -31 -33 -68q20 -70 20 -154q0 -57 -9 -137h-34q0 85 -3.5 126.5t-15.5 77.5q-8 -38 -12 -82t-4 -120h-34q-7 62 -7 114q0 47 5.5 82.5t18.5 82.5q-16 30 -54.5 78.5
t-63.5 69.5q15 -77 15 -142q0 -160 -99 -285l-99 122q116 117 116 301q0 27 -3 56q-11 7 -26 15t-32 17l41 52l-52 76l24 22q22 -26 27 -32.5t24 -35.5l44 57q65 -55 98 -104t73 -148q30 66 85 137q50 65 99 104l44 -48q14 21 24.5 35t26.5 33l24 -22l-52 -76l41 -36
q-20 -10 -30 -17q-5 -4 -14 -9q-1 -13 -1.5 -29t-0.5 -24q0 -96 27.5 -183.5t73.5 -142.5z" />
    <glyph glyph-name="Iacute" unicode="&#xcd;" horiz-adv-x="538" 
d="M541 331q-21 -24 -61 -49t-78 -39q9 -90 19.5 -125.5t45.5 -90.5l-20 -27q-56 59 -83.5 107.5t-41.5 114.5q-8 -1 -13 -1q-29 0 -54 6q-39 9 -68 33q3 -20 3 -44q0 -53 -13.5 -109.5t-38.5 -106.5l-128 120q34 74 56.5 163t22.5 177q0 51 -5.5 90t-20.5 85l18 11
q38 -57 60.5 -124t36.5 -164l44 64q11 -34 50 -62q13 -9 37 -21q0 105 11.5 172t44.5 146l127 -132q-62 -106 -82 -204q33 7 57.5 15t55.5 22z" />
    <glyph glyph-name="Icircumflex" unicode="&#xce;" horiz-adv-x="602" 
d="M582 338q0 -198 -213 -305l17 -33q-51 -9 -61 -9q-7 0 -19.5 3t-22.5 5l-62 -17l-11 22l26 11q-105 48 -160.5 134.5t-55.5 182.5q0 83 40 147t140 129l-38 55h75q33 0 52.5 -2t49.5 -11l77 15l5 -23l-32 -11q193 -110 193 -293zM486 291q0 91 -56.5 147.5t-150.5 56.5
l-62 88q-58 -60 -81.5 -106.5t-23.5 -100.5q0 -82 43 -136q48 -60 146 -77l54 -104q74 64 102.5 115.5t28.5 116.5z" />
    <glyph glyph-name="Idieresis" unicode="&#xcf;" horiz-adv-x="538" 
d="M510 608q-10 -11 -22 -22t-31 -25l27 -28q-40 -51 -60.5 -121t-20.5 -143q0 -142 64 -242l-20 -27q-60 63 -90 124q-34 69 -41 145t-7 134q0 52 6 96q-26 -4 -40.5 -4.5t-22.5 -0.5q-31 0 -59 6.5t-55 22.5q19 -53 31.5 -108.5t16.5 -102.5t4 -78q0 -132 -52 -234
l-128 120q33 57 56 148.5t23 186.5q0 53 -5.5 93.5t-20.5 86.5l18 11q21 -32 38 -72l68 92q21 -46 51 -70q35 -29 82 -29q9 1 14 1q9 29 10 34q7 23 21 55l62 -65q13 7 33 20q14 9 32 23z" />
    <glyph glyph-name="Eth" unicode="&#xd0;" horiz-adv-x="573" 
d="M556 466q0 -56 -44.5 -109t-122.5 -86l-148 77q12 -54 12 -107q0 -69 -21.5 -128.5t-66.5 -113.5l-100 114q40 53 63.5 123.5t23.5 143.5q0 46 -9 88t-30 83q-15 -15 -29 -33t-37 -54l-30 16q24 41 38.5 61t35.5 42l-43 52l22 26l46 -54q81 63 190 63q103 0 176.5 -61.5
t73.5 -142.5zM407 510q0 50 -37.5 79.5t-100.5 29.5q-64 0 -129 -45q63 -93 92 -196q95 17 135 47t40 85z" />
    <glyph glyph-name="Ntilde" unicode="&#xd1;" horiz-adv-x="559" 
d="M556 561q-19 -11 -24 -14t-23 -17l28 -40l-33 -23l-33 41q-25 -26 -36.5 -47.5t-25.5 -72.5q-19 26 -28.5 52.5t-9.5 56.5q0 46 24 94q-31 15 -53.5 21.5t-46.5 6.5q-81 0 -137 -70t-56 -172q0 -105 68 -174t172 -69q55 0 97 22t91 78l20 -16l-174 -220l-58 -5
q-129 0 -214 93t-85 234q0 142 79 241t193 99q51 0 127 -34q14 14 25 23q15 12 31 23z" />
    <glyph glyph-name="Ograve" unicode="&#xd2;" horiz-adv-x="526" 
d="M542 645q-38 -51 -80.5 -81.5t-130.5 -69.5q20 -51 29 -97.5t9 -94.5q0 -80 -29 -156t-87 -156l-113 119q58 53 93.5 137.5t35.5 166.5q0 32 -6 61q-12 -2 -27 -3t-28 -1q-61 0 -122 22q-36 13 -103 48l88 109q46 -26 81 -39t83 -21l-24 51l33 17q5 -8 24 -38
q15 -23 20 -33q70 0 133 21t98 55z" />
    <glyph glyph-name="Oacute" unicode="&#xd3;" horiz-adv-x="464" 
d="M449 288l-6 -31q-12 -4 -24 -4q-7 0 -19 2t-17 2q-31 -75 -88 -148q-44 -57 -112 -120l-97 143q90 39 182 149q-93 29 -155 94q-44 46 -69 106q-8 25 -16 51l131 113q1 -30 3 -60q9 -73 37 -132q38 -81 107 -124q41 62 64.5 133.5t23.5 153.5l36 24q7 -46 7 -98
q0 -68 -10.5 -125t-32.5 -119q12 -4 26 -7t29 -3z" />
    <glyph glyph-name="Ocircumflex" unicode="&#xd4;" horiz-adv-x="774" 
d="M757 466q0 -56 -44.5 -109t-122.5 -86l-141 88q3 -32 3 -66q0 -83 -19 -163t-50 -131l-117 114q17 22 42 70q33 63 42 103q-11 -6 -19 -8q-25 -8 -56 -8q-118 0 -187 62q-63 57 -63 142q0 56 44.5 109t122.5 86l148 -95q-92 -17 -131 -53q-35 -33 -35 -91q0 -51 33 -80
t95 -29q29 0 49 10q3 1 8 5q6 32 6 69q0 62 -14 127t-39 123l24 28q10 -15 21 -37q3 -7 9 -19q19 14 34 21q48 22 107 22q103 0 176.5 -61.5t73.5 -142.5zM608 510q0 50 -37.5 79.5t-100.5 29.5q-35 0 -64 -16q-9 -5 -23 -17q21 -39 37.5 -96t24.5 -112q93 17 128 46.5
t35 85.5z" />
    <glyph glyph-name="Otilde" unicode="&#xd5;" horiz-adv-x="470" 
d="M466 118l-89 -119q-117 74 -155 208q-33 -81 -94.5 -132.5t-124.5 -51.5q93 77 131 135.5t38 126.5q0 80 -36 139q-42 70 -133 110l97 119q110 -83 138 -200q32 71 73 113.5t121 87.5l15 -21q-86 -50 -131 -123q-41 -67 -41 -140t51.5 -141.5t139.5 -110.5z" />
    <glyph glyph-name="Odieresis" unicode="&#xd6;" horiz-adv-x="538" 
d="M541 27q-51 -27 -68 -103q-5 -25 -6 -71l-110 42q17 40 47 75q17 19 37 36l-19 21l-22 -21q-33 29 -77 47q-51 21 -103 21q-17 0 -26 -1t-29 -4q-12 -38 -27 -69l-49 46q-30 -13 -63 -33l-29 16q8 6 30 24q17 13 31 22l-48 45q34 74 56.5 163t22.5 177q0 51 -5.5 90
t-20.5 85l18 11q41 -62 75.5 -180t34.5 -218q0 -55 -10 -114q31 9 71.5 13t89.5 4q-13 32 -22 65t-9 65q0 131 11 215.5t43 160.5l127 -132q-51 -88 -67.5 -140t-16.5 -104q0 -60 1.5 -83.5t9.5 -57.5q46 -9 92 -30l-60 -56l16 -27q15 8 34 8q17 0 33 -5q2 0 7 -3z" />
    <glyph glyph-name="multiply" unicode="&#xd7;" horiz-adv-x="544" 
d="M517 318q-12 -23 -29.5 -45t-41.5 -39q18 -78 51 -135l-138 -132q-13 39 -19.5 98.5t-6.5 125.5l-47 -3q-104 0 -173 64t-78 162q-1 7 -1 15.5v12.5q0 52 17.5 104.5t50.5 91.5l145 -77q-37 -39 -53.5 -86t-16.5 -105q5 -55 41 -91q40 -40 101 -40l17 1q0 113 39 220.5
t104 173.5l16 -27q-31 -47 -46.5 -109.5t-15.5 -135.5q0 -20 1 -40.5t4 -39.5q37 28 57 66z" />
    <glyph glyph-name="Oslash" unicode="&#xd8;" horiz-adv-x="740" 
d="M707 94l-42 -40q9 -21 21 -39l-20 -27l-33 37l-37 -35q-44 24 -97 41t-115 24q-11 -37 -27 -67l-75 70q-38 0 -77 -9q-13 -3 -33 -10l14 -24l-20 -27l-34 39q-17 -5 -36.5 -13.5t-33.5 -16.5l-29 16q32 26 75 48q-55 85 -74 210q-6 44 -6 90q0 143 56 284l139 -124
q-46 -60 -70.5 -137t-24.5 -157t25 -145q17 10 27 15q32 16 55 21q31 59 52 146.5t21 178.5q0 47 -6 91.5t-20 88.5l18 11q41 -63 71 -165q27 -92 35 -183q3 -33 3 -64q0 -15 -0.5 -27.5t-4.5 -49.5q57 0 90 -2.5t75 -10.5q-11 21 -17 37q-20 50 -26.5 91t-8.5 73t-2 60
q0 81 16 153q13 58 33 99l139 -124q-40 -51 -60.5 -120.5t-20.5 -142.5q0 -77 19 -141q20 -5 35 -10.5t31 -12.5z" />
    <glyph glyph-name="Ugrave" unicode="&#xd9;" horiz-adv-x="740" 
d="M745 19q-51 -27 -68 -103q-5 -25 -6 -71l-110 42q17 40 47 75q17 19 37 36l-19 21l-30 -29q-44 24 -97 41t-115 24q-11 -37 -27 -67l-75 70q-38 0 -77 -9q-13 -3 -33 -10l14 -24l-20 -27l-34 39q-17 -5 -36.5 -13.5t-33.5 -16.5l-29 16q32 26 75 48q-55 85 -74 210
q-6 44 -6 90q0 143 56 284l139 -124q-46 -60 -70.5 -137t-24.5 -157t25 -145q17 10 27 15q32 16 55 21q31 59 52 146.5t21 178.5q0 47 -6 91.5t-20 88.5l18 11q41 -63 71 -165q27 -92 35 -183q3 -33 3 -64q0 -15 -0.5 -27.5t-4.5 -49.5q57 0 90 -2.5t75 -10.5q-11 21 -17 37
q-20 50 -26.5 91t-8.5 73t-2 60q0 81 16 153q13 58 33 99l139 -124q-40 -51 -60.5 -120.5t-20.5 -142.5q0 -77 19 -141q20 -5 35 -10.5t31 -12.5l-52 -48l16 -27q15 8 34 8q17 0 33 -5q2 0 7 -3z" />
    <glyph glyph-name="Uacute" unicode="&#xda;" horiz-adv-x="622" 
d="M605 195q0 -67 -47 -119t-142 -81l-156 144q-8 -36 -24 -72t-39 -69l-118 136q40 37 69 91q36 67 36 132q-16 0 -45 -14q-9 -4 -26 -14l-12 35q21 12 54 25q11 4 29 10q2 11 3 27.5t1 29.5q0 56 -15 109q-25 -21 -64 -34q-30 -9 -59 -9q-12 0 -26 2t-28 5l20 136
q18 -9 42.5 -14.5t44.5 -5.5t38 3q-4 10 -13 24q-1 1 -2 4l22 20l29 -39q32 9 55 21q4 2 10 6q-8 -45 -33 -81q32 -62 49 -132q5 -23 11 -59q8 0 30.5 1t28.5 1h19.5t30.5 -4q111 -18 172 -80q55 -56 55 -135zM496 228q0 47 -37.5 83t-102.5 51q-25 6 -45.5 6h-31.5v-22
q0 -66 -1.5 -100t-8.5 -69q27 -19 57.5 -27.5t56.5 -8.5q53 0 83 24t30 63z" />
    <glyph glyph-name="Ucircumflex" unicode="&#xdb;" horiz-adv-x="791" 
d="M767 555q-34 -49 -57 -117t-29 -140q-1 -12 -1.5 -25.5t-0.5 -20.5q0 -65 16.5 -121t46.5 -104l-20 -27q-60 63 -90 124q-34 69 -42 159q-3 29 -3 63q0 93 15 190t38 151zM529 195q0 -67 -47 -119t-142 -81l-156 144q-8 -36 -24 -72t-39 -69l-118 136q40 37 69 91
q36 67 36 132q-16 0 -45 -14q-9 -4 -26 -14l-12 35q21 12 54 25q11 4 29 10q4 30 5 36v21q0 78 -31 156q-10 26 -32 64l22 20q45 -54 77 -128q21 -49 35 -110q4 -23 9 -46q8 0 30.5 1t28.5 1h19.5t30.5 -4q111 -18 172 -80q55 -56 55 -135zM420 228q0 47 -37.5 83t-102.5 51
q-25 6 -45.5 6h-31.5v-22q0 -66 -1.5 -100t-8.5 -69q27 -19 57.5 -27.5t56.5 -8.5q53 0 83 24t30 63z" />
    <glyph glyph-name="Udieresis" unicode="&#xdc;" horiz-adv-x="571" 
d="M554 195q0 -67 -47 -119t-142 -81l-156 144q-8 -36 -24 -72t-39 -69l-118 136q40 37 69 91q36 67 36 132q-16 0 -45 -14q-9 -4 -26 -14l-12 35q21 12 54 25q11 4 29 10q4 30 5 36v21q0 78 -31 156q-10 26 -32 64l22 20q45 -54 77 -128q21 -49 35 -110q4 -23 9 -46
q8 0 30.5 1t28.5 1h19.5t30.5 -4q111 -18 172 -80q55 -56 55 -135zM445 228q0 47 -37.5 83t-102.5 51q-25 6 -45.5 6h-31.5v-22q0 -66 -1.5 -100t-8.5 -69q27 -19 57.5 -27.5t56.5 -8.5q53 0 83 24t30 63z" />
    <glyph glyph-name="Yacute" unicode="&#xdd;" horiz-adv-x="559" 
d="M607 298l-28 -16l-11 11q-14 14 -29 25q0 -140 -85.5 -232.5t-213.5 -92.5l-58 5l-174 220l20 16q50 -56 90.5 -78t97.5 -22q96 0 161.5 58.5t76.5 152.5q-36 -3 -76 -31q-27 -19 -65 -57l-103 108q73 61 164 61q39 0 80 -12q-11 89 -64 147t-127 58q-27 0 -45 -5
t-55 -23q24 -49 24 -95q0 -29 -10 -56t-28 -52q-16 55 -25.5 73.5t-36.5 46.5l-33 -41l-33 23l28 40q-8 6 -19.5 14t-27.5 17l82 111q22 -15 29.5 -21t26.5 -25q45 20 70.5 27t56.5 7q102 0 177.5 -80.5t91.5 -205.5q46 -33 71 -76z" />
    <glyph glyph-name="Thorn" unicode="&#xde;" horiz-adv-x="912" 
d="M864 338q0 -198 -213 -305l17 -33q-51 -9 -61 -9q-7 0 -19.5 3t-22.5 5l-62 -17l-11 22l26 11q-154 71 -200 218q-35 0 -62 13t-53 39q0 -91 -13.5 -162.5t-39.5 -122.5l-128 120q34 74 56.5 163t22.5 177q0 51 -5.5 90t-20.5 85l18 11q41 -61 71.5 -148.5t38.5 -177.5
l41 73q8 -24 22 -38.5t36 -26.5q0 83 40.5 149t139.5 131l-38 55h75q33 0 52.5 -2t49.5 -11l77 15l5 -23l-32 -11q193 -110 193 -293zM768 291q0 91 -56.5 147.5t-150.5 56.5l-62 88q-58 -60 -81.5 -106.5t-23.5 -100.5q0 -13 2 -30.5t5 -32.5q11 2 18 3q41 9 66 25l14 -21
q-25 -28 -40 -41q-20 -17 -34 -24q23 -37 63 -59.5t95 -32.5l54 -104q74 64 102.5 115.5t28.5 116.5z" />
    <glyph glyph-name="germandbls" unicode="&#xdf;" horiz-adv-x="558" 
d="M555 521l-20 -24q-24 22 -44 38q-12 10 -45 35q-13 -64 -13 -124q0 -92 31 -179q24 -66 67 -135l-97 -136q-51 67 -73.5 130.5t-22.5 136.5v27t5 59l-54 -6q-21 -236 -164 -346l-113 152q161 83 216 182l-57 -39q-76 52 -106 94t-30 98q0 77 67 132t161 55q41 0 74 -9.5
t88 -39.5q9 17 15.5 27.5t18.5 28.5l23 -16q-9 -17 -14.5 -29t-11.5 -31q24 -16 47 -35t52 -46zM411 593q-58 25 -122 25q-58 0 -91.5 -27.5t-33.5 -74.5q0 -34 24 -65t68 -54q1 9 2 26.5t1 28.5q0 14 -1 32.5t-4 37.5l28 8q7 -33 8 -73.5t2 -73.5q14 -3 28 -5t26 -3
q11 67 22.5 106t42.5 112z" />
    <glyph glyph-name="agrave" unicode="&#xe0;" horiz-adv-x="519" 
d="M523 132l-100 -146q-61 88 -94 200l-86 76q-19 -119 -61 -187q-47 -77 -112 -77q-44 0 -72 27t-28 69q0 40 23.5 67.5t57.5 27.5q22 0 38 -8t39 -31q22 26 37 70t23 93l-96 86l31 44l75 -65v42v14v11q0 40 -8 83q-23 11 -46 30.5t-68 67.5l16 13q18 -8 35.5 -15t35.5 -10
q-5 25 -25 47l32 24q10 -14 20.5 -32.5t19.5 -38.5q36 0 61.5 15t66.5 57l93 -114q-17 -16 -23 -21q-2 -2 -19 -13l18 -7q-24 -69 -24 -128q0 -75 38 -145q34 -63 102 -126zM362 525q-38 -15 -78 -15q-18 0 -44 3q14 -65 14 -126q0 -27 -3 -57l59 -51q0 86 9.5 139t42.5 107
z" />
    <glyph glyph-name="aacute" unicode="&#xe1;" horiz-adv-x="571" 
d="M554 195q0 -67 -47 -119t-142 -81l-156 144q-8 -36 -24 -72t-39 -69l-118 136q40 37 69 91q36 67 36 132q-16 0 -45 -14q-9 -4 -26 -14l-12 35q21 12 54 25q11 4 29 10q3 30 3 56q0 43 -10 99q-26 13 -63 44.5t-70 68.5l20 20q54 -50 95 -72q-8 20 -11.5 26.5t-21.5 34.5
l22 20q24 -32 38.5 -54.5t26.5 -45.5q16 -4 44 -4q63 0 120 22q67 26 91 71l103 -137q-46 -24 -98 -35.5t-105 -11.5q-68 0 -125 19q6 -18 17 -66q3 -15 9 -42q8 0 30.5 1t28.5 1h19.5t30.5 -4q111 -18 172 -80q55 -56 55 -135zM445 228q0 47 -37.5 83t-102.5 51
q-25 6 -45.5 6h-31.5v-22q0 -66 -1.5 -100t-8.5 -69q27 -19 57.5 -27.5t56.5 -8.5q53 0 83 24t30 63z" />
    <glyph glyph-name="acircumflex" unicode="&#xe2;" horiz-adv-x="571" 
d="M554 195q0 -67 -47 -119t-142 -81l-158 146q-21 -58 -29 -77.5t-31 -66.5l-110 124q41 65 61.5 135t20.5 139q0 92 -36 170q-8 -5 -21 -15q-7 -6 -29 -23l-23 20q18 22 29.5 35t21.5 22q-7 10 -14.5 19t-20.5 24l30 28l40 -46q78 43 181 43q109 0 173 -50t64 -136
q0 -75 -59 -125q56 -39 79 -81q20 -36 20 -85zM386 517q0 41 -44 69t-110 28q-59 0 -108 -24q46 -71 70 -155l59 -4q55 0 94 25t39 61zM232 392l-34 29l9 -41zM457 245q0 45 -44 88q-12 -6 -33.5 -13.5t-47.5 -14.5l-57 49l-61 -25q0 -21 1.5 -64t1.5 -45v-29q-2 -11 -2 -15
q49 -23 68.5 -29t48.5 -6q54 0 89.5 29.5t35.5 74.5z" />
    <glyph glyph-name="atilde" unicode="&#xe3;" horiz-adv-x="500" 
d="M523 549q-104 -50 -194 -50q-79 0 -173 38q-16 -60 -16 -118q0 -164 135 -290l-107 -138q-50 61 -74 134t-24 155q0 66 13.5 133t40.5 139q-19 8 -46 25t-61 43l23 26q35 -22 55.5 -32.5t44.5 -18.5l22 49l22 -10l-14 -47q42 -9 73 -9q42 0 81.5 17.5t101.5 60.5z" />
    <glyph glyph-name="adieresis" unicode="&#xe4;" horiz-adv-x="547" 
d="M530 341q0 -96 -39 -176q-43 -87 -136 -161l-154 158q0 -23 -19 -72q-27 -63 -42 -102l-123 126q54 85 80.5 163t26.5 145q0 83 -37 154q-11 -9 -21.5 -18.5t-26.5 -25.5l-22 18q16 20 26 31t26 25l-26 32l23 30l34 -37q57 37 121 37q124 0 216.5 -99.5t92.5 -227.5z
M415 368q0 100 -53 178q-58 85 -146 85q-43 0 -90 -29q93 -129 93 -283q0 -51 -9 -108q35 -18 65 -18q62 0 101 52t39 123z" />
    <glyph glyph-name="aring" unicode="&#xe5;" horiz-adv-x="581" 
d="M578 173l-112 -165q-29 -5 -47 -7t-34 -2q-151 0 -227.5 82t-76.5 229v20q-17 -12 -33 -31q-5 -6 -13 -17l-28 16q27 48 79 89q4 36 14.5 68.5t40.5 98.5q-23 13 -44 26t-58 38l21 23q45 -24 107 -36l29 40l24 -19l-17 -26q39 -3 70 -3q61 0 104 13.5t89 46.5l100 -110
q-95 -56 -194 -56q-90 0 -199 47q-23 -61 -23 -122q60 15 101 15q76 0 153 -66l-103 -108q-72 71 -144 83q25 -105 92 -157q62 -48 157 -48q38 0 74.5 8t97.5 30z" />
    <glyph glyph-name="ae" unicode="&#xe6;" horiz-adv-x="824" 
d="M814 140l-111 -144q-69 60 -115.5 138t-70.5 176q-5 -3 -8 -4q-12 -5 -22 -5q0 -54 -18 -128t-44 -119l-33 20q12 38 18 80t6 77q0 13 -0.5 24.5t-4.5 45.5q-15 0 -32.5 2.5t-33.5 6.5q-24 -98 -84.5 -179.5t-145.5 -134.5l-111 144q87 20 157 71q74 54 114 130
q-65 29 -133 95q-72 70 -97 134l123 111q9 -86 69 -180q68 -107 164 -153q-7 42 -31 87q-28 51 -70 91l101 108q44 -54 67 -139q19 -70 19 -137q6 0 34 31q39 43 67 104q39 85 48 188l123 -111q-28 -72 -73 -132q-48 -65 -103 -97q40 -77 95.5 -125.5t135.5 -75.5z" />
    <glyph glyph-name="ccedilla" unicode="&#xe7;" 
d="M456 221q0 -88 -57 -153q-62 -71 -161 -71q-74 0 -124.5 31t-88.5 105l84 100q16 -62 49.5 -91t79.5 -29q53 0 92 46t39 110q0 30 -14 59l-57 -41l-118 95q30 0 46 4t43 18q-17 9 -30.5 13t-57.5 12l1 32q15 -2 25 -4q61 -12 96 -30q18 20 25 38.5t7 48.5
q0 51 -27.5 80.5t-81.5 29.5q-20 0 -42 -8.5t-34 -19.5q18 -39 18 -69q0 -23 -8.5 -43.5t-25.5 -44.5q-12 42 -20.5 59t-28.5 37l-27 -32l-26 18l22 32q-7 6 -16 12t-21 13l65 89q18 -12 24.5 -17.5t20.5 -19.5q31 20 55 30q35 14 75 14q86 0 141 -55q52 -52 52 -127
q0 -66 -53 -127q59 -62 59 -144z" />
    <glyph glyph-name="egrave" unicode="&#xe8;" horiz-adv-x="534" 
d="M517 119l-117 -128q-30 62 -45.5 126t-15.5 124q-36 -40 -78 -76t-99 -74q-27 -55 -52 -91l-28 24l18 29l-50 -29l-14 30q50 38 87 74q4 29 4 63q0 89 -34 174q-30 75 -90 159l107 133q45 -88 67.5 -173t22.5 -170q0 -34 -2 -58.5t-9 -56.5q75 92 127.5 200.5t91.5 252.5
l34 -46l25 38l25 -20l-25 -51l45 -61q-22 -47 -43 -84.5t-46 -74.5q20 -79 40.5 -131t53.5 -103z" />
    <glyph glyph-name="eacute" unicode="&#xe9;" horiz-adv-x="534" 
d="M310 686q0 -53 -31 -147l-38 18l2 45q0 64 -24 133l60 71q31 -52 31 -120zM517 119l-117 -128q-30 62 -45.5 126t-15.5 124q-36 -40 -78 -76t-99 -74q-27 -55 -52 -91l-28 24l18 29l-50 -29l-14 30q50 38 87 74q4 29 4 63q0 89 -34 174q-30 75 -90 159l107 133
q45 -88 67.5 -173t22.5 -170q0 -34 -2 -58.5t-9 -56.5q75 92 127.5 200.5t91.5 252.5l34 -46l25 38l25 -20l-25 -51l45 -61q-22 -47 -43 -84.5t-46 -74.5q20 -79 40.5 -131t53.5 -103z" />
    <glyph glyph-name="ecircumflex" unicode="&#xea;" horiz-adv-x="555" 
d="M552 140l-111 -144q-69 60 -115.5 138t-70.5 176l-30 -9q-2 -27 -3 -54q-6 -66 -21 -123q-21 -81 -57 -131l-112 148q28 41 46 77.5t30 77.5q-23 4 -38 9t-53 22l14 38q51 -23 88 -23q4 22 6 43t2 47q0 56 -14 107.5t-46 100.5l36 24q48 -68 74 -134.5t40 -158.5q5 3 8 4
q12 6 17 11q-3 30 -5 49.5t-2 40.5q0 39 7 96l35 -8v-10.5v-13.5q0 -46 1.5 -70.5t10.5 -45.5q109 103 125 257l123 -111q-53 -135 -216 -229q40 -77 95.5 -125.5t135.5 -75.5z" />
    <glyph glyph-name="edieresis" unicode="&#xeb;" horiz-adv-x="568" 
d="M551 134l-134 -140q0 138 -33 253q-28 98 -89 200q0 -111 -45.5 -224.5t-131.5 -233.5l-109 143q90 71 153 167q72 110 82 219q-17 20 -31.5 35.5t-40.5 38.5l21 30l44 -29l-12 29l33 24q10 -21 21.5 -44.5t11.5 -46.5q218 -178 260 -421z" />
    <glyph glyph-name="igrave" unicode="&#xec;" horiz-adv-x="683" 
d="M684 120l-107 -120q-38 57 -56.5 127.5t-18.5 152.5q0 41 5 86.5t14 94.5q-78 -63 -109 -104q-23 -31 -33 -68q20 -70 20 -154q0 -57 -9 -137h-34q0 85 -3.5 126.5t-15.5 77.5q-8 -38 -12 -82t-4 -120h-34q-7 62 -7 114q0 47 5.5 82.5t18.5 82.5q-16 30 -54.5 78.5
t-63.5 69.5q15 -77 15 -142q0 -160 -99 -285l-99 122q116 117 116 301q0 27 -3 56q-11 7 -26 15t-32 17l41 52l-52 76l24 22q22 -26 27 -32.5t24 -35.5l44 57q65 -55 98 -104t73 -148q30 66 85 137q50 65 99 104l44 -48q14 21 24.5 35t26.5 33l24 -22l-52 -76l41 -36
q-20 -10 -30 -17q-5 -4 -14 -9q-1 -13 -1.5 -29t-0.5 -24q0 -96 27.5 -183.5t73.5 -142.5z" />
    <glyph glyph-name="iacute" unicode="&#xed;" horiz-adv-x="538" 
d="M541 331q-21 -24 -61 -49t-78 -39q9 -90 19.5 -125.5t45.5 -90.5l-20 -27q-56 59 -83.5 107.5t-41.5 114.5q-8 -1 -13 -1q-29 0 -54 6q-39 9 -68 33q3 -20 3 -44q0 -53 -13.5 -109.5t-38.5 -106.5l-128 120q34 74 56.5 163t22.5 177q0 51 -5.5 90t-20.5 85l18 11
q38 -57 60.5 -124t36.5 -164l44 64q11 -34 50 -62q13 -9 37 -21q0 105 11.5 172t44.5 146l127 -132q-62 -106 -82 -204q33 7 57.5 15t55.5 22z" />
    <glyph glyph-name="icircumflex" unicode="&#xee;" horiz-adv-x="602" 
d="M582 338q0 -198 -213 -305l17 -33q-51 -9 -61 -9q-7 0 -19.5 3t-22.5 5l-62 -17l-11 22l26 11q-105 48 -160.5 134.5t-55.5 182.5q0 83 40 147t140 129l-38 55h75q33 0 52.5 -2t49.5 -11l77 15l5 -23l-32 -11q193 -110 193 -293zM486 291q0 91 -56.5 147.5t-150.5 56.5
l-62 88q-58 -60 -81.5 -106.5t-23.5 -100.5q0 -82 43 -136q48 -60 146 -77l54 -104q74 64 102.5 115.5t28.5 116.5z" />
    <glyph glyph-name="idieresis" unicode="&#xef;" horiz-adv-x="538" 
d="M510 608q-10 -11 -22 -22t-31 -25l27 -28q-40 -51 -60.5 -121t-20.5 -143q0 -142 64 -242l-20 -27q-60 63 -90 124q-34 69 -41 145t-7 134q0 52 6 96q-26 -4 -40.5 -4.5t-22.5 -0.5q-31 0 -59 6.5t-55 22.5q19 -53 31.5 -108.5t16.5 -102.5t4 -78q0 -132 -52 -234
l-128 120q33 57 56 148.5t23 186.5q0 53 -5.5 93.5t-20.5 86.5l18 11q21 -32 38 -72l68 92q21 -46 51 -70q35 -29 82 -29q9 1 14 1q9 29 10 34q7 23 21 55l62 -65q13 7 33 20q14 9 32 23z" />
    <glyph glyph-name="eth" unicode="&#xf0;" horiz-adv-x="573" 
d="M556 466q0 -56 -44.5 -109t-122.5 -86l-148 77q12 -54 12 -107q0 -69 -21.5 -128.5t-66.5 -113.5l-100 114q40 53 63.5 123.5t23.5 143.5q0 46 -9 88t-30 83q-15 -15 -29 -33t-37 -54l-30 16q24 41 38.5 61t35.5 42l-43 52l22 26l46 -54q81 63 190 63q103 0 176.5 -61.5
t73.5 -142.5zM407 510q0 50 -37.5 79.5t-100.5 29.5q-64 0 -129 -45q63 -93 92 -196q95 17 135 47t40 85z" />
    <glyph glyph-name="ntilde" unicode="&#xf1;" horiz-adv-x="559" 
d="M556 561q-19 -11 -24 -14t-23 -17l28 -40l-33 -23l-33 41q-25 -26 -36.5 -47.5t-25.5 -72.5q-19 26 -28.5 52.5t-9.5 56.5q0 46 24 94q-31 15 -53.5 21.5t-46.5 6.5q-81 0 -137 -70t-56 -172q0 -105 68 -174t172 -69q55 0 97 22t91 78l20 -16l-174 -220l-58 -5
q-129 0 -214 93t-85 234q0 142 79 241t193 99q51 0 127 -34q14 14 25 23q15 12 31 23z" />
    <glyph glyph-name="ograve" unicode="&#xf2;" horiz-adv-x="526" 
d="M542 645q-38 -51 -80.5 -81.5t-130.5 -69.5q20 -51 29 -97.5t9 -94.5q0 -80 -29 -156t-87 -156l-113 119q58 53 93.5 137.5t35.5 166.5q0 32 -6 61q-12 -2 -27 -3t-28 -1q-61 0 -122 22q-36 13 -103 48l88 109q46 -26 81 -39t83 -21l-24 51l33 17q5 -8 24 -38
q15 -23 20 -33q70 0 133 21t98 55z" />
    <glyph glyph-name="oacute" unicode="&#xf3;" horiz-adv-x="464" 
d="M449 288l-6 -31q-12 -4 -24 -4q-7 0 -19 2t-17 2q-31 -75 -88 -148q-44 -57 -112 -120l-97 143q90 39 182 149q-93 29 -155 94q-44 46 -69 106q-8 25 -16 51l131 113q1 -30 3 -60q9 -73 37 -132q38 -81 107 -124q41 62 64.5 133.5t23.5 153.5l36 24q7 -46 7 -98
q0 -68 -10.5 -125t-32.5 -119q12 -4 26 -7t29 -3z" />
    <glyph glyph-name="ocircumflex" unicode="&#xf4;" horiz-adv-x="774" 
d="M757 466q0 -56 -44.5 -109t-122.5 -86l-141 88q3 -32 3 -66q0 -83 -19 -163t-50 -131l-117 114q17 22 42 70q33 63 42 103q-11 -6 -19 -8q-25 -8 -56 -8q-118 0 -187 62q-63 57 -63 142q0 56 44.5 109t122.5 86l148 -95q-92 -17 -131 -53q-35 -33 -35 -91q0 -51 33 -80
t95 -29q29 0 49 10q3 1 8 5q6 32 6 69q0 62 -14 127t-39 123l24 28q10 -15 21 -37q3 -7 9 -19q19 14 34 21q48 22 107 22q103 0 176.5 -61.5t73.5 -142.5zM608 510q0 50 -37.5 79.5t-100.5 29.5q-35 0 -64 -16q-9 -5 -23 -17q21 -39 37.5 -96t24.5 -112q93 17 128 46.5
t35 85.5z" />
    <glyph glyph-name="otilde" unicode="&#xf5;" horiz-adv-x="470" 
d="M466 118l-89 -119q-117 74 -155 208q-33 -81 -94.5 -132.5t-124.5 -51.5q93 77 131 135.5t38 126.5q0 80 -36 139q-42 70 -133 110l97 119q110 -83 138 -200q32 71 73 113.5t121 87.5l15 -21q-86 -50 -131 -123q-41 -67 -41 -140t51.5 -141.5t139.5 -110.5z" />
    <glyph glyph-name="odieresis" unicode="&#xf6;" horiz-adv-x="538" 
d="M541 27q-51 -27 -68 -103q-5 -25 -6 -71l-110 42q17 40 47 75q17 19 37 36l-19 21l-22 -21q-33 29 -77 47q-51 21 -103 21q-17 0 -26 -1t-29 -4q-12 -38 -27 -69l-49 46q-30 -13 -63 -33l-29 16q8 6 30 24q17 13 31 22l-48 45q34 74 56.5 163t22.5 177q0 51 -5.5 90
t-20.5 85l18 11q41 -62 75.5 -180t34.5 -218q0 -55 -10 -114q31 9 71.5 13t89.5 4q-13 32 -22 65t-9 65q0 131 11 215.5t43 160.5l127 -132q-51 -88 -67.5 -140t-16.5 -104q0 -60 1.5 -83.5t9.5 -57.5q46 -9 92 -30l-60 -56l16 -27q15 8 34 8q17 0 33 -5q2 0 7 -3z" />
    <glyph glyph-name="divide" unicode="&#xf7;" horiz-adv-x="544" 
d="M517 318q-12 -23 -29.5 -45t-41.5 -39q18 -78 51 -135l-138 -132q-13 39 -19.5 98.5t-6.5 125.5l-47 -3q-104 0 -173 64t-78 162q-1 7 -1 15.5v12.5q0 52 17.5 104.5t50.5 91.5l145 -77q-37 -39 -53.5 -86t-16.5 -105q5 -55 41 -91q40 -40 101 -40l17 1q0 113 39 220.5
t104 173.5l16 -27q-31 -47 -46.5 -109.5t-15.5 -135.5q0 -20 1 -40.5t4 -39.5q37 28 57 66z" />
    <glyph glyph-name="oslash" unicode="&#xf8;" horiz-adv-x="740" 
d="M707 94l-42 -40q9 -21 21 -39l-20 -27l-33 37l-37 -35q-44 24 -97 41t-115 24q-11 -37 -27 -67l-75 70q-38 0 -77 -9q-13 -3 -33 -10l14 -24l-20 -27l-34 39q-17 -5 -36.5 -13.5t-33.5 -16.5l-29 16q32 26 75 48q-55 85 -74 210q-6 44 -6 90q0 143 56 284l139 -124
q-46 -60 -70.5 -137t-24.5 -157t25 -145q17 10 27 15q32 16 55 21q31 59 52 146.5t21 178.5q0 47 -6 91.5t-20 88.5l18 11q41 -63 71 -165q27 -92 35 -183q3 -33 3 -64q0 -15 -0.5 -27.5t-4.5 -49.5q57 0 90 -2.5t75 -10.5q-11 21 -17 37q-20 50 -26.5 91t-8.5 73t-2 60
q0 81 16 153q13 58 33 99l139 -124q-40 -51 -60.5 -120.5t-20.5 -142.5q0 -77 19 -141q20 -5 35 -10.5t31 -12.5z" />
    <glyph glyph-name="ugrave" unicode="&#xf9;" horiz-adv-x="740" 
d="M745 19q-51 -27 -68 -103q-5 -25 -6 -71l-110 42q17 40 47 75q17 19 37 36l-19 21l-30 -29q-44 24 -97 41t-115 24q-11 -37 -27 -67l-75 70q-38 0 -77 -9q-13 -3 -33 -10l14 -24l-20 -27l-34 39q-17 -5 -36.5 -13.5t-33.5 -16.5l-29 16q32 26 75 48q-55 85 -74 210
q-6 44 -6 90q0 143 56 284l139 -124q-46 -60 -70.5 -137t-24.5 -157t25 -145q17 10 27 15q32 16 55 21q31 59 52 146.5t21 178.5q0 47 -6 91.5t-20 88.5l18 11q41 -63 71 -165q27 -92 35 -183q3 -33 3 -64q0 -15 -0.5 -27.5t-4.5 -49.5q57 0 90 -2.5t75 -10.5q-11 21 -17 37
q-20 50 -26.5 91t-8.5 73t-2 60q0 81 16 153q13 58 33 99l139 -124q-40 -51 -60.5 -120.5t-20.5 -142.5q0 -77 19 -141q20 -5 35 -10.5t31 -12.5l-52 -48l16 -27q15 8 34 8q17 0 33 -5q2 0 7 -3z" />
    <glyph glyph-name="uacute" unicode="&#xfa;" horiz-adv-x="622" 
d="M605 195q0 -67 -47 -119t-142 -81l-156 144q-8 -36 -24 -72t-39 -69l-118 136q40 37 69 91q36 67 36 132q-16 0 -45 -14q-9 -4 -26 -14l-12 35q21 12 54 25q11 4 29 10q2 11 3 27.5t1 29.5q0 56 -15 109q-25 -21 -64 -34q-30 -9 -59 -9q-12 0 -26 2t-28 5l20 136
q18 -9 42.5 -14.5t44.5 -5.5t38 3q-4 10 -13 24q-1 1 -2 4l22 20l29 -39q32 9 55 21q4 2 10 6q-8 -45 -33 -81q32 -62 49 -132q5 -23 11 -59q8 0 30.5 1t28.5 1h19.5t30.5 -4q111 -18 172 -80q55 -56 55 -135zM496 228q0 47 -37.5 83t-102.5 51q-25 6 -45.5 6h-31.5v-22
q0 -66 -1.5 -100t-8.5 -69q27 -19 57.5 -27.5t56.5 -8.5q53 0 83 24t30 63z" />
    <glyph glyph-name="ucircumflex" unicode="&#xfb;" horiz-adv-x="791" 
d="M767 555q-34 -49 -57 -117t-29 -140q-1 -12 -1.5 -25.5t-0.5 -20.5q0 -65 16.5 -121t46.5 -104l-20 -27q-60 63 -90 124q-34 69 -42 159q-3 29 -3 63q0 93 15 190t38 151zM529 195q0 -67 -47 -119t-142 -81l-156 144q-8 -36 -24 -72t-39 -69l-118 136q40 37 69 91
q36 67 36 132q-16 0 -45 -14q-9 -4 -26 -14l-12 35q21 12 54 25q11 4 29 10q4 30 5 36v21q0 78 -31 156q-10 26 -32 64l22 20q45 -54 77 -128q21 -49 35 -110q4 -23 9 -46q8 0 30.5 1t28.5 1h19.5t30.5 -4q111 -18 172 -80q55 -56 55 -135zM420 228q0 47 -37.5 83t-102.5 51
q-25 6 -45.5 6h-31.5v-22q0 -66 -1.5 -100t-8.5 -69q27 -19 57.5 -27.5t56.5 -8.5q53 0 83 24t30 63z" />
    <glyph glyph-name="udieresis" unicode="&#xfc;" horiz-adv-x="571" 
d="M554 195q0 -67 -47 -119t-142 -81l-156 144q-8 -36 -24 -72t-39 -69l-118 136q40 37 69 91q36 67 36 132q-16 0 -45 -14q-9 -4 -26 -14l-12 35q21 12 54 25q11 4 29 10q4 30 5 36v21q0 78 -31 156q-10 26 -32 64l22 20q45 -54 77 -128q21 -49 35 -110q4 -23 9 -46
q8 0 30.5 1t28.5 1h19.5t30.5 -4q111 -18 172 -80q55 -56 55 -135zM445 228q0 47 -37.5 83t-102.5 51q-25 6 -45.5 6h-31.5v-22q0 -66 -1.5 -100t-8.5 -69q27 -19 57.5 -27.5t56.5 -8.5q53 0 83 24t30 63z" />
    <glyph glyph-name="yacute" unicode="&#xfd;" horiz-adv-x="559" 
d="M607 298l-28 -16l-11 11q-14 14 -29 25q0 -140 -85.5 -232.5t-213.5 -92.5l-58 5l-174 220l20 16q50 -56 90.5 -78t97.5 -22q96 0 161.5 58.5t76.5 152.5q-36 -3 -76 -31q-27 -19 -65 -57l-103 108q73 61 164 61q39 0 80 -12q-11 89 -64 147t-127 58q-27 0 -45 -5
t-55 -23q24 -49 24 -95q0 -29 -10 -56t-28 -52q-16 55 -25.5 73.5t-36.5 46.5l-33 -41l-33 23l28 40q-8 6 -19.5 14t-27.5 17l82 111q22 -15 29.5 -21t26.5 -25q45 20 70.5 27t56.5 7q102 0 177.5 -80.5t91.5 -205.5q46 -33 71 -76z" />
    <glyph glyph-name="thorn" unicode="&#xfe;" horiz-adv-x="912" 
d="M864 338q0 -198 -213 -305l17 -33q-51 -9 -61 -9q-7 0 -19.5 3t-22.5 5l-62 -17l-11 22l26 11q-154 71 -200 218q-35 0 -62 13t-53 39q0 -91 -13.5 -162.5t-39.5 -122.5l-128 120q34 74 56.5 163t22.5 177q0 51 -5.5 90t-20.5 85l18 11q41 -61 71.5 -148.5t38.5 -177.5
l41 73q8 -24 22 -38.5t36 -26.5q0 83 40.5 149t139.5 131l-38 55h75q33 0 52.5 -2t49.5 -11l77 15l5 -23l-32 -11q193 -110 193 -293zM768 291q0 91 -56.5 147.5t-150.5 56.5l-62 88q-58 -60 -81.5 -106.5t-23.5 -100.5q0 -13 2 -30.5t5 -32.5q11 2 18 3q41 9 66 25l14 -21
q-25 -28 -40 -41q-20 -17 -34 -24q23 -37 63 -59.5t95 -32.5l54 -104q74 64 102.5 115.5t28.5 116.5z" />
    <glyph glyph-name="ydieresis" unicode="&#xff;" horiz-adv-x="558" 
d="M555 521l-20 -24q-24 22 -44 38q-12 10 -45 35q-13 -64 -13 -124q0 -92 31 -179q24 -66 67 -135l-97 -136q-51 67 -73.5 130.5t-22.5 136.5v27t5 59l-54 -6q-21 -236 -164 -346l-113 152q161 83 216 182l-57 -39q-76 52 -106 94t-30 98q0 77 67 132t161 55q41 0 74 -9.5
t88 -39.5q9 17 15.5 27.5t18.5 28.5l23 -16q-9 -17 -14.5 -29t-11.5 -31q24 -16 47 -35t52 -46zM411 593q-58 25 -122 25q-58 0 -91.5 -27.5t-33.5 -74.5q0 -34 24 -65t68 -54q1 9 2 26.5t1 28.5q0 14 -1 32.5t-4 37.5l28 8q7 -33 8 -73.5t2 -73.5q14 -3 28 -5t26 -3
q11 67 22.5 106t42.5 112z" />
    <glyph glyph-name="Emacron" unicode="&#x112;" horiz-adv-x="251" 
d="M122 312l102 -96l-98 -97l-103 97z" />
    <glyph glyph-name="emacron" unicode="&#x113;" horiz-adv-x="242" 
d="M158 363l84 -94q-48 -49 -109 -49q-28 0 -55 9.5t-78 39.5l24 58l36 -2q47 0 98 38z" />
    <glyph glyph-name="dotlessi" unicode="&#x131;" horiz-adv-x="236" 
d="M158 0l-128 120q33 96 44 153t11 134q0 70 -9 114t-37 108l22 13q66 -94 102 -207t36 -227q0 -63 -9 -108.5t-32 -99.5z" />
    <glyph glyph-name="OE" unicode="&#x152;" horiz-adv-x="880" 
d="M535 645l24 -19l-17 -26l55 -3q58 0 96.5 13t77.5 47l101 -110q-47 -27 -93.5 -40t-98.5 -13q-83 0 -168 44q-23 -61 -23 -122q24 7 38 9t37 2q52 0 87 -13t79 -49l-103 -108q-35 38 -65 57t-67 26q9 -42 19 -65.5t29 -50.5q66 -89 168 -89q38 0 75 8t98 30l-113 -165
q-28 -5 -45.5 -7t-32.5 -2q-78 0 -137 30t-92 87q-21 -27 -41.5 -44.5t-56.5 -38.5l17 -33q-25 -4 -39.5 -5.5t-18.5 -1.5q-16 0 -24 1q-14 4 -21 5l-62 -17l-11 22l26 11q-20 10 -36.5 19t-30.5 19q-67 48 -108 125.5t-41 157.5q0 79 42 142t138 130l-38 55l64 3
q52 0 113 -16l77 15l5 -24l-32 -10l9 -6q24 -8 45 -12t64 -10q10 16 13 20q11 13 18 22zM475 547l5 9q-12 5 -35 19zM374 282l-28 16q17 29 31 45.5t47 43.5l8 40q-33 33 -72.5 50.5t-83.5 17.5l-62 88q-23 -24 -37.5 -41.5t-24.5 -32.5q-43 -66 -43 -132q0 -44 18 -87
t49 -73q23 -23 49.5 -34.5t72.5 -19.5l54 -104q43 38 59 55.5t33 43.5q-24 71 -24 152v20q-11 -7 -16 -11.5t-18 -21.5z" />
    <glyph glyph-name="oe" unicode="&#x153;" horiz-adv-x="880" 
d="M535 645l24 -19l-17 -26l55 -3q58 0 96.5 13t77.5 47l101 -110q-47 -27 -93.5 -40t-98.5 -13q-83 0 -168 44q-23 -61 -23 -122q24 7 38 9t37 2q52 0 87 -13t79 -49l-103 -108q-35 38 -65 57t-67 26q9 -42 19 -65.5t29 -50.5q66 -89 168 -89q38 0 75 8t98 30l-113 -165
q-28 -5 -45.5 -7t-32.5 -2q-78 0 -137 30t-92 87q-21 -27 -41.5 -44.5t-56.5 -38.5l17 -33q-25 -4 -39.5 -5.5t-18.5 -1.5q-16 0 -24 1q-14 4 -21 5l-62 -17l-11 22l26 11q-20 10 -36.5 19t-30.5 19q-67 48 -108 125.5t-41 157.5q0 79 42 142t138 130l-38 55l64 3
q52 0 113 -16l77 15l5 -24l-32 -10l9 -6q24 -8 45 -12t64 -10q10 16 13 20q11 13 18 22zM475 547l5 9q-12 5 -35 19zM374 282l-28 16q17 29 31 45.5t47 43.5l8 40q-33 33 -72.5 50.5t-83.5 17.5l-62 88q-23 -24 -37.5 -41.5t-24.5 -32.5q-43 -66 -43 -132q0 -44 18 -87
t49 -73q23 -23 49.5 -34.5t72.5 -19.5l54 -104q43 38 59 55.5t33 43.5q-24 71 -24 152v20q-11 -7 -16 -11.5t-18 -21.5z" />
    <glyph glyph-name="Scaron" unicode="&#x160;" horiz-adv-x="555" 
d="M17 292l150 -62q33 -120 135 -120q67 0 115 48t48 116q0 23 -4 38.5t-16 39.5l-74 -90l-44 -1q-135 0 -218 57t-83 151q0 85 67 144t164 59q72 0 133 -30t127 -98l-18 -23q-65 49 -118 70t-113 21q-63 0 -102 -29t-39 -76q0 -54 54 -89t137 -35q44 0 90 14
q-28 24 -52.5 35t-68.5 21l1 31q94 -19 162 -69q19 11 32.5 21t35.5 30l13 -9l-54 -66q62 -63 62 -159q0 -54 -21 -103.5t-56 -81.5q-61 -53 -165 -53q-73 0 -130 28t-93 82q-23 33 -35.5 75.5t-21.5 112.5zM146 865l13 16q54 -32 85 -67q80 55 187 73l5 -19
q-59 -18 -109 -63t-74 -101q-36 104 -107 161z" />
    <glyph glyph-name="scaron" unicode="&#x161;" horiz-adv-x="555" 
d="M17 292l150 -62q33 -120 135 -120q67 0 115 48t48 116q0 23 -4 38.5t-16 39.5l-74 -90l-44 -1q-135 0 -218 57t-83 151q0 85 67 144t164 59q72 0 133 -30t127 -98l-18 -23q-65 49 -118 70t-113 21q-63 0 -102 -29t-39 -76q0 -54 54 -89t137 -35q44 0 90 14
q-28 24 -52.5 35t-68.5 21l1 31q94 -19 162 -69q19 11 32.5 21t35.5 30l13 -9l-54 -66q62 -63 62 -159q0 -54 -21 -103.5t-56 -81.5q-61 -53 -165 -53q-73 0 -130 28t-93 82q-23 33 -35.5 75.5t-21.5 112.5zM146 865l13 16q54 -32 85 -67q80 55 187 73l5 -19
q-59 -18 -109 -63t-74 -101q-36 104 -107 161z" />
    <glyph glyph-name="Ydieresis" unicode="&#x178;" horiz-adv-x="453" 
d="M79 287l-5 24l66 46q-28 78 -62.5 135.5t-87.5 110.5l12 27q62 -39 111.5 -91t94.5 -126q55 51 90 103t64 129l101 -113q-39 -63 -88 -105t-130 -82l11 -30q26 -72 35.5 -100.5t17.5 -65.5l-136 -148q0 94 -7 151t-25 147zM129 881l91 -85l-91 -91l-90 85zM323 881
l92 -85l-92 -91l-89 85z" />
    <glyph glyph-name="florin" unicode="&#x192;" 
d="M-139 -7l102 142q22 -64 39.5 -87t45.5 -23q52 0 88 81q14 33 28.5 88.5t34.5 149.5q-34 -4 -52.5 -12t-34.5 -27l-25 17q29 43 54.5 62.5t73.5 37.5q17 117 87.5 200.5t179.5 114.5l15 -106h-23q-68 0 -129 -63q-22 -24 -33.5 -51t-24.5 -83l16 1q30 0 57 -5t68 -19
l-68 -106q-34 14 -47.5 19t-45.5 13l-10 -53q-27 -135 -45.5 -191.5t-53.5 -109.5q-25 -39 -60 -62t-70 -23q-45 0 -88.5 24.5t-78.5 70.5z" />
    <glyph glyph-name="circumflex" unicode="&#x2c6;" horiz-adv-x="500" 
d="M115 710l-13 16q71 57 107 161q23 -54 74 -100t109 -64l-5 -19q-107 16 -187 72q-32 -35 -85 -66z" />
    <glyph glyph-name="caron" unicode="&#x2c7;" horiz-adv-x="500" 
d="M105 865l13 16q54 -32 85 -67q80 55 187 73l5 -19q-59 -18 -109 -63t-74 -101q-36 104 -107 161z" />
    <glyph glyph-name="breve" unicode="&#x2d8;" horiz-adv-x="500" 
d="M325 883l77 -46q-21 -51 -60.5 -78.5t-89.5 -27.5q-58 0 -95 31t-59 98h30q32 -86 95 -86q46 0 77 39q10 13 16 30.5t9 39.5z" />
    <glyph glyph-name="dotaccent" unicode="&#x2d9;" horiz-adv-x="500" 
d="M249 881l91 -85l-91 -91l-90 85z" />
    <glyph glyph-name="nundagesh" unicode="&#x2da;" horiz-adv-x="500" 
d="M273 714l5 -9l-19 -3l-14 2l-24 -5l-4 13l15 3q-79 27 -79 85q0 52 66 88l-12 18l25 2q10 0 29 -5l29 4l1 -13l-16 -3q72 -29 72 -84q0 -38 -34 -67q-8 -6 -18.5 -12.5t-21.5 -13.5zM249 758l14 -26q40 25 40 61q0 25 -16 42t-43 17l-15 21q-33 -23 -33 -55q0 -52 53 -60
z" />
    <glyph glyph-name="ogonek" unicode="&#x2db;" horiz-adv-x="500" 
d="M403 0h51q-41 -17 -56 -27q-42 -29 -42 -72q0 -26 15.5 -41.5t41.5 -15.5q32 0 65 18l5 -5l-50 -70l-24 -2q-49 0 -82 29t-33 74q0 39 24 64t85 48z" />
    <glyph glyph-name="tilde" unicode="&#x2dc;" horiz-adv-x="500" 
d="M379 843l37 -73q-54 -47 -108 -47q-18 0 -28.5 4.5t-45.5 27.5q-52 32 -91 32q-26 0 -56 -30l-2 33q23 22 39.5 30t37.5 8q28 0 64 -17l42 -25q14 -8 28 -8q43 0 83 65z" />
    <glyph glyph-name="afii10023" unicode="&#x401;" horiz-adv-x="581" 
d="M466 657l100 -110q-91 -53 -197 -53q-95 0 -196 44q-23 -61 -23 -122q44 11 86 11q54 0 90 -13.5t78 -48.5l-103 -108q-72 71 -144 83q10 -42 21 -65t34 -51q75 -89 194 -89q38 0 74.5 8t97.5 30l-112 -165q-29 -5 -47 -7t-34 -2q-73 0 -134.5 23t-98.5 65
q-71 80 -71 223v20q-11 -7 -16 -11.5t-18 -21.5l-12 -15l-28 16q27 48 79 89q4 36 14.5 68.5t40.5 98.5q-23 13 -44 26t-58 38l21 23q45 -24 107 -36l29 40l24 -19l-17 -26l57 -3q68 0 113.5 13t92.5 47zM193 881l91 -85l-91 -91l-90 85zM387 881l92 -85l-92 -91l-89 85z
" />
    <glyph glyph-name="afii10017" unicode="&#x410;" horiz-adv-x="519" 
d="M523 132l-100 -146q-61 88 -94 200l-86 76q-19 -119 -61 -187q-47 -77 -112 -77q-44 0 -72 27t-28 69q0 40 23.5 67.5t57.5 27.5q22 0 38 -8t39 -31q22 26 37 70t23 93l-96 86l31 44l75 -65v42v14v11q0 40 -8 83q-23 11 -46 30.5t-68 67.5l16 13q18 -8 35.5 -15t35.5 -10
q-5 25 -25 47l32 24q10 -14 20.5 -32.5t19.5 -38.5q36 0 61.5 15t66.5 57l93 -114q-17 -16 -23 -21q-2 -2 -19 -13l18 -7q-24 -69 -24 -128q0 -75 38 -145q34 -63 102 -126zM362 525q-38 -15 -78 -15q-18 0 -44 3q14 -65 14 -126q0 -27 -3 -57l59 -51q0 86 9.5 139t42.5 107
z" />
    <glyph glyph-name="afii10018" unicode="&#x411;" horiz-adv-x="571" 
d="M554 195q0 -67 -47 -119t-142 -81l-156 144q-8 -36 -24 -72t-39 -69l-118 136q40 37 69 91q36 67 36 132q-16 0 -45 -14q-9 -4 -26 -14l-12 35q21 12 54 25q11 4 29 10q3 30 3 56q0 43 -10 99q-26 13 -63 44.5t-70 68.5l20 20q54 -50 95 -72q-8 20 -11.5 26.5t-21.5 34.5
l22 20q24 -32 38.5 -54.5t26.5 -45.5q16 -4 44 -4q63 0 120 22q67 26 91 71l103 -137q-46 -24 -98 -35.5t-105 -11.5q-68 0 -125 19q6 -18 17 -66q3 -15 9 -42q8 0 30.5 1t28.5 1h19.5t30.5 -4q111 -18 172 -80q55 -56 55 -135zM445 228q0 47 -37.5 83t-102.5 51
q-25 6 -45.5 6h-31.5v-22q0 -66 -1.5 -100t-8.5 -69q27 -19 57.5 -27.5t56.5 -8.5q53 0 83 24t30 63z" />
    <glyph glyph-name="afii10019" unicode="&#x412;" horiz-adv-x="571" 
d="M554 195q0 -67 -47 -119t-142 -81l-158 146q-21 -58 -29 -77.5t-31 -66.5l-110 124q41 65 61.5 135t20.5 139q0 92 -36 170q-8 -5 -21 -15q-7 -6 -29 -23l-23 20q18 22 29.5 35t21.5 22q-7 10 -14.5 19t-20.5 24l30 28l40 -46q78 43 181 43q109 0 173 -50t64 -136
q0 -75 -59 -125q56 -39 79 -81q20 -36 20 -85zM386 517q0 41 -44 69t-110 28q-59 0 -108 -24q46 -71 70 -155l59 -4q55 0 94 25t39 61zM232 392l-34 29l9 -41zM457 245q0 45 -44 88q-12 -6 -33.5 -13.5t-47.5 -14.5l-57 49l-61 -25q0 -21 1.5 -64t1.5 -45v-29q-2 -11 -2 -15
q49 -23 68.5 -29t48.5 -6q54 0 89.5 29.5t35.5 74.5z" />
    <glyph glyph-name="afii10020" unicode="&#x413;" horiz-adv-x="500" 
d="M523 549q-104 -50 -194 -50q-79 0 -173 38q-16 -60 -16 -118q0 -164 135 -290l-107 -138q-50 61 -74 134t-24 155q0 66 13.5 133t40.5 139q-19 8 -46 25t-61 43l23 26q35 -22 55.5 -32.5t44.5 -18.5l22 49l22 -10l-14 -47q42 -9 73 -9q42 0 81.5 17.5t101.5 60.5z" />
    <glyph glyph-name="afii10021" unicode="&#x414;" horiz-adv-x="547" 
d="M530 341q0 -96 -39 -176q-43 -87 -136 -161l-154 158q0 -23 -19 -72q-27 -63 -42 -102l-123 126q54 85 80.5 163t26.5 145q0 83 -37 154q-11 -9 -21.5 -18.5t-26.5 -25.5l-22 18q16 20 26 31t26 25l-26 32l23 30l34 -37q57 37 121 37q124 0 216.5 -99.5t92.5 -227.5z
M415 368q0 100 -53 178q-58 85 -146 85q-43 0 -90 -29q93 -129 93 -283q0 -51 -9 -108q35 -18 65 -18q62 0 101 52t39 123z" />
    <glyph glyph-name="afii10022" unicode="&#x415;" horiz-adv-x="581" 
d="M578 173l-112 -165q-29 -5 -47 -7t-34 -2q-151 0 -227.5 82t-76.5 229v20q-17 -12 -33 -31q-5 -6 -13 -17l-28 16q27 48 79 89q4 36 14.5 68.5t40.5 98.5q-23 13 -44 26t-58 38l21 23q45 -24 107 -36l29 40l24 -19l-17 -26q39 -3 70 -3q61 0 104 13.5t89 46.5l100 -110
q-95 -56 -194 -56q-90 0 -199 47q-23 -61 -23 -122q60 15 101 15q76 0 153 -66l-103 -108q-72 71 -144 83q25 -105 92 -157q62 -48 157 -48q38 0 74.5 8t97.5 30z" />
    <glyph glyph-name="afii10024" unicode="&#x416;" horiz-adv-x="824" 
d="M814 140l-111 -144q-69 60 -115.5 138t-70.5 176q-5 -3 -8 -4q-12 -5 -22 -5q0 -54 -18 -128t-44 -119l-33 20q12 38 18 80t6 77q0 13 -0.5 24.5t-4.5 45.5q-15 0 -32.5 2.5t-33.5 6.5q-24 -98 -84.5 -179.5t-145.5 -134.5l-111 144q87 20 157 71q74 54 114 130
q-65 29 -133 95q-72 70 -97 134l123 111q9 -86 69 -180q68 -107 164 -153q-7 42 -31 87q-28 51 -70 91l101 108q44 -54 67 -139q19 -70 19 -137q6 0 34 31q39 43 67 104q39 85 48 188l123 -111q-28 -72 -73 -132q-48 -65 -103 -97q40 -77 95.5 -125.5t135.5 -75.5z" />
    <glyph glyph-name="afii10025" unicode="&#x417;" 
d="M456 221q0 -88 -57 -153q-62 -71 -161 -71q-74 0 -124.5 31t-88.5 105l84 100q16 -62 49.5 -91t79.5 -29q53 0 92 46t39 110q0 30 -14 59l-57 -41l-118 95q30 0 46 4t43 18q-17 9 -30.5 13t-57.5 12l1 32q15 -2 25 -4q61 -12 96 -30q18 20 25 38.5t7 48.5
q0 51 -27.5 80.5t-81.5 29.5q-20 0 -42 -8.5t-34 -19.5q18 -39 18 -69q0 -23 -8.5 -43.5t-25.5 -44.5q-12 42 -20.5 59t-28.5 37l-27 -32l-26 18l22 32q-7 6 -16 12t-21 13l65 89q18 -12 24.5 -17.5t20.5 -19.5q31 20 55 30q35 14 75 14q86 0 141 -55q52 -52 52 -127
q0 -66 -53 -127q59 -62 59 -144z" />
    <glyph glyph-name="afii10026" unicode="&#x418;" horiz-adv-x="534" 
d="M517 119l-117 -128q-30 62 -45.5 126t-15.5 124q-36 -40 -78 -76t-99 -74q-27 -55 -52 -91l-28 24l18 29l-50 -29l-14 30q50 38 87 74q4 29 4 63q0 89 -34 174q-30 75 -90 159l107 133q45 -88 67.5 -173t22.5 -170q0 -34 -2 -58.5t-9 -56.5q75 92 127.5 200.5t91.5 252.5
l34 -46l25 38l25 -20l-25 -51l45 -61q-22 -47 -43 -84.5t-46 -74.5q20 -79 40.5 -131t53.5 -103z" />
    <glyph glyph-name="afii10027" unicode="&#x419;" horiz-adv-x="534" 
d="M310 686q0 -53 -31 -147l-38 18l2 45q0 64 -24 133l60 71q31 -52 31 -120zM517 119l-117 -128q-30 62 -45.5 126t-15.5 124q-36 -40 -78 -76t-99 -74q-27 -55 -52 -91l-28 24l18 29l-50 -29l-14 30q50 38 87 74q4 29 4 63q0 89 -34 174q-30 75 -90 159l107 133
q45 -88 67.5 -173t22.5 -170q0 -34 -2 -58.5t-9 -56.5q75 92 127.5 200.5t91.5 252.5l34 -46l25 38l25 -20l-25 -51l45 -61q-22 -47 -43 -84.5t-46 -74.5q20 -79 40.5 -131t53.5 -103z" />
    <glyph glyph-name="afii10028" unicode="&#x41a;" horiz-adv-x="555" 
d="M552 140l-111 -144q-69 60 -115.5 138t-70.5 176l-30 -9q-2 -27 -3 -54q-6 -66 -21 -123q-21 -81 -57 -131l-112 148q28 41 46 77.5t30 77.5q-23 4 -38 9t-53 22l14 38q51 -23 88 -23q4 22 6 43t2 47q0 56 -14 107.5t-46 100.5l36 24q48 -68 74 -134.5t40 -158.5q5 3 8 4
q12 6 17 11q-3 30 -5 49.5t-2 40.5q0 39 7 96l35 -8v-10.5v-13.5q0 -46 1.5 -70.5t10.5 -45.5q109 103 125 257l123 -111q-53 -135 -216 -229q40 -77 95.5 -125.5t135.5 -75.5z" />
    <glyph glyph-name="afii10029" unicode="&#x41b;" horiz-adv-x="568" 
d="M551 134l-134 -140q0 138 -33 253q-28 98 -89 200q0 -111 -45.5 -224.5t-131.5 -233.5l-109 143q90 71 153 167q72 110 82 219q-17 20 -31.5 35.5t-40.5 38.5l21 30l44 -29l-12 29l33 24q10 -21 21.5 -44.5t11.5 -46.5q218 -178 260 -421z" />
    <glyph glyph-name="afii10030" unicode="&#x41c;" horiz-adv-x="683" 
d="M684 120l-107 -120q-38 57 -56.5 127.5t-18.5 152.5q0 41 5 86.5t14 94.5q-78 -63 -109 -104q-23 -31 -33 -68q20 -70 20 -154q0 -57 -9 -137h-34q0 85 -3.5 126.5t-15.5 77.5q-8 -38 -12 -82t-4 -120h-34q-7 62 -7 114q0 47 5.5 82.5t18.5 82.5q-16 30 -54.5 78.5
t-63.5 69.5q15 -77 15 -142q0 -160 -99 -285l-99 122q116 117 116 301q0 27 -3 56q-11 7 -26 15t-32 17l41 52l-52 76l24 22q22 -26 27 -32.5t24 -35.5l44 57q65 -55 98 -104t73 -148q30 66 85 137q50 65 99 104l44 -48q14 21 24.5 35t26.5 33l24 -22l-52 -76l41 -36
q-20 -10 -30 -17q-5 -4 -14 -9q-1 -13 -1.5 -29t-0.5 -24q0 -96 27.5 -183.5t73.5 -142.5z" />
    <glyph glyph-name="afii10031" unicode="&#x41d;" horiz-adv-x="538" 
d="M541 331q-21 -24 -61 -49t-78 -39q9 -90 19.5 -125.5t45.5 -90.5l-20 -27q-56 59 -83.5 107.5t-41.5 114.5q-8 -1 -13 -1q-29 0 -54 6q-39 9 -68 33q3 -20 3 -44q0 -53 -13.5 -109.5t-38.5 -106.5l-128 120q34 74 56.5 163t22.5 177q0 51 -5.5 90t-20.5 85l18 11
q38 -57 60.5 -124t36.5 -164l44 64q11 -34 50 -62q13 -9 37 -21q0 105 11.5 172t44.5 146l127 -132q-62 -106 -82 -204q33 7 57.5 15t55.5 22z" />
    <glyph glyph-name="afii10032" unicode="&#x41e;" horiz-adv-x="602" 
d="M582 338q0 -198 -213 -305l17 -33q-51 -9 -61 -9q-7 0 -19.5 3t-22.5 5l-62 -17l-11 22l26 11q-105 48 -160.5 134.5t-55.5 182.5q0 83 40 147t140 129l-38 55h75q33 0 52.5 -2t49.5 -11l77 15l5 -23l-32 -11q193 -110 193 -293zM486 291q0 91 -56.5 147.5t-150.5 56.5
l-62 88q-58 -60 -81.5 -106.5t-23.5 -100.5q0 -82 43 -136q48 -60 146 -77l54 -104q74 64 102.5 115.5t28.5 116.5z" />
    <glyph glyph-name="afii10033" unicode="&#x41f;" horiz-adv-x="538" 
d="M510 608q-10 -11 -22 -22t-31 -25l27 -28q-40 -51 -60.5 -121t-20.5 -143q0 -142 64 -242l-20 -27q-60 63 -90 124q-34 69 -41 145t-7 134q0 52 6 96q-26 -4 -40.5 -4.5t-22.5 -0.5q-31 0 -59 6.5t-55 22.5q19 -53 31.5 -108.5t16.5 -102.5t4 -78q0 -132 -52 -234
l-128 120q33 57 56 148.5t23 186.5q0 53 -5.5 93.5t-20.5 86.5l18 11q21 -32 38 -72l68 92q21 -46 51 -70q35 -29 82 -29q9 1 14 1q9 29 10 34q7 23 21 55l62 -65q13 7 33 20q14 9 32 23z" />
    <glyph glyph-name="afii10034" unicode="&#x420;" horiz-adv-x="573" 
d="M556 466q0 -56 -44.5 -109t-122.5 -86l-148 77q12 -54 12 -107q0 -69 -21.5 -128.5t-66.5 -113.5l-100 114q40 53 63.5 123.5t23.5 143.5q0 46 -9 88t-30 83q-15 -15 -29 -33t-37 -54l-30 16q24 41 38.5 61t35.5 42l-43 52l22 26l46 -54q81 63 190 63q103 0 176.5 -61.5
t73.5 -142.5zM407 510q0 50 -37.5 79.5t-100.5 29.5q-64 0 -129 -45q63 -93 92 -196q95 17 135 47t40 85z" />
    <glyph glyph-name="afii10035" unicode="&#x421;" horiz-adv-x="559" 
d="M556 561q-19 -11 -24 -14t-23 -17l28 -40l-33 -23l-33 41q-25 -26 -36.5 -47.5t-25.5 -72.5q-19 26 -28.5 52.5t-9.5 56.5q0 46 24 94q-31 15 -53.5 21.5t-46.5 6.5q-81 0 -137 -70t-56 -172q0 -105 68 -174t172 -69q55 0 97 22t91 78l20 -16l-174 -220l-58 -5
q-129 0 -214 93t-85 234q0 142 79 241t193 99q51 0 127 -34q14 14 25 23q15 12 31 23z" />
    <glyph glyph-name="afii10036" unicode="&#x422;" horiz-adv-x="526" 
d="M542 645q-38 -51 -80.5 -81.5t-130.5 -69.5q20 -51 29 -97.5t9 -94.5q0 -80 -29 -156t-87 -156l-113 119q58 53 93.5 137.5t35.5 166.5q0 32 -6 61q-12 -2 -27 -3t-28 -1q-61 0 -122 22q-36 13 -103 48l88 109q46 -26 81 -39t83 -21l-24 51l33 17q5 -8 24 -38
q15 -23 20 -33q70 0 133 21t98 55z" />
    <glyph glyph-name="afii10037" unicode="&#x423;" horiz-adv-x="464" 
d="M449 288l-6 -31q-12 -4 -24 -4q-7 0 -19 2t-17 2q-31 -75 -88 -148q-44 -57 -112 -120l-97 143q90 39 182 149q-93 29 -155 94q-44 46 -69 106q-8 25 -16 51l131 113q1 -30 3 -60q9 -73 37 -132q38 -81 107 -124q41 62 64.5 133.5t23.5 153.5l36 24q7 -46 7 -98
q0 -68 -10.5 -125t-32.5 -119q12 -4 26 -7t29 -3z" />
    <glyph glyph-name="afii10038" unicode="&#x424;" horiz-adv-x="774" 
d="M757 466q0 -56 -44.5 -109t-122.5 -86l-141 88q3 -32 3 -66q0 -83 -19 -163t-50 -131l-117 114q17 22 42 70q33 63 42 103q-11 -6 -19 -8q-25 -8 -56 -8q-118 0 -187 62q-63 57 -63 142q0 56 44.5 109t122.5 86l148 -95q-92 -17 -131 -53q-35 -33 -35 -91q0 -51 33 -80
t95 -29q29 0 49 10q3 1 8 5q6 32 6 69q0 62 -14 127t-39 123l24 28q10 -15 21 -37q3 -7 9 -19q19 14 34 21q48 22 107 22q103 0 176.5 -61.5t73.5 -142.5zM608 510q0 50 -37.5 79.5t-100.5 29.5q-35 0 -64 -16q-9 -5 -23 -17q21 -39 37.5 -96t24.5 -112q93 17 128 46.5
t35 85.5z" />
    <glyph glyph-name="afii10039" unicode="&#x425;" horiz-adv-x="470" 
d="M466 118l-89 -119q-117 74 -155 208q-33 -81 -94.5 -132.5t-124.5 -51.5q93 77 131 135.5t38 126.5q0 80 -36 139q-42 70 -133 110l97 119q110 -83 138 -200q32 71 73 113.5t121 87.5l15 -21q-86 -50 -131 -123q-41 -67 -41 -140t51.5 -141.5t139.5 -110.5z" />
    <glyph glyph-name="afii10040" unicode="&#x426;" horiz-adv-x="538" 
d="M541 27q-51 -27 -68 -103q-5 -25 -6 -71l-110 42q17 40 47 75q17 19 37 36l-19 21l-22 -21q-33 29 -77 47q-51 21 -103 21q-17 0 -26 -1t-29 -4q-12 -38 -27 -69l-49 46q-30 -13 -63 -33l-29 16q8 6 30 24q17 13 31 22l-48 45q34 74 56.5 163t22.5 177q0 51 -5.5 90
t-20.5 85l18 11q41 -62 75.5 -180t34.5 -218q0 -55 -10 -114q31 9 71.5 13t89.5 4q-13 32 -22 65t-9 65q0 131 11 215.5t43 160.5l127 -132q-51 -88 -67.5 -140t-16.5 -104q0 -60 1.5 -83.5t9.5 -57.5q46 -9 92 -30l-60 -56l16 -27q15 8 34 8q17 0 33 -5q2 0 7 -3z" />
    <glyph glyph-name="afii10041" unicode="&#x427;" horiz-adv-x="544" 
d="M517 318q-12 -23 -29.5 -45t-41.5 -39q18 -78 51 -135l-138 -132q-13 39 -19.5 98.5t-6.5 125.5l-47 -3q-104 0 -173 64t-78 162q-1 7 -1 15.5v12.5q0 52 17.5 104.5t50.5 91.5l145 -77q-37 -39 -53.5 -86t-16.5 -105q5 -55 41 -91q40 -40 101 -40l17 1q0 113 39 220.5
t104 173.5l16 -27q-31 -47 -46.5 -109.5t-15.5 -135.5q0 -20 1 -40.5t4 -39.5q37 28 57 66z" />
    <glyph glyph-name="afii10042" unicode="&#x428;" horiz-adv-x="740" 
d="M707 94l-42 -40q9 -21 21 -39l-20 -27l-33 37l-37 -35q-44 24 -97 41t-115 24q-11 -37 -27 -67l-75 70q-38 0 -77 -9q-13 -3 -33 -10l14 -24l-20 -27l-34 39q-17 -5 -36.5 -13.5t-33.5 -16.5l-29 16q32 26 75 48q-55 85 -74 210q-6 44 -6 90q0 143 56 284l139 -124
q-46 -60 -70.5 -137t-24.5 -157t25 -145q17 10 27 15q32 16 55 21q31 59 52 146.5t21 178.5q0 47 -6 91.5t-20 88.5l18 11q41 -63 71 -165q27 -92 35 -183q3 -33 3 -64q0 -15 -0.5 -27.5t-4.5 -49.5q57 0 90 -2.5t75 -10.5q-11 21 -17 37q-20 50 -26.5 91t-8.5 73t-2 60
q0 81 16 153q13 58 33 99l139 -124q-40 -51 -60.5 -120.5t-20.5 -142.5q0 -77 19 -141q20 -5 35 -10.5t31 -12.5z" />
    <glyph glyph-name="afii10043" unicode="&#x429;" horiz-adv-x="740" 
d="M745 19q-51 -27 -68 -103q-5 -25 -6 -71l-110 42q17 40 47 75q17 19 37 36l-19 21l-30 -29q-44 24 -97 41t-115 24q-11 -37 -27 -67l-75 70q-38 0 -77 -9q-13 -3 -33 -10l14 -24l-20 -27l-34 39q-17 -5 -36.5 -13.5t-33.5 -16.5l-29 16q32 26 75 48q-55 85 -74 210
q-6 44 -6 90q0 143 56 284l139 -124q-46 -60 -70.5 -137t-24.5 -157t25 -145q17 10 27 15q32 16 55 21q31 59 52 146.5t21 178.5q0 47 -6 91.5t-20 88.5l18 11q41 -63 71 -165q27 -92 35 -183q3 -33 3 -64q0 -15 -0.5 -27.5t-4.5 -49.5q57 0 90 -2.5t75 -10.5q-11 21 -17 37
q-20 50 -26.5 91t-8.5 73t-2 60q0 81 16 153q13 58 33 99l139 -124q-40 -51 -60.5 -120.5t-20.5 -142.5q0 -77 19 -141q20 -5 35 -10.5t31 -12.5l-52 -48l16 -27q15 8 34 8q17 0 33 -5q2 0 7 -3z" />
    <glyph glyph-name="afii10044" unicode="&#x42a;" horiz-adv-x="622" 
d="M605 195q0 -67 -47 -119t-142 -81l-156 144q-8 -36 -24 -72t-39 -69l-118 136q40 37 69 91q36 67 36 132q-16 0 -45 -14q-9 -4 -26 -14l-12 35q21 12 54 25q11 4 29 10q2 11 3 27.5t1 29.5q0 56 -15 109q-25 -21 -64 -34q-30 -9 -59 -9q-12 0 -26 2t-28 5l20 136
q18 -9 42.5 -14.5t44.5 -5.5t38 3q-4 10 -13 24q-1 1 -2 4l22 20l29 -39q32 9 55 21q4 2 10 6q-8 -45 -33 -81q32 -62 49 -132q5 -23 11 -59q8 0 30.5 1t28.5 1h19.5t30.5 -4q111 -18 172 -80q55 -56 55 -135zM496 228q0 47 -37.5 83t-102.5 51q-25 6 -45.5 6h-31.5v-22
q0 -66 -1.5 -100t-8.5 -69q27 -19 57.5 -27.5t56.5 -8.5q53 0 83 24t30 63z" />
    <glyph glyph-name="afii10045" unicode="&#x42b;" horiz-adv-x="791" 
d="M767 555q-34 -49 -57 -117t-29 -140q-1 -12 -1.5 -25.5t-0.5 -20.5q0 -65 16.5 -121t46.5 -104l-20 -27q-60 63 -90 124q-34 69 -42 159q-3 29 -3 63q0 93 15 190t38 151zM529 195q0 -67 -47 -119t-142 -81l-156 144q-8 -36 -24 -72t-39 -69l-118 136q40 37 69 91
q36 67 36 132q-16 0 -45 -14q-9 -4 -26 -14l-12 35q21 12 54 25q11 4 29 10q4 30 5 36v21q0 78 -31 156q-10 26 -32 64l22 20q45 -54 77 -128q21 -49 35 -110q4 -23 9 -46q8 0 30.5 1t28.5 1h19.5t30.5 -4q111 -18 172 -80q55 -56 55 -135zM420 228q0 47 -37.5 83t-102.5 51
q-25 6 -45.5 6h-31.5v-22q0 -66 -1.5 -100t-8.5 -69q27 -19 57.5 -27.5t56.5 -8.5q53 0 83 24t30 63z" />
    <glyph glyph-name="afii10046" unicode="&#x42c;" horiz-adv-x="571" 
d="M554 195q0 -67 -47 -119t-142 -81l-156 144q-8 -36 -24 -72t-39 -69l-118 136q40 37 69 91q36 67 36 132q-16 0 -45 -14q-9 -4 -26 -14l-12 35q21 12 54 25q11 4 29 10q4 30 5 36v21q0 78 -31 156q-10 26 -32 64l22 20q45 -54 77 -128q21 -49 35 -110q4 -23 9 -46
q8 0 30.5 1t28.5 1h19.5t30.5 -4q111 -18 172 -80q55 -56 55 -135zM445 228q0 47 -37.5 83t-102.5 51q-25 6 -45.5 6h-31.5v-22q0 -66 -1.5 -100t-8.5 -69q27 -19 57.5 -27.5t56.5 -8.5q53 0 83 24t30 63z" />
    <glyph glyph-name="afii10047" unicode="&#x42d;" horiz-adv-x="559" 
d="M607 298l-28 -16l-11 11q-14 14 -29 25q0 -140 -85.5 -232.5t-213.5 -92.5l-58 5l-174 220l20 16q50 -56 90.5 -78t97.5 -22q96 0 161.5 58.5t76.5 152.5q-36 -3 -76 -31q-27 -19 -65 -57l-103 108q73 61 164 61q39 0 80 -12q-11 89 -64 147t-127 58q-27 0 -45 -5
t-55 -23q24 -49 24 -95q0 -29 -10 -56t-28 -52q-16 55 -25.5 73.5t-36.5 46.5l-33 -41l-33 23l28 40q-8 6 -19.5 14t-27.5 17l82 111q22 -15 29.5 -21t26.5 -25q45 20 70.5 27t56.5 7q102 0 177.5 -80.5t91.5 -205.5q46 -33 71 -76z" />
    <glyph glyph-name="afii10048" unicode="&#x42e;" horiz-adv-x="912" 
d="M864 338q0 -198 -213 -305l17 -33q-51 -9 -61 -9q-7 0 -19.5 3t-22.5 5l-62 -17l-11 22l26 11q-154 71 -200 218q-35 0 -62 13t-53 39q0 -91 -13.5 -162.5t-39.5 -122.5l-128 120q34 74 56.5 163t22.5 177q0 51 -5.5 90t-20.5 85l18 11q41 -61 71.5 -148.5t38.5 -177.5
l41 73q8 -24 22 -38.5t36 -26.5q0 83 40.5 149t139.5 131l-38 55h75q33 0 52.5 -2t49.5 -11l77 15l5 -23l-32 -11q193 -110 193 -293zM768 291q0 91 -56.5 147.5t-150.5 56.5l-62 88q-58 -60 -81.5 -106.5t-23.5 -100.5q0 -13 2 -30.5t5 -32.5q11 2 18 3q41 9 66 25l14 -21
q-25 -28 -40 -41q-20 -17 -34 -24q23 -37 63 -59.5t95 -32.5l54 -104q74 64 102.5 115.5t28.5 116.5z" />
    <glyph glyph-name="afii10049" unicode="&#x42f;" horiz-adv-x="558" 
d="M555 521l-20 -24q-24 22 -44 38q-12 10 -45 35q-13 -64 -13 -124q0 -92 31 -179q24 -66 67 -135l-97 -136q-51 67 -73.5 130.5t-22.5 136.5v27t5 59l-54 -6q-21 -236 -164 -346l-113 152q161 83 216 182l-57 -39q-76 52 -106 94t-30 98q0 77 67 132t161 55q41 0 74 -9.5
t88 -39.5q9 17 15.5 27.5t18.5 28.5l23 -16q-9 -17 -14.5 -29t-11.5 -31q24 -16 47 -35t52 -46zM411 593q-58 25 -122 25q-58 0 -91.5 -27.5t-33.5 -74.5q0 -34 24 -65t68 -54q1 9 2 26.5t1 28.5q0 14 -1 32.5t-4 37.5l28 8q7 -33 8 -73.5t2 -73.5q14 -3 28 -5t26 -3
q11 67 22.5 106t42.5 112z" />
    <glyph glyph-name="afii10065" unicode="&#x430;" horiz-adv-x="519" 
d="M523 132l-100 -146q-61 88 -94 200l-86 76q-19 -119 -61 -187q-47 -77 -112 -77q-44 0 -72 27t-28 69q0 40 23.5 67.5t57.5 27.5q22 0 38 -8t39 -31q22 26 37 70t23 93l-96 86l31 44l75 -65v42v14v11q0 40 -8 83q-23 11 -46 30.5t-68 67.5l16 13q18 -8 35.5 -15t35.5 -10
q-5 25 -25 47l32 24q10 -14 20.5 -32.5t19.5 -38.5q36 0 61.5 15t66.5 57l93 -114q-17 -16 -23 -21q-2 -2 -19 -13l18 -7q-24 -69 -24 -128q0 -75 38 -145q34 -63 102 -126zM362 525q-38 -15 -78 -15q-18 0 -44 3q14 -65 14 -126q0 -27 -3 -57l59 -51q0 86 9.5 139t42.5 107
z" />
    <glyph glyph-name="afii10066" unicode="&#x431;" horiz-adv-x="571" 
d="M554 195q0 -67 -47 -119t-142 -81l-156 144q-8 -36 -24 -72t-39 -69l-118 136q40 37 69 91q36 67 36 132q-16 0 -45 -14q-9 -4 -26 -14l-12 35q21 12 54 25q11 4 29 10q3 30 3 56q0 43 -10 99q-26 13 -63 44.5t-70 68.5l20 20q54 -50 95 -72q-8 20 -11.5 26.5t-21.5 34.5
l22 20q24 -32 38.5 -54.5t26.5 -45.5q16 -4 44 -4q63 0 120 22q67 26 91 71l103 -137q-46 -24 -98 -35.5t-105 -11.5q-68 0 -125 19q6 -18 17 -66q3 -15 9 -42q8 0 30.5 1t28.5 1h19.5t30.5 -4q111 -18 172 -80q55 -56 55 -135zM445 228q0 47 -37.5 83t-102.5 51
q-25 6 -45.5 6h-31.5v-22q0 -66 -1.5 -100t-8.5 -69q27 -19 57.5 -27.5t56.5 -8.5q53 0 83 24t30 63z" />
    <glyph glyph-name="afii10067" unicode="&#x432;" horiz-adv-x="571" 
d="M554 195q0 -67 -47 -119t-142 -81l-158 146q-21 -58 -29 -77.5t-31 -66.5l-110 124q41 65 61.5 135t20.5 139q0 92 -36 170q-8 -5 -21 -15q-7 -6 -29 -23l-23 20q18 22 29.5 35t21.5 22q-7 10 -14.5 19t-20.5 24l30 28l40 -46q78 43 181 43q109 0 173 -50t64 -136
q0 -75 -59 -125q56 -39 79 -81q20 -36 20 -85zM386 517q0 41 -44 69t-110 28q-59 0 -108 -24q46 -71 70 -155l59 -4q55 0 94 25t39 61zM232 392l-34 29l9 -41zM457 245q0 45 -44 88q-12 -6 -33.5 -13.5t-47.5 -14.5l-57 49l-61 -25q0 -21 1.5 -64t1.5 -45v-29q-2 -11 -2 -15
q49 -23 68.5 -29t48.5 -6q54 0 89.5 29.5t35.5 74.5z" />
    <glyph glyph-name="afii10068" unicode="&#x433;" horiz-adv-x="500" 
d="M523 549q-104 -50 -194 -50q-79 0 -173 38q-16 -60 -16 -118q0 -164 135 -290l-107 -138q-50 61 -74 134t-24 155q0 66 13.5 133t40.5 139q-19 8 -46 25t-61 43l23 26q35 -22 55.5 -32.5t44.5 -18.5l22 49l22 -10l-14 -47q42 -9 73 -9q42 0 81.5 17.5t101.5 60.5z" />
    <glyph glyph-name="afii10069" unicode="&#x434;" horiz-adv-x="547" 
d="M530 341q0 -96 -39 -176q-43 -87 -136 -161l-154 158q0 -23 -19 -72q-27 -63 -42 -102l-123 126q54 85 80.5 163t26.5 145q0 83 -37 154q-11 -9 -21.5 -18.5t-26.5 -25.5l-22 18q16 20 26 31t26 25l-26 32l23 30l34 -37q57 37 121 37q124 0 216.5 -99.5t92.5 -227.5z
M415 368q0 100 -53 178q-58 85 -146 85q-43 0 -90 -29q93 -129 93 -283q0 -51 -9 -108q35 -18 65 -18q62 0 101 52t39 123z" />
    <glyph glyph-name="afii10070" unicode="&#x435;" horiz-adv-x="581" 
d="M578 173l-112 -165q-29 -5 -47 -7t-34 -2q-151 0 -227.5 82t-76.5 229v20q-17 -12 -33 -31q-5 -6 -13 -17l-28 16q27 48 79 89q4 36 14.5 68.5t40.5 98.5q-23 13 -44 26t-58 38l21 23q45 -24 107 -36l29 40l24 -19l-17 -26q39 -3 70 -3q61 0 104 13.5t89 46.5l100 -110
q-95 -56 -194 -56q-90 0 -199 47q-23 -61 -23 -122q60 15 101 15q76 0 153 -66l-103 -108q-72 71 -144 83q25 -105 92 -157q62 -48 157 -48q38 0 74.5 8t97.5 30z" />
    <glyph glyph-name="afii10072" unicode="&#x436;" horiz-adv-x="824" 
d="M814 140l-111 -144q-69 60 -115.5 138t-70.5 176q-5 -3 -8 -4q-12 -5 -22 -5q0 -54 -18 -128t-44 -119l-33 20q12 38 18 80t6 77q0 13 -0.5 24.5t-4.5 45.5q-15 0 -32.5 2.5t-33.5 6.5q-24 -98 -84.5 -179.5t-145.5 -134.5l-111 144q87 20 157 71q74 54 114 130
q-65 29 -133 95q-72 70 -97 134l123 111q9 -86 69 -180q68 -107 164 -153q-7 42 -31 87q-28 51 -70 91l101 108q44 -54 67 -139q19 -70 19 -137q6 0 34 31q39 43 67 104q39 85 48 188l123 -111q-28 -72 -73 -132q-48 -65 -103 -97q40 -77 95.5 -125.5t135.5 -75.5z" />
    <glyph glyph-name="afii10073" unicode="&#x437;" 
d="M456 221q0 -88 -57 -153q-62 -71 -161 -71q-74 0 -124.5 31t-88.5 105l84 100q16 -62 49.5 -91t79.5 -29q53 0 92 46t39 110q0 30 -14 59l-57 -41l-118 95q30 0 46 4t43 18q-17 9 -30.5 13t-57.5 12l1 32q15 -2 25 -4q61 -12 96 -30q18 20 25 38.5t7 48.5
q0 51 -27.5 80.5t-81.5 29.5q-20 0 -42 -8.5t-34 -19.5q18 -39 18 -69q0 -23 -8.5 -43.5t-25.5 -44.5q-12 42 -20.5 59t-28.5 37l-27 -32l-26 18l22 32q-7 6 -16 12t-21 13l65 89q18 -12 24.5 -17.5t20.5 -19.5q31 20 55 30q35 14 75 14q86 0 141 -55q52 -52 52 -127
q0 -66 -53 -127q59 -62 59 -144z" />
    <glyph glyph-name="afii10074" unicode="&#x438;" horiz-adv-x="534" 
d="M517 119l-117 -128q-30 62 -45.5 126t-15.5 124q-36 -40 -78 -76t-99 -74q-27 -55 -52 -91l-28 24l18 29l-50 -29l-14 30q50 38 87 74q4 29 4 63q0 89 -34 174q-30 75 -90 159l107 133q45 -88 67.5 -173t22.5 -170q0 -34 -2 -58.5t-9 -56.5q75 92 127.5 200.5t91.5 252.5
l34 -46l25 38l25 -20l-25 -51l45 -61q-22 -47 -43 -84.5t-46 -74.5q20 -79 40.5 -131t53.5 -103z" />
    <glyph glyph-name="afii10075" unicode="&#x439;" horiz-adv-x="534" 
d="M310 686q0 -53 -31 -147l-38 18l2 45q0 64 -24 133l60 71q31 -52 31 -120zM517 119l-117 -128q-30 62 -45.5 126t-15.5 124q-36 -40 -78 -76t-99 -74q-27 -55 -52 -91l-28 24l18 29l-50 -29l-14 30q50 38 87 74q4 29 4 63q0 89 -34 174q-30 75 -90 159l107 133
q45 -88 67.5 -173t22.5 -170q0 -34 -2 -58.5t-9 -56.5q75 92 127.5 200.5t91.5 252.5l34 -46l25 38l25 -20l-25 -51l45 -61q-22 -47 -43 -84.5t-46 -74.5q20 -79 40.5 -131t53.5 -103z" />
    <glyph glyph-name="afii10076" unicode="&#x43a;" horiz-adv-x="555" 
d="M552 140l-111 -144q-69 60 -115.5 138t-70.5 176l-30 -9q-2 -27 -3 -54q-6 -66 -21 -123q-21 -81 -57 -131l-112 148q28 41 46 77.5t30 77.5q-23 4 -38 9t-53 22l14 38q51 -23 88 -23q4 22 6 43t2 47q0 56 -14 107.5t-46 100.5l36 24q48 -68 74 -134.5t40 -158.5q5 3 8 4
q12 6 17 11q-3 30 -5 49.5t-2 40.5q0 39 7 96l35 -8v-10.5v-13.5q0 -46 1.5 -70.5t10.5 -45.5q109 103 125 257l123 -111q-53 -135 -216 -229q40 -77 95.5 -125.5t135.5 -75.5z" />
    <glyph glyph-name="afii10077" unicode="&#x43b;" horiz-adv-x="568" 
d="M551 134l-134 -140q0 138 -33 253q-28 98 -89 200q0 -111 -45.5 -224.5t-131.5 -233.5l-109 143q90 71 153 167q72 110 82 219q-17 20 -31.5 35.5t-40.5 38.5l21 30l44 -29l-12 29l33 24q10 -21 21.5 -44.5t11.5 -46.5q218 -178 260 -421z" />
    <glyph glyph-name="afii10078" unicode="&#x43c;" horiz-adv-x="683" 
d="M684 120l-107 -120q-38 57 -56.5 127.5t-18.5 152.5q0 41 5 86.5t14 94.5q-78 -63 -109 -104q-23 -31 -33 -68q20 -70 20 -154q0 -57 -9 -137h-34q0 85 -3.5 126.5t-15.5 77.5q-8 -38 -12 -82t-4 -120h-34q-7 62 -7 114q0 47 5.5 82.5t18.5 82.5q-16 30 -54.5 78.5
t-63.5 69.5q15 -77 15 -142q0 -160 -99 -285l-99 122q116 117 116 301q0 27 -3 56q-11 7 -26 15t-32 17l41 52l-52 76l24 22q22 -26 27 -32.5t24 -35.5l44 57q65 -55 98 -104t73 -148q30 66 85 137q50 65 99 104l44 -48q14 21 24.5 35t26.5 33l24 -22l-52 -76l41 -36
q-20 -10 -30 -17q-5 -4 -14 -9q-1 -13 -1.5 -29t-0.5 -24q0 -96 27.5 -183.5t73.5 -142.5z" />
    <glyph glyph-name="afii10079" unicode="&#x43d;" horiz-adv-x="538" 
d="M541 331q-21 -24 -61 -49t-78 -39q9 -90 19.5 -125.5t45.5 -90.5l-20 -27q-56 59 -83.5 107.5t-41.5 114.5q-8 -1 -13 -1q-29 0 -54 6q-39 9 -68 33q3 -20 3 -44q0 -53 -13.5 -109.5t-38.5 -106.5l-128 120q34 74 56.5 163t22.5 177q0 51 -5.5 90t-20.5 85l18 11
q38 -57 60.5 -124t36.5 -164l44 64q11 -34 50 -62q13 -9 37 -21q0 105 11.5 172t44.5 146l127 -132q-62 -106 -82 -204q33 7 57.5 15t55.5 22z" />
    <glyph glyph-name="afii10080" unicode="&#x43e;" horiz-adv-x="602" 
d="M582 338q0 -198 -213 -305l17 -33q-51 -9 -61 -9q-7 0 -19.5 3t-22.5 5l-62 -17l-11 22l26 11q-105 48 -160.5 134.5t-55.5 182.5q0 83 40 147t140 129l-38 55h75q33 0 52.5 -2t49.5 -11l77 15l5 -23l-32 -11q193 -110 193 -293zM486 291q0 91 -56.5 147.5t-150.5 56.5
l-62 88q-58 -60 -81.5 -106.5t-23.5 -100.5q0 -82 43 -136q48 -60 146 -77l54 -104q74 64 102.5 115.5t28.5 116.5z" />
    <glyph glyph-name="afii10081" unicode="&#x43f;" horiz-adv-x="538" 
d="M510 608q-10 -11 -22 -22t-31 -25l27 -28q-40 -51 -60.5 -121t-20.5 -143q0 -142 64 -242l-20 -27q-60 63 -90 124q-34 69 -41 145t-7 134q0 52 6 96q-26 -4 -40.5 -4.5t-22.5 -0.5q-31 0 -59 6.5t-55 22.5q19 -53 31.5 -108.5t16.5 -102.5t4 -78q0 -132 -52 -234
l-128 120q33 57 56 148.5t23 186.5q0 53 -5.5 93.5t-20.5 86.5l18 11q21 -32 38 -72l68 92q21 -46 51 -70q35 -29 82 -29q9 1 14 1q9 29 10 34q7 23 21 55l62 -65q13 7 33 20q14 9 32 23z" />
    <glyph glyph-name="afii10082" unicode="&#x440;" horiz-adv-x="573" 
d="M556 466q0 -56 -44.5 -109t-122.5 -86l-148 77q12 -54 12 -107q0 -69 -21.5 -128.5t-66.5 -113.5l-100 114q40 53 63.5 123.5t23.5 143.5q0 46 -9 88t-30 83q-15 -15 -29 -33t-37 -54l-30 16q24 41 38.5 61t35.5 42l-43 52l22 26l46 -54q81 63 190 63q103 0 176.5 -61.5
t73.5 -142.5zM407 510q0 50 -37.5 79.5t-100.5 29.5q-64 0 -129 -45q63 -93 92 -196q95 17 135 47t40 85z" />
    <glyph glyph-name="afii10083" unicode="&#x441;" horiz-adv-x="559" 
d="M556 561q-19 -11 -24 -14t-23 -17l28 -40l-33 -23l-33 41q-25 -26 -36.5 -47.5t-25.5 -72.5q-19 26 -28.5 52.5t-9.5 56.5q0 46 24 94q-31 15 -53.5 21.5t-46.5 6.5q-81 0 -137 -70t-56 -172q0 -105 68 -174t172 -69q55 0 97 22t91 78l20 -16l-174 -220l-58 -5
q-129 0 -214 93t-85 234q0 142 79 241t193 99q51 0 127 -34q14 14 25 23q15 12 31 23z" />
    <glyph glyph-name="afii10084" unicode="&#x442;" horiz-adv-x="526" 
d="M542 645q-38 -51 -80.5 -81.5t-130.5 -69.5q20 -51 29 -97.5t9 -94.5q0 -80 -29 -156t-87 -156l-113 119q58 53 93.5 137.5t35.5 166.5q0 32 -6 61q-12 -2 -27 -3t-28 -1q-61 0 -122 22q-36 13 -103 48l88 109q46 -26 81 -39t83 -21l-24 51l33 17q5 -8 24 -38
q15 -23 20 -33q70 0 133 21t98 55z" />
    <glyph glyph-name="afii10085" unicode="&#x443;" horiz-adv-x="464" 
d="M449 288l-6 -31q-12 -4 -24 -4q-7 0 -19 2t-17 2q-31 -75 -88 -148q-44 -57 -112 -120l-97 143q90 39 182 149q-93 29 -155 94q-44 46 -69 106q-8 25 -16 51l131 113q1 -30 3 -60q9 -73 37 -132q38 -81 107 -124q41 62 64.5 133.5t23.5 153.5l36 24q7 -46 7 -98
q0 -68 -10.5 -125t-32.5 -119q12 -4 26 -7t29 -3z" />
    <glyph glyph-name="afii10086" unicode="&#x444;" horiz-adv-x="774" 
d="M757 466q0 -56 -44.5 -109t-122.5 -86l-141 88q3 -32 3 -66q0 -83 -19 -163t-50 -131l-117 114q17 22 42 70q33 63 42 103q-11 -6 -19 -8q-25 -8 -56 -8q-118 0 -187 62q-63 57 -63 142q0 56 44.5 109t122.5 86l148 -95q-92 -17 -131 -53q-35 -33 -35 -91q0 -51 33 -80
t95 -29q29 0 49 10q3 1 8 5q6 32 6 69q0 62 -14 127t-39 123l24 28q10 -15 21 -37q3 -7 9 -19q19 14 34 21q48 22 107 22q103 0 176.5 -61.5t73.5 -142.5zM608 510q0 50 -37.5 79.5t-100.5 29.5q-35 0 -64 -16q-9 -5 -23 -17q21 -39 37.5 -96t24.5 -112q93 17 128 46.5
t35 85.5z" />
    <glyph glyph-name="afii10087" unicode="&#x445;" horiz-adv-x="470" 
d="M466 118l-89 -119q-117 74 -155 208q-33 -81 -94.5 -132.5t-124.5 -51.5q93 77 131 135.5t38 126.5q0 80 -36 139q-42 70 -133 110l97 119q110 -83 138 -200q32 71 73 113.5t121 87.5l15 -21q-86 -50 -131 -123q-41 -67 -41 -140t51.5 -141.5t139.5 -110.5z" />
    <glyph glyph-name="afii10088" unicode="&#x446;" horiz-adv-x="538" 
d="M541 27q-51 -27 -68 -103q-5 -25 -6 -71l-110 42q17 40 47 75q17 19 37 36l-19 21l-22 -21q-33 29 -77 47q-51 21 -103 21q-17 0 -26 -1t-29 -4q-12 -38 -27 -69l-49 46q-30 -13 -63 -33l-29 16q8 6 30 24q17 13 31 22l-48 45q34 74 56.5 163t22.5 177q0 51 -5.5 90
t-20.5 85l18 11q41 -62 75.5 -180t34.5 -218q0 -55 -10 -114q31 9 71.5 13t89.5 4q-13 32 -22 65t-9 65q0 131 11 215.5t43 160.5l127 -132q-51 -88 -67.5 -140t-16.5 -104q0 -60 1.5 -83.5t9.5 -57.5q46 -9 92 -30l-60 -56l16 -27q15 8 34 8q17 0 33 -5q2 0 7 -3z" />
    <glyph glyph-name="afii10089" unicode="&#x447;" horiz-adv-x="544" 
d="M517 318q-12 -23 -29.5 -45t-41.5 -39q18 -78 51 -135l-138 -132q-13 39 -19.5 98.5t-6.5 125.5l-47 -3q-104 0 -173 64t-78 162q-1 7 -1 15.5v12.5q0 52 17.5 104.5t50.5 91.5l145 -77q-37 -39 -53.5 -86t-16.5 -105q5 -55 41 -91q40 -40 101 -40l17 1q0 113 39 220.5
t104 173.5l16 -27q-31 -47 -46.5 -109.5t-15.5 -135.5q0 -20 1 -40.5t4 -39.5q37 28 57 66z" />
    <glyph glyph-name="afii10090" unicode="&#x448;" horiz-adv-x="740" 
d="M707 94l-42 -40q9 -21 21 -39l-20 -27l-33 37l-37 -35q-44 24 -97 41t-115 24q-11 -37 -27 -67l-75 70q-38 0 -77 -9q-13 -3 -33 -10l14 -24l-20 -27l-34 39q-17 -5 -36.5 -13.5t-33.5 -16.5l-29 16q32 26 75 48q-55 85 -74 210q-6 44 -6 90q0 143 56 284l139 -124
q-46 -60 -70.5 -137t-24.5 -157t25 -145q17 10 27 15q32 16 55 21q31 59 52 146.5t21 178.5q0 47 -6 91.5t-20 88.5l18 11q41 -63 71 -165q27 -92 35 -183q3 -33 3 -64q0 -15 -0.5 -27.5t-4.5 -49.5q57 0 90 -2.5t75 -10.5q-11 21 -17 37q-20 50 -26.5 91t-8.5 73t-2 60
q0 81 16 153q13 58 33 99l139 -124q-40 -51 -60.5 -120.5t-20.5 -142.5q0 -77 19 -141q20 -5 35 -10.5t31 -12.5z" />
    <glyph glyph-name="afii10091" unicode="&#x449;" horiz-adv-x="740" 
d="M745 19q-51 -27 -68 -103q-5 -25 -6 -71l-110 42q17 40 47 75q17 19 37 36l-19 21l-30 -29q-44 24 -97 41t-115 24q-11 -37 -27 -67l-75 70q-38 0 -77 -9q-13 -3 -33 -10l14 -24l-20 -27l-34 39q-17 -5 -36.5 -13.5t-33.5 -16.5l-29 16q32 26 75 48q-55 85 -74 210
q-6 44 -6 90q0 143 56 284l139 -124q-46 -60 -70.5 -137t-24.5 -157t25 -145q17 10 27 15q32 16 55 21q31 59 52 146.5t21 178.5q0 47 -6 91.5t-20 88.5l18 11q41 -63 71 -165q27 -92 35 -183q3 -33 3 -64q0 -15 -0.5 -27.5t-4.5 -49.5q57 0 90 -2.5t75 -10.5q-11 21 -17 37
q-20 50 -26.5 91t-8.5 73t-2 60q0 81 16 153q13 58 33 99l139 -124q-40 -51 -60.5 -120.5t-20.5 -142.5q0 -77 19 -141q20 -5 35 -10.5t31 -12.5l-52 -48l16 -27q15 8 34 8q17 0 33 -5q2 0 7 -3z" />
    <glyph glyph-name="afii10092" unicode="&#x44a;" horiz-adv-x="622" 
d="M605 195q0 -67 -47 -119t-142 -81l-156 144q-8 -36 -24 -72t-39 -69l-118 136q40 37 69 91q36 67 36 132q-16 0 -45 -14q-9 -4 -26 -14l-12 35q21 12 54 25q11 4 29 10q2 11 3 27.5t1 29.5q0 56 -15 109q-25 -21 -64 -34q-30 -9 -59 -9q-12 0 -26 2t-28 5l20 136
q18 -9 42.5 -14.5t44.5 -5.5t38 3q-4 10 -13 24q-1 1 -2 4l22 20l29 -39q32 9 55 21q4 2 10 6q-8 -45 -33 -81q32 -62 49 -132q5 -23 11 -59q8 0 30.5 1t28.5 1h19.5t30.5 -4q111 -18 172 -80q55 -56 55 -135zM496 228q0 47 -37.5 83t-102.5 51q-25 6 -45.5 6h-31.5v-22
q0 -66 -1.5 -100t-8.5 -69q27 -19 57.5 -27.5t56.5 -8.5q53 0 83 24t30 63z" />
    <glyph glyph-name="afii10093" unicode="&#x44b;" horiz-adv-x="791" 
d="M767 555q-34 -49 -57 -117t-29 -140q-1 -12 -1.5 -25.5t-0.5 -20.5q0 -65 16.5 -121t46.5 -104l-20 -27q-60 63 -90 124q-34 69 -42 159q-3 29 -3 63q0 93 15 190t38 151zM529 195q0 -67 -47 -119t-142 -81l-156 144q-8 -36 -24 -72t-39 -69l-118 136q40 37 69 91
q36 67 36 132q-16 0 -45 -14q-9 -4 -26 -14l-12 35q21 12 54 25q11 4 29 10q4 30 5 36v21q0 78 -31 156q-10 26 -32 64l22 20q45 -54 77 -128q21 -49 35 -110q4 -23 9 -46q8 0 30.5 1t28.5 1h19.5t30.5 -4q111 -18 172 -80q55 -56 55 -135zM420 228q0 47 -37.5 83t-102.5 51
q-25 6 -45.5 6h-31.5v-22q0 -66 -1.5 -100t-8.5 -69q27 -19 57.5 -27.5t56.5 -8.5q53 0 83 24t30 63z" />
    <glyph glyph-name="afii10094" unicode="&#x44c;" horiz-adv-x="571" 
d="M554 195q0 -67 -47 -119t-142 -81l-156 144q-8 -36 -24 -72t-39 -69l-118 136q40 37 69 91q36 67 36 132q-16 0 -45 -14q-9 -4 -26 -14l-12 35q21 12 54 25q11 4 29 10q4 30 5 36v21q0 78 -31 156q-10 26 -32 64l22 20q45 -54 77 -128q21 -49 35 -110q4 -23 9 -46
q8 0 30.5 1t28.5 1h19.5t30.5 -4q111 -18 172 -80q55 -56 55 -135zM445 228q0 47 -37.5 83t-102.5 51q-25 6 -45.5 6h-31.5v-22q0 -66 -1.5 -100t-8.5 -69q27 -19 57.5 -27.5t56.5 -8.5q53 0 83 24t30 63z" />
    <glyph glyph-name="afii10095" unicode="&#x44d;" horiz-adv-x="559" 
d="M607 298l-28 -16l-11 11q-14 14 -29 25q0 -140 -85.5 -232.5t-213.5 -92.5l-58 5l-174 220l20 16q50 -56 90.5 -78t97.5 -22q96 0 161.5 58.5t76.5 152.5q-36 -3 -76 -31q-27 -19 -65 -57l-103 108q73 61 164 61q39 0 80 -12q-11 89 -64 147t-127 58q-27 0 -45 -5
t-55 -23q24 -49 24 -95q0 -29 -10 -56t-28 -52q-16 55 -25.5 73.5t-36.5 46.5l-33 -41l-33 23l28 40q-8 6 -19.5 14t-27.5 17l82 111q22 -15 29.5 -21t26.5 -25q45 20 70.5 27t56.5 7q102 0 177.5 -80.5t91.5 -205.5q46 -33 71 -76z" />
    <glyph glyph-name="afii10096" unicode="&#x44e;" horiz-adv-x="912" 
d="M864 338q0 -198 -213 -305l17 -33q-51 -9 -61 -9q-7 0 -19.5 3t-22.5 5l-62 -17l-11 22l26 11q-154 71 -200 218q-35 0 -62 13t-53 39q0 -91 -13.5 -162.5t-39.5 -122.5l-128 120q34 74 56.5 163t22.5 177q0 51 -5.5 90t-20.5 85l18 11q41 -61 71.5 -148.5t38.5 -177.5
l41 73q8 -24 22 -38.5t36 -26.5q0 83 40.5 149t139.5 131l-38 55h75q33 0 52.5 -2t49.5 -11l77 15l5 -23l-32 -11q193 -110 193 -293zM768 291q0 91 -56.5 147.5t-150.5 56.5l-62 88q-58 -60 -81.5 -106.5t-23.5 -100.5q0 -13 2 -30.5t5 -32.5q11 2 18 3q41 9 66 25l14 -21
q-25 -28 -40 -41q-20 -17 -34 -24q23 -37 63 -59.5t95 -32.5l54 -104q74 64 102.5 115.5t28.5 116.5z" />
    <glyph glyph-name="afii10097" unicode="&#x44f;" horiz-adv-x="558" 
d="M555 521l-20 -24q-24 22 -44 38q-12 10 -45 35q-13 -64 -13 -124q0 -92 31 -179q24 -66 67 -135l-97 -136q-51 67 -73.5 130.5t-22.5 136.5v27t5 59l-54 -6q-21 -236 -164 -346l-113 152q161 83 216 182l-57 -39q-76 52 -106 94t-30 98q0 77 67 132t161 55q41 0 74 -9.5
t88 -39.5q9 17 15.5 27.5t18.5 28.5l23 -16q-9 -17 -14.5 -29t-11.5 -31q24 -16 47 -35t52 -46zM411 593q-58 25 -122 25q-58 0 -91.5 -27.5t-33.5 -74.5q0 -34 24 -65t68 -54q1 9 2 26.5t1 28.5q0 14 -1 32.5t-4 37.5l28 8q7 -33 8 -73.5t2 -73.5q14 -3 28 -5t26 -3
q11 67 22.5 106t42.5 112z" />
    <glyph glyph-name="afii10071" unicode="&#x451;" horiz-adv-x="581" 
d="M466 657l100 -110q-91 -53 -197 -53q-95 0 -196 44q-23 -61 -23 -122q44 11 86 11q54 0 90 -13.5t78 -48.5l-103 -108q-72 71 -144 83q10 -42 21 -65t34 -51q75 -89 194 -89q38 0 74.5 8t97.5 30l-112 -165q-29 -5 -47 -7t-34 -2q-73 0 -134.5 23t-98.5 65
q-71 80 -71 223v20q-11 -7 -16 -11.5t-18 -21.5l-12 -15l-28 16q27 48 79 89q4 36 14.5 68.5t40.5 98.5q-23 13 -44 26t-58 38l21 23q45 -24 107 -36l29 40l24 -19l-17 -26l57 -3q68 0 113.5 13t92.5 47zM193 881l91 -85l-91 -91l-90 85zM387 881l92 -85l-92 -91l-89 85z
" />
    <glyph glyph-name="endash" unicode="&#x2013;" 
d="M337 363l112 -94q-83 -49 -188 -49q-49 0 -95.5 9.5t-134.5 39.5l29 58l70 -2q59 0 103.5 8t103.5 30z" />
    <glyph glyph-name="emdash" unicode="&#x2014;" horiz-adv-x="669" 
d="M549 363l120 -94q-150 -49 -328 -49q-80 0 -145 10.5t-196 45.5l21 58q74 -8 133.5 -12t105.5 -4q95 0 154.5 9t134.5 36z" />
    <glyph glyph-name="quoteleft" unicode="&#x2018;" horiz-adv-x="189" 
d="M170 477l-92 -90q-59 53 -59 115q0 42 19 79.5t70 98.5l25 -23q-16 -45 -16 -72q0 -33 11.5 -56.5t41.5 -51.5z" />
    <glyph glyph-name="quoteright" unicode="&#x2019;" horiz-adv-x="205" 
d="M33 597l84 82q55 -48 55 -106q0 -37 -18.5 -73.5t-63.5 -89.5l-23 21q9 23 12 36.5t3 29.5q0 29 -11 52.5t-38 47.5z" />
    <glyph glyph-name="quotesinglbase" unicode="&#x201a;" horiz-adv-x="205" 
d="M33 63l84 82q55 -48 55 -106q0 -37 -18.5 -73.5t-63.5 -89.5l-23 22q8 22 11.5 36t3.5 29q0 29 -11 52.5t-38 47.5z" />
    <glyph glyph-name="quotedblleft" unicode="&#x201c;" horiz-adv-x="380" 
d="M360 477l-91 -90q-60 53 -60 115q0 42 19 79.5t70 98.5l25 -23q-16 -45 -16 -72q0 -33 11.5 -56.5t41.5 -51.5zM171 477l-92 -90q-59 53 -59 115q0 42 19 79.5t70 98.5l25 -23q-16 -45 -16 -72q0 -33 11.5 -56.5t41.5 -51.5z" />
    <glyph glyph-name="quotedblright" unicode="&#x201d;" horiz-adv-x="380" 
d="M20 591l92 89q59 -52 59 -115q0 -41 -19 -79t-70 -99l-25 24q16 45 16 72q0 33 -11.5 56.5t-41.5 51.5zM209 591l92 89q59 -51 59 -115q0 -41 -19 -79t-69 -99l-25 24q15 46 15 72q0 33 -11.5 56.5t-41.5 51.5z" />
    <glyph glyph-name="quotedblbase" unicode="&#x201e;" horiz-adv-x="380" 
d="M20 57l92 90q59 -53 59 -115q0 -42 -19 -79.5t-70 -98.5l-25 23q16 45 16 72q0 59 -53 108zM209 57l92 90q59 -52 59 -115q0 -42 -18.5 -79.5t-69.5 -98.5l-25 23q15 46 15 72q0 59 -53 108z" />
    <glyph glyph-name="dagger" unicode="&#x2020;" 
d="M425 490l6 -16q-60 -36 -89 -48t-77 -20q0 -80 10 -133t44 -153l-125 -120q-23 54 -32 99.5t-9 108.5q0 50 6 94.5t21 99.5q-41 0 -74.5 5t-75.5 16l73 104q37 -26 55 -36.5t43 -20.5q37 101 88 172l21 -13q-20 -46 -27 -67q-16 -48 -16 -106l22 -1q40 0 62 5.5t74 29.5z
" />
    <glyph glyph-name="daggerdbl" unicode="&#x2021;" 
d="M10 192l80 115q16 -11 36.5 -24.5t29.5 -18.5q0 35 7 71q4 20 17 67q-41 0 -74.5 5t-75.5 16l73 104q31 -22 53.5 -35t44.5 -22q36 99 88 172l21 -13q-20 -46 -27 -67q-16 -48 -16 -106l22 -1q40 0 62 5.5t74 29.5l6 -16q-58 -36 -89 -48.5t-77 -19.5q0 -98 21 -178h10
q41 0 68.5 7t80.5 31l6 -18q-54 -33 -84.5 -47t-66.5 -22l19 -59l-125 -120q-21 47 -30 83t-9 87q-58 5 -79 8t-66 14z" />
    <glyph glyph-name="bullet" unicode="&#x2022;" horiz-adv-x="667" 
d="M337 477q56 0 96 -41t40 -97q0 -58 -40.5 -98.5t-97.5 -40.5t-98 40t-41 98q0 59 41 99t100 40z" />
    <glyph glyph-name="ellipsis" unicode="&#x2026;" horiz-adv-x="752" 
d="M122 179l102 -96l-98 -98l-103 98zM373 179l102 -96l-98 -98l-103 98zM623 179l102 -96l-98 -98l-102 98z" />
    <glyph glyph-name="perthousand" unicode="&#x2030;" horiz-adv-x="904" 
d="M177 332l8 -17l-30 -5l-20 3q-7 -3 -18 -5.5t-21 -3.5l-7 17l17 5q-43 27 -66 69t-23 93q0 41 18 73.5t60 66.5l-18 30l33 2q26 0 50 -8q22 6 46 8l3 -19l-19 -4q79 -55 79 -148q0 -102 -92 -157zM151 396l17 -43q27 28 39.5 54.5t12.5 57.5q0 58 -39 84q-15 11 -57 23
l-18 36q-22 -27 -32 -50.5t-10 -48.5q0 -22 8 -44.5t22 -36.5t57 -32zM192 -19l-13 118q78 147 129 293t66 268h18q0 -161 -59.5 -355t-140.5 -324zM502 19l8 -18l-30 -4l-19 2q-2 -1 -13.5 -4t-25.5 -4l-8 17l17 4q-43 27 -66 69t-23 94q0 77 78 139l-18 30l34 2
q26 0 49 -8q11 3 22 5t24 3l4 -18l-20 -5q80 -54 80 -147q0 -102 -93 -157zM477 83l16 -43q53 54 53 112q0 57 -40 84q-10 6 -22.5 11.5t-33.5 11.5l-19 35q-22 -26 -32 -50t-10 -49q0 -22 8 -44t21.5 -36t58.5 -32zM796 19l8 -18l-31 -4l-19 2q-2 -1 -13.5 -4t-25.5 -4
l-7 17l16 4q-88 57 -88 163q0 76 77 139l-17 30l33 2q26 0 50 -8q10 3 22 5t24 3l3 -18l-19 -5q79 -55 79 -147q0 -103 -92 -157zM770 83l17 -43q27 28 39.5 54.5t12.5 57.5q0 56 -39 84q-10 6 -23.5 11.5t-33.5 11.5l-18 35q-22 -26 -32 -50t-10 -49q0 -22 8 -44t22 -36.5
t57 -31.5z" />
    <glyph glyph-name="guilsinglleft" unicode="&#x2039;" horiz-adv-x="246" 
d="M175 443l30 -28q-23 -39 -37 -58t-36 -40q59 -84 77 -199l-36 -12q-35 149 -150 209q57 25 90 52t62 76z" />
    <glyph glyph-name="guilsinglright" unicode="&#x203a;" horiz-adv-x="246" 
d="M41 415l30 28q29 -48 61.5 -75.5t90.5 -52.5q-115 -60 -149 -209l-37 12q18 116 78 199q-23 22 -37 40t-37 58z" />
    <glyph glyph-name="afii61352" unicode="&#x2116;" horiz-adv-x="864" 
d="M467 75l25 -51l-25 -20l-25 38l-34 -46q-76 277 -219 453q9 -63 9 -108q0 -92 -21 -176t-67 -174l-107 133q69 112 98 191t29 157q0 25 -7 48q-37 36 -87 74l14 30l50 -29l-18 29l28 24q15 -21 26.5 -41.5t25.5 -49.5q106 -71 177 -150q0 64 14.5 124.5t46.5 125.5
l117 -128q-58 -89 -94 -234q29 -43 47 -75t42 -84zM729 416l8 -14l-54 -2l-31 -7l-11 18l5 2q-38 19 -61 52t-23 69q0 59 75 105l-19 25l88 -4l39 7l5 -21l-6 -1q42 -29 57.5 -52.5t15.5 -56.5q0 -75 -88 -120zM695 474l20 -35q46 36 46 78q0 33 -22.5 52.5t-62.5 19.5
l-23 29q-37 -36 -37 -68q0 -33 26 -56q9 -8 21 -12.5t32 -7.5zM558 300v37h264v-37h-264z" />
    <glyph glyph-name="trademark" unicode="&#x2122;" horiz-adv-x="725" 
d="M123 650l25 12l27 -40q40 0 78 12t59 31l19 -13q-23 -29 -49 -47t-78 -40q11 -29 15 -48.5t4 -46.5q0 -51 -17 -97.5t-53 -92.5l-73 71q78 86 78 178l-2 23q-50 0 -90.5 9.5t-80.5 29.5l57 67q28 -15 48 -22t46 -11zM377 285l-64 74q72 65 72 165l-2 32l-37 19l25 31
l-32 42l20 17l31 -37l25 31q40 -31 60.5 -58.5t43.5 -79.5q27 47 50 73t64 61l21 -25q10 13 15 18l16 16l19 -19q-12 -12 -15 -16.5t-14 -21.5l23 -26l-29 -13l-1 -22q0 -95 60 -184l-67 -75q-48 73 -48 166q0 43 10 87q-63 -53 -77 -86q7 -28 10 -49t3 -40q0 -12 -1 -24
t-5 -54h-26l2 39q0 45 -9 69q-4 -12 -6 -36t-2 -72h-27l-4 60q0 54 14 99q-8 13 -29.5 39t-32.5 36q6 -45 6 -76q0 -88 -62 -160z" />
    <glyph glyph-name="FL0" unicode="&#xe000;" horiz-adv-x="500" 
d="M31 0v833h438v-833h-438zM438 31v771h-376v-771h376z" />
    <glyph glyph-name="FL1" unicode="&#xe001;" horiz-adv-x="0" 
 />
    <glyph glyph-name="FL2" unicode="&#xe002;" horiz-adv-x="250" 
 />
  </font>
</defs>
</svg>
